<ttFont>
          <CharString index="0">
            0 -52 -3 -51 -6 -49 -6 -49 -12 -48 -16 -48 -16 -48 -22 -42 -24 -35 -24 -35 -31 -29 -39 -22 -39 -22 -45 -11 -49 0 -49 0 -43 11 -39 22 rrcurveto
            -39 22 -32 29 -25 35 -25 35 -20 42 -16 48 -16 48 -11 48 -7 49 -7 49 -3 51 0 52 0 48 3 46 6 45 6 45 12 44 16 44 rrcurveto
            16 44 22 38 24 32 24 32 31 27 39 20 39 20 45 10 49 0 61 0 53 -15 45 -30 45 -30 35 -38 24 -50 24 -50 17 -53 11 -55 rrcurveto
            11 -55 6 -58 0 -61 rrcurveto
            return
          </CharString>
          <CharString index="1">
            0 -71 6 -71 14 -71 14 -71 23 -70 31 -69 31 -69 39 -61 46 -53 46 -53 59 -42 71 -33 71 -33 78 -16 86 0 87 0 78 16 71 33 rrcurveto
            71 33 58 42 46 53 46 53 39 61 31 70 31 70 23 70 13 70 13 70 7 71 0 71 0 67 -7 67 -13 66 -13 66 -23 66 -31 65 rrcurveto
            -31 65 -38 58 -46 49 -46 49 -58 40 -71 31 -71 31 -79 15 -87 0 -87 0 -79 -15 -71 -31 -71 -31 -58 -40 -46 -50 -46 -50 -39 -57 -31 -65 rrcurveto
            -31 -65 -23 -65 -13 -66 -13 -66 -7 -67 0 -67 rrcurveto
            return
          </CharString>
          <CharString index="2">
            -90 74 -74 90 91 73 74 90 91 -73 73 -91 vhcurveto
            -90 -74 -73 -91 hvcurveto
            return
          </CharString>
          <CharString index="3">
            0 -3 0 -3 1 -3 5 -27 65 -12 23 0 24 0 70 17 2 31 rrcurveto
            20 374 rlineto
            0 7 0 7 -2 6 -8 38 -72 18 -32 0 rrcurveto
            -4 hlineto
            -36 -77 -26 -50 hvcurveto
            return
          </CharString>
          <CharString index="4">
            -240 266 -287 239 287 288 240 -287 302 -240 -302 vlineto
            return
          </CharString>
          <CharString index="5">
            70 -52 91 -115 -86 -73 -83 -78 vhcurveto
            0 -101 61 -52 55 -13 1 -3 1 -4 0 -4 0 -34 -35 -72 -10 -16 rrcurveto
            74 -43 rlineto
            46 36 133 142 0 164 rrcurveto
            return
          </CharString>
          <CharString index="6">
            -240 772 240 vlineto
            return
          </CharString>
          <CharString index="7">
            -90 74 -74 90 91 73 74 90 91 -73 73 -91 -90 -74 -73 -91 vhcurveto
            return
          </CharString>
          <CharString index="8">
            173 -503 -347 0 rlineto
            return
          </CharString>
          <CharString index="9">
            -311 0 -523 -1456 311 0 136 382 463 0 136 -382 311 0 rlineto
            return
          </CharString>
          <CharString index="10">
            227 hlineto
            223 58 -94 -105 -105 -58 -94 -223 hvcurveto
            -227 hlineto
            return
          </CharString>
          <CharString index="11">
            168 hlineto
            201 55 -92 -79 -79 -55 -88 -201 hvcurveto
            -168 hlineto
            return
          </CharString>
          <CharString index="12">
            -1456 525 vlineto
            446 73 285 154 hvcurveto
            0 116 -88 192 -205 50 115 36 94 83 0 154 rrcurveto
            149 -76 237 -448 vhcurveto
            return
          </CharString>
          <CharString index="13">
            295 hlineto
            -30 231 -204 285 -348 0 rrcurveto
            -449 -166 -418 -341 -337 166 -418 449 hvcurveto
            347 0 205 280 29 232 rrcurveto
            -294 hlineto
            -27 -126 -102 -146 -158 0 rrcurveto
            -254 -78 272 243 247 78 272 254 hvcurveto
            158 0 102 -150 27 -126 rrcurveto
            return
          </CharString>
          <CharString index="14">
            -310 -151 -202 -240 vhcurveto
            -139 977 139 hlineto
            240 151 -197 -268 hvcurveto
            return
          </CharString>
          <CharString index="15">
            389 -244 315 -370 vhcurveto
            -467 -1456 467 hlineto
            364 250 323 429 hvcurveto
            return
          </CharString>
          <CharString index="16">
            -1456 982 240 -714 386 651 240 -651 350 714 240 vlineto
            return
          </CharString>
          <CharString index="17">
            -1456 268 627 651 239 -651 351 714 239 vlineto
            return
          </CharString>
          <CharString index="18">
            433 142 368 320 hvcurveto
            146 -581 -240 303 vlineto
            -139 -50 -217 -247 -233 -107 297 254 227 107 268 235 vhcurveto
            59 0 131 -69 21 -74 rrcurveto
            258 86 rlineto
            -82 186 -184 111 -203 0 rrcurveto
            -457 -168 -397 -338 -365 168 -424 455 hvcurveto
            return
          </CharString>
          <CharString index="19">
            -1456 268 624 485 -624 270 1456 -270 -592 -485 592 vlineto
            return
          </CharString>
          <CharString index="20">
            268 1456 -268 hlineto
            return
          </CharString>
          <CharString index="21">
            -351 156 -270 358 340 172 257 364 vhcurveto
            870 -268 -870 vlineto
            -182 -51 -199 -193 -206 -40 203 178 vhcurveto
            return
          </CharString>
          <CharString index="22">
            -1456 268 496 vlineto
            117 132 454 -628 336 0 -585 808 556 648 -335 0 -543 -623 0 623 rlineto
            return
          </CharString>
          <CharString index="23">
            -1456 984 240 -716 1216 vlineto
            return
          </CharString>
          <CharString index="24">
            268 962 hlineto
            307 -962 270 0 312 962 0 -962 268 0 0 1456 -359 0 -356 -1032 -350 1032 -360 0 rlineto
            return
          </CharString>
          <CharString index="25">
            268 973 hlineto
            569 -973 264 0 0 1456 -268 0 0 -940 -573 940 -260 0 rlineto
            return
          </CharString>
          <CharString index="26">
            -243 -77 -272 -255 -254 -78 272 243 247 78 272 254 255 77 -272 -247 vhcurveto
            return
          </CharString>
          <CharString index="27">
            -337 166 -418 449 450 164 418 337 341 -164 418 -450 -449 -166 -418 -341 vhcurveto
            return
          </CharString>
          <CharString index="28">
            392 71 vlineto
            238 137 -21 -175 -175 -137 -21 -238 hvcurveto
            return
          </CharString>
          <CharString index="29">
            -1456 268 584 vlineto
            280 440 7 429 430 -440 6 -280 hvcurveto
            return
          </CharString>
          <CharString index="30">
            392 71 vlineto
            238 137 -23 -174 -174 -137 -21 -238 hvcurveto
            return
          </CharString>
          <CharString index="31">
            306 0 -360 627 rlineto
            205 54 100 138 0 201 rrcurveto
            429 -440 7 -280 vhcurveto
            -268 -1456 268 582 hlineto
            23 0 36 -1 32 0 24 0 22 1 13 1 rrcurveto
            return
          </CharString>
          <CharString index="32">
            39 -260 221 -173 277 0 280 0 226 163 0 270 0 236 -137 106 -175 82 -140 66 -265 56 0 140 0 124 101 37 110 0 110 0 56 -45 30 -71 rrcurveto
            273 51 rlineto
            -57 170 -182 136 -230 0 -247 0 -238 -130 0 -272 0 -214 136 -85 135 -65 218 -104 228 -26 0 -192 0 -110 -79 -81 -153 0 -158 0 -81 115 -30 119 rrcurveto
            return
          </CharString>
          <CharString index="33">
            -240 477 -1216 268 1216 457 240 vlineto
            return
          </CharString>
          <CharString index="34">
            341 182 257 364 hvcurveto
            870 -268 -870 vlineto
            -182 -61 -199 -194 -193 -61 199 182 vhcurveto
            870 -268 -870 vlineto
            -364 182 -257 340 vhcurveto
            return
          </CharString>
          <CharString index="35">
            -299 -1045 -295 1045 -289 0 427 -1456 317 0 417 1456 rlineto
            return
          </CharString>
          <CharString index="36">
            238 -1456 320 0 178 975 178 -975 320 0 238 1456 -271 0 -127 -964 -181 937 -314 0 -181 -931 -127 958 rlineto
            return
          </CharString>
          <CharString index="37">
            463 -765 0 -690 268 0 0 690 461 765 -340 0 -256 -475 -256 475 rlineto
            return
          </CharString>
          <CharString index="38">
            -240 713 vlineto
            -780 -1216 1228 0 0 240 -772 0 778 1216 rlineto
            return
          </CharString>
          <CharString index="39">
            -284 344 -236 0 -284 -341 277 0 124 158 132 -161 rlineto
            return
          </CharString>
          <CharString index="40">
            4 -3 5 -2 5 0 3 0 3 1 4 1 11 3 12 6 13 11 13 11 10 10 8 10 8 10 7 15 6 20 4 12 1 10 0 9 rrcurveto
            0 6 -1 7 -1 5 -1 5 -2 5 -4 3 rrcurveto
            -283 247 rlineto
            -8 7 -9 3 -11 0 -6 0 -6 -1 -7 -2 -14 -4 -15 -7 -14 -10 -14 -10 -12 -12 -9 -11 -11 -13 -9 -17 -5 -22 -3 -12 -1 -11 0 -11 rrcurveto
            0 -9 1 -9 2 -8 3 -13 7 -10 9 -7 rrcurveto
            return
          </CharString>
          <CharString index="41">
            122 70 -82 -86 -86 -70 -79 -122 -122 -81 79 86 hvcurveto
            86 81 82 122 vhcurveto
            return
          </CharString>
          <CharString index="42">
            -198 -162 -161 -222 -222 162 -165 202 hvcurveto
            140 0 102 87 25 78 rrcurveto
            return
          </CharString>
          <CharString index="43">
            -136 257 305 vlineto
            304 vlineto
            367 -244 126 -262 vhcurveto
            -107 0 -153 -46 -59 -48 rrcurveto
            103 -164 rlineto
            54 24 62 29 100 0 rrcurveto
            100 147 -35 -204 hvcurveto
            -82 vlineto
            -25 78 -104 87 -140 0 rrcurveto
            return
          </CharString>
          <CharString index="44">
            69 -109 122 -76 116 0 rrcurveto
            262 117 256 304 304 -115 264 -264 hvcurveto
            -116 0 -122 -74 -69 -109 rrcurveto
            537 -258 vlineto
            return
          </CharString>
          <CharString index="45">
            -224 -118 -107 -94 -97 -125 76 255 253 125 76 97 97 115 -84 -245 vhcurveto
            return
          </CharString>
          <CharString index="46">
            213 112 rlineto
            -78 142 -162 90 -153 0 rrcurveto
            -289 -211 -229 -339 -338 199 -223 321 hvcurveto
            172 0 129 119 69 114 rrcurveto
            -214 111 rlineto
            -29 -53 -20 -59 -107 0 rrcurveto
            -143 -115 131 198 199 108 139 130 hvcurveto
            92 0 53 -53 35 -61 rrcurveto
            return
          </CharString>
          <CharString index="47">
            258 1454 -258 -537 hlineto
            -69 109 -122 74 -116 0 rrcurveto
            -264 -115 -264 -304 hvcurveto
            return
          </CharString>
          <CharString index="48">
            -304 117 -256 262 vhcurveto
            116 0 122 76 69 109 rrcurveto
            return
          </CharString>
          <CharString index="49">
            245 115 84 97 97 125 -76 -253 -255 -125 -76 -97 -94 -118 107 224 vhcurveto
            return
          </CharString>
          <CharString index="50">
            8 109 72 108 126 0 127 0 71 -105 9 -112 rrcurveto
            return
          </CharString>
          <CharString index="51">
            -76 0 -135 39 -5 229 rrcurveto
            664 68 hlineto
            323 -190 238 -267 -266 -215 -238 -323 -327 223 -239 267 vhcurveto
            133 0 163 67 86 131 rrcurveto
            -228 98 rlineto
            -38 -46 -57 -20 -59 0 rrcurveto
            return
          </CharString>
          <CharString index="52">
            165 229 -165 100 hlineto
            60 25 27 57 vhcurveto
            20 0 44 -11 24 -28 rrcurveto
            149 179 rlineto
            -59 58 -84 31 -84 0 rrcurveto
            -198 -152 -203 -133 hvcurveto
            -80 -139 -229 139 -844 258 vlineto
            return
          </CharString>
          <CharString index="53">
            -106 -86 -61 -123 vhcurveto
            -131 0 -62 65 -11 84 -95 -4 -148 -7 0 0 16 -146 122 -216 310 0 rrcurveto
            310 156 199 212 hvcurveto
            1123 -258 -156 vlineto
            return
          </CharString>
          <CharString index="54">
            -69 109 -122 74 -116 0 rrcurveto
            -264 -115 -264 -304 -304 117 -256 262 hvcurveto
            116 0 122 76 69 109 rrcurveto
            return
          </CharString>
          <CharString index="55">
            536 vlineto
            274 91 57 108 108 72 -55 -275 vhcurveto
            -537 258 668 vlineto
            285 -171 149 -143 vhcurveto
            -142 0 -124 -86 -57 -104 rrcurveto
            542 -258 -1454 vlineto
            return
          </CharString>
          <CharString index="56">
            -87 67 -73 80 80 67 73 87 87 -67 73 -80 -80 -67 -73 -87 vhcurveto
            return
          </CharString>
          <CharString index="57">
            -1073 258 1073 vlineto
            return
          </CharString>
          <CharString index="58">
            395 476 -315 0 -281 -357 0 738 -258 0 0 -1454 258 0 0 444 14 23 311 -467 294 0 rlineto
            return
          </CharString>
          <CharString index="59">
            1173 -258 -1178 vlineto
            -236 114 -69 237 vhcurveto
            223 vlineto
            -72 -21 40 47 hvcurveto
            return
          </CharString>
          <CharString index="60">
            539 vlineto
            201 30 128 114 114 30 -128 -201 vhcurveto
            -539 258 668 vlineto
            286 -117 148 -171 vhcurveto
            -130 0 -115 -148 -45 -92 -8 19 -35 221 -203 0 -130 0 -98 -116 -41 -71 rrcurveto
            return
          </CharString>
          <CharString index="61">
            158 -258 -1073 258 539 vlineto
            return
          </CharString>
          <CharString index="62">
            201 28 128 116 115 30 -128 -201 vhcurveto
            -539 vlineto
            return
          </CharString>
          <CharString index="63">
            536 vlineto
            274 91 57 108 108 72 -55 -275 vhcurveto
            -537 258 668 vlineto
            285 -171 149 -143 vhcurveto
            -142 0 -124 -86 -57 -104 rrcurveto
            return
          </CharString>
          <CharString index="64">
            162 -258 -1074 vlineto
            return
          </CharString>
          <CharString index="65">
            261 106 68 116 115 107 -68 -261 -261 -107 -70 -115 -116 -106 70 261 vhcurveto
            return
          </CharString>
          <CharString index="66">
            -348 169 -218 304 305 166 224 342 342 -166 221 -305 -304 -169 -221 -342 vhcurveto
            return
          </CharString>
          <CharString index="67">
            583 vlineto
            69 -109 122 -76 116 0 rrcurveto
            262 117 256 304 304 -115 264 -264 hvcurveto
            -116 0 -122 -74 -69 -109 rrcurveto
            return
          </CharString>
          <CharString index="68">
            156 -258 -1499 vlineto
            return
          </CharString>
          <CharString index="69">
            -224 -118 -107 -94 -97 -125 76 255 vhcurveto
            return
          </CharString>
          <CharString index="70">
            253 125 76 97 97 115 -84 -245 vhcurveto
            return
          </CharString>
          <CharString index="71">
            97 201 rlineto
            -55 52 -80 42 -69 0 -80 0 -112 -83 -57 -107 rrcurveto
            return
          </CharString>
          <CharString index="72">
            161 -258 -1073 258 553 vlineto
            return
          </CharString>
          <CharString index="73">
            137 45 178 155 vhcurveto
            47 0 86 -48 23 -13 rrcurveto
            return
          </CharString>
          <CharString index="74">
            136 -72 159 -29 0 -95 0 -84 -73 -10 -81 0 -81 0 -77 44 -15 84 rrcurveto
            -232 -39 rlineto
            42 -192 145 -127 220 0 215 0 185 123 0 176 0 174 -73 88 -147 72 -165 80 -128 6 0 93 0 74 58 13 68 0 68 0 52 -18 16 -94 rrcurveto
            240 43 rlineto
            -23 144 -133 155 -224 0 -224 0 -146 -112 0 -178 0 -188 76 -56 142 -75 rrcurveto
            return
          </CharString>
          <CharString index="75">
            -551 vlineto
            -208 83 -100 286 vhcurveto
            39 217 -39 hlineto
            -45 -66 10 85 hvcurveto
            547 154 229 -154 250 -258 -250 -141 -229 vlineto
            return
          </CharString>
          <CharString index="76">
            1073 -259 -536 vlineto
            return
          </CharString>
          <CharString index="77">
            -274 -118 -57 -80 -80 -100 55 275 vhcurveto
            537 -258 -538 vlineto
            -379 128 -185 192 vhcurveto
            137 0 123 86 57 104 rrcurveto
            return
          </CharString>
          <CharString index="78">
            213 0 339 1073 -247 0 -193 -686 -180 686 -271 0 rlineto
            return
          </CharString>
          <CharString index="79">
            136 -664 219 0 315 1073 -243 0 -170 -666 -130 670 -232 0 -130 -673 -168 669 -255 0 315 -1073 201 0 rlineto
            return
          </CharString>
          <CharString index="80">
            -341 545 346 528 -314 0 -187 -330 -190 330 -290 0 323 -537 -341 -536 307 0 190 335 190 -335 rlineto
            return
          </CharString>
          <CharString index="81">
            0 58 0 1044 -259 0 0 -536 rlineto
            -274 -118 -57 -80 -80 -100 55 275 vhcurveto
            537 -258 -538 vlineto
            -379 128 -185 192 vhcurveto
            137 0 123 86 57 104 rrcurveto
            -220 vlineto
            -109 -87 -65 -109 vhcurveto
            -109 0 -72 51 -24 70 rrcurveto
            -204 -112 rlineto
            58 -124 146 -117 211 0 rrcurveto
            215 233 219 217 hvcurveto
            return
          </CharString>
          <CharString index="82">
            438 833 -806 0 0 -239 387 0 -436 -834 823 0 0 240 rlineto
            return
          </CharString>
          <CharString index="83">
            -241 vlineto
            62 45 41 52 77 0 rrcurveto
            return
          </CharString>
          <CharString index="84">
            82 0 82 -152 115 0 83 0 58 66 37 28 rrcurveto
            260 vlineto
            -43 -41 -65 -66 -70 0 rrcurveto
            return
          </CharString>
          <CharString index="85">
            -104 0 -74 152 -98 0 rrcurveto
            -78 0 -60 -66 -45 -37 rrcurveto
            return
          </CharString>
          <CharString index="86">
            90 -74 74 -90 -91 -73 -74 -90 -91 73 -73 91 vhcurveto
            90 74 73 91 hvcurveto
            return
          </CharString>
          <CharString index="87">
            0 -45 16 -38 32 -32 32 -32 39 -17 45 0 45 0 39 16 32 32 32 32 16 39 0 45 0 45 -16 39 -32 32 -32 32 -39 16 -45 0 rrcurveto
            -45 0 -39 -16 -32 -32 -32 -32 -16 -39 0 -45 rrcurveto
            return
          </CharString>
          <CharString index="88">
            -127 772 127 vlineto
            return
          </CharString>
          <CharString index="89">
            83 64 67 81 81 63 -67 -83 -84 -63 -66 -81 -81 -64 66 84 vhcurveto
            return
          </CharString>
          <CharString index="90">
            -173 142 -139 176 176 141 139 173 173 -141 139 -176 -176 -142 -139 -173 vhcurveto
            return
          </CharString>
          <CharString index="91">
            6 19 rlineto
            8 26 10 20 13 11 13 11 19 6 22 0 23 0 18 -7 14 -14 14 -14 7 -21 0 -29 0 -15 -3 -16 -6 -14 -6 -14 -9 -13 -10 -11 rrcurveto
            -10 -11 -13 -13 -16 -13 -16 -13 -16 -12 -16 -11 -16 -11 -17 -13 -20 -16 -20 -16 -18 -15 -13 -13 -22 -22 -18 -22 -15 -22 -15 -22 -10 -23 -8 -24 rrcurveto
            -8 -24 -5 -23 -3 -22 -3 -22 -2 -26 0 -29 rrcurveto
            -20 525 160 -315 vlineto
            5 6 9 10 12 13 12 13 22 18 33 25 rrcurveto
            70 53 rlineto
            14 10 15 13 16 16 32 32 23 32 13 30 13 30 6 37 0 43 0 36 -5 33 -10 29 -10 29 -14 24 -17 18 -17 18 -20 15 -22 12 rrcurveto
            -22 12 -22 8 -22 4 -22 4 -21 3 -23 0 -55 0 -52 -18 -48 -36 -48 -36 -29 -46 -11 -53 rrcurveto
            -4 -17 rlineto
            return
          </CharString>
          <CharString index="92">
            8 -20 rlineto
            16 -43 21 -36 29 -29 29 -29 31 -21 34 -12 34 -12 37 -7 40 0 38 0 36 7 34 13 34 13 28 18 24 23 24 23 18 26 14 30 rrcurveto
            14 30 7 33 0 33 0 27 -4 25 -7 23 -7 23 -11 20 -13 17 -13 17 -12 13 -10 9 -10 9 -8 7 -8 6 rrcurveto
            return
          </CharString>
          <CharString index="93">
            40 36 19 46 0 55 0 37 -7 33 -14 29 -14 29 -17 23 -24 17 -24 17 -25 12 -28 8 -28 8 -29 4 -32 0 -112 0 -76 -51 -39 -103 rrcurveto
            -8 -21 164 -43 6 16 rlineto
            5 12 8 10 12 9 12 9 13 4 15 0 22 0 19 -8 14 -13 14 -13 7 -20 0 -26 0 -18 -7 -17 -15 -16 -15 -16 -16 -9 -19 0 rrcurveto
            -92 -146 103 hlineto
            25 0 23 -9 19 -18 rrcurveto
            return
          </CharString>
          <CharString index="94">
            19 -18 11 -20 0 -25 0 -25 -9 -21 -18 -17 -18 -17 -23 -8 -29 0 -21 0 -20 6 -19 12 -19 12 -15 20 -11 27 rrcurveto
            -7 16 rlineto
            return
          </CharString>
          <CharString index="95">
            308 213 rlineto
            9 7 6 10 3 13 2 8 1 9 0 9 0 11 -1 11 -3 12 -5 22 -8 17 -11 13 -9 11 -12 12 -14 10 -14 10 -15 7 -14 4 rrcurveto
            -7 2 -6 1 -6 0 -11 0 -10 -3 -8 -7 rrcurveto
            -282 -247 rlineto
            -4 -3 -3 -5 -1 -5 -1 -5 -1 -5 0 -5 0 -10 2 -11 4 -13 6 -20 7 -15 8 -10 8 -10 10 -10 13 -11 13 -11 12 -6 11 -3 rrcurveto
            4 -1 3 -1 3 0 5 0 4 2 4 3 rrcurveto
            return
          </CharString>
          <CharString index="96">
            113 -127 rlineto
            88 46 157 75 0 111 0 84 -53 74 -55 49 0 0 -98 -55 -64 -35 43 -45 0 -33 0 -33 0 -41 -87 -45 -44 -25 rrcurveto
            return
          </CharString>
          <CharString index="97">
            -603 174 768 -160 vlineto
            -181 -165 rlineto
            return
          </CharString>
          <CharString index="98">
            436 -176 vlineto
            -291 -466 0 -128 293 0 0 -174 174 0 0 174 69 0 0 158 rlineto
            return
          </CharString>
          <CharString index="99">
            940 1740 -201 0 -949 -1740 rlineto
            return
          </CharString>
          <CharString index="100">
            8 -20 rlineto
            16 -43 21 -36 29 -29 29 -29 31 -21 34 -12 34 -12 37 -7 40 0 38 0 36 7 34 13 34 13 28 18 24 23 24 23 18 26 14 30 rrcurveto
            14 30 6 33 0 33 0 27 -3 25 -7 23 -7 23 -11 20 -13 17 -13 17 -12 13 -10 9 -10 9 -8 7 -8 6 rrcurveto
            return
          </CharString>
          <CharString index="101">
            40 36 19 46 0 55 0 37 -7 33 -14 29 -14 29 -17 23 -24 17 -24 17 -25 12 -28 8 -28 8 -29 4 -32 0 -112 0 -76 -51 -39 -103 rrcurveto
            -8 -21 164 -43 6 16 rlineto
            5 12 8 10 12 9 12 9 14 4 15 0 22 0 18 -8 14 -13 14 -13 7 -20 0 -26 0 -18 -7 -17 -15 -16 -15 -16 -17 -9 -19 0 rrcurveto
            -90 -146 102 hlineto
            25 0 23 -9 19 -18 rrcurveto
            return
          </CharString>
          <CharString index="102">
            19 -18 10 -20 0 -25 0 -25 -8 -21 -18 -17 -18 -17 -23 -8 -29 0 -21 0 -20 6 -19 12 -19 12 -15 20 -11 27 rrcurveto
            -7 16 rlineto
            return
          </CharString>
          <CharString index="103">
            -14 -10 -21 -5 -27 -1 -31 1 -24 5 -16 11 -43 29 -41 57 -38 87 rrcurveto
            -161 hlineto
            -1 -10 0 -11 0 -10 0 -78 23 -78 47 -79 27 -46 41 -38 55 -31 52 -30 53 -15 53 0 53 0 53 15 52 30 55 31 41 38 27 46 rrcurveto
            47 79 23 78 0 78 0 10 0 11 -1 10 rrcurveto
            -157 hlineto
            -53 -93 -42 -58 -32 -23 rrcurveto
            return
          </CharString>
          <CharString index="104">
            -11 5 -14 8 -15 9 -15 9 -14 9 -13 9 -13 9 -11 11 -10 11 -10 11 -5 11 0 9 0 15 0 11 1 8 1 8 4 12 7 14 rrcurveto
            7 14 10 15 13 14 rrcurveto
            -162 90 rlineto
            -72 -64 -36 -69 0 -74 0 -18 4 -17 8 -17 8 -17 11 -16 13 -14 13 -14 16 -13 17 -14 17 -14 17 -12 18 -10 rrcurveto
            54 -30 rlineto
            18 -10 16 -9 15 -7 rrcurveto
            return
          </CharString>
          <CharString index="105">
            -271 0 -132 -161 -124 158 -277 0 284 -341 236 0 rlineto
            return
          </CharString>
          <CharString index="106">
            -241 vlineto
            9 7 14 11 19 15 19 15 15 12 10 7 10 7 14 6 17 7 17 7 18 3 18 0 18 0 21 -8 23 -16 23 -16 22 -17 20 -19 rrcurveto
            20 -19 23 -17 28 -16 rrcurveto
            return
          </CharString>
          <CharString index="107">
            28 -16 27 -8 26 0 19 0 20 4 20 8 20 8 15 8 11 8 11 8 14 10 17 14 17 14 11 9 3 3 rrcurveto
            260 vlineto
            -24 -23 -18 -16 -11 -10 -11 -10 -17 -13 -26 -14 -26 -14 -24 -7 -21 0 -19 0 -20 5 -20 10 -20 10 -19 13 -17 15 -26 22 2 2 -26 22 rrcurveto
            -17 15 -19 13 -19 10 rrcurveto
            return
          </CharString>
          <CharString index="108">
            -19 10 -19 5 -18 0 -15 0 -14 -3 -14 -4 -14 -4 -15 -7 -14 -9 -14 -9 -12 -7 -9 -7 -9 -7 -11 -9 -14 -13 rrcurveto
            -14 -13 -10 -8 -4 -3 rrcurveto
            return
          </CharString>
          <CharString index="109">
            0 -43 15 -37 29 -32 29 -32 34 -16 40 0 40 0 34 16 29 32 29 32 15 37 0 43 0 43 -15 37 -29 32 -29 32 -34 16 -40 0 rrcurveto
            -40 0 -34 -16 -29 -32 rrcurveto
            -29 -32 -15 -37 0 -43 rrcurveto
            return
          </CharString>
          <CharString index="110">
            35 -39 35 -27 38 -13 38 -13 47 -7 55 0 63 0 61 19 60 37 60 37 49 49 37 62 37 62 18 64 0 67 rrcurveto
            1108 -258 -1165 vlineto
            0 -32 -11 -27 -22 -21 -22 -21 -28 -10 -33 0 -17 0 -18 5 -17 8 -17 8 -13 10 -8 11 rrcurveto
            return
          </CharString>
          <CharString index="111">
            394 -414 336 0 -502 549 507 524 -335 0 -400 -401 0 402 -268 0 0 -1075 268 0 rlineto
            return
          </CharString>
          <CharString index="112">
            0 32 -10 30 -21 27 -21 27 -28 13 -37 0 -29 0 -27 -13 -22 -27 -22 -27 -11 -30 0 -32 0 -37 8 -30 16 -23 16 -23 19 -14 22 -6 rrcurveto
            1 -2 0 -2 0 -4 0 -12 -4 -16 -8 -22 -8 -22 -6 -16 -5 -10 rrcurveto
            52 -34 rlineto
            10 9 10 12 13 16 13 16 14 20 14 24 14 24 12 28 10 31 10 31 5 32 0 30 rrcurveto
            return
          </CharString>
          <CharString index="113">
            -36 19 -37 9 -37 0 -69 0 -63 -18 -58 -36 -58 -36 -45 -45 -30 -55 rrcurveto
            return
          </CharString>
          <CharString index="114">
            242 286 rlineto
            7 9 3 11 0 13 0 19 -6 19 -11 20 -11 20 -12 15 -14 9 -11 9 -14 7 -17 6 -17 6 -15 4 -15 0 -20 0 -15 -6 -9 -13 rrcurveto
            -209 -312 rlineto
            -3 -4 -1 -5 0 -5 0 -13 6 -16 11 -18 11 -18 10 -13 10 -7 10 -7 13 -8 15 -7 15 -7 14 -3 11 0 10 0 7 3 5 6 rrcurveto
            return
          </CharString>
          <CharString index="115">
            242 286 rlineto
            7 9 3 11 0 13 0 19 -5 19 -11 20 -11 20 -13 15 -14 9 -11 9 -14 7 -17 6 -17 6 -15 4 -15 0 -20 0 -15 -6 -9 -13 rrcurveto
            -209 -312 rlineto
            -3 -4 -1 -5 0 -5 0 -13 5 -16 11 -18 11 -18 11 -13 10 -7 10 -7 13 -8 15 -7 15 -7 14 -3 11 0 10 0 7 3 5 6 rrcurveto
            return
          </CharString>
          <CharString index="116">
            0 30 10 26 20 21 20 21 25 10 29 0 29 0 25 -10 20 -21 20 -21 10 -26 0 -30 0 -30 -10 -25 -20 -21 -20 -21 -25 -10 -29 0 rrcurveto
            -29 0 -25 10 -20 21 -20 21 -10 25 0 30 rrcurveto
            return
          </CharString>
          <CharString index="117">
            0 -62 22 -53 45 -44 45 -44 54 -21 63 0 63 0 55 21 44 44 44 44 23 53 0 62 0 62 -23 53 -44 44 -44 44 -55 22 -63 0 rrcurveto
            -63 0 -54 -22 -45 -44 -45 -44 -22 -53 0 -62 rrcurveto
            return
          </CharString>
          <CharString index="118">
            -240 773 240 vlineto
            return
          </CharString>
          <CharString index="119">
            -239 773 239 vlineto
            return
          </CharString>
          <CharString index="120">
            0 40 -15 37 -29 34 -29 34 -41 16 -53 0 -42 0 -37 -16 -32 -34 -32 -34 -16 -37 0 -40 0 -47 11 -38 23 -28 23 -28 28 -18 31 -7 rrcurveto
            1 -3 1 -3 0 -5 0 -15 -6 -20 -11 -27 -11 -27 -10 -20 -7 -13 rrcurveto
            74 -43 rlineto
            14 11 16 16 18 20 18 20 19 25 21 30 21 30 17 35 14 39 14 39 7 39 0 38 rrcurveto
            return
          </CharString>
          <CharString index="121">
            -175 -254 275 0 168 254 rlineto
            return
          </CharString>
          <CharString index="122">
            0 -71 22 -64 44 -56 64 -81 84 -40 104 0 72 0 65 22 56 42 83 62 42 82 0 104 0 71 -22 63 -44 56 -64 82 -84 41 -104 0 rrcurveto
            -74 0 -64 -21 -55 -42 -83 -63 -42 -83 0 -104 rrcurveto
            return
          </CharString>
          <CharString index="123">
            -207 hlineto
            15 -38 15 -35 16 -31 16 -31 16 -28 18 -23 38 -48 45 -37 53 -25 53 -25 55 -13 57 0 63 0 59 16 53 31 53 31 44 40 36 46 rrcurveto
            18 23 16 27 15 31 15 31 13 29 11 27 rrcurveto
            -195 0 -33 -65 0 2 rlineto
            -22 -34 -24 -25 -27 -15 -27 -15 -32 -8 -36 0 -30 0 -29 9 -28 16 -28 16 -25 26 -20 36 rrcurveto
            -10 10 -9 19 -11 30 rrcurveto
            return
          </CharString>
          <CharString index="124">
            0 -30 7 -27 14 -23 31 -56 48 -28 64 0 30 0 27 6 23 14 56 31 28 49 0 64 0 30 -6 27 -14 23 -31 56 -49 28 -64 0 rrcurveto
            -30 0 -27 -7 -23 -14 -56 -31 -28 -48 0 -64 rrcurveto
            return
          </CharString>
          <CharString index="125">
            0 -45 16 -39 32 -32 32 -32 39 -16 45 0 45 0 39 16 32 32 32 32 16 39 0 45 0 45 -16 39 -32 32 -32 32 -39 16 -45 0 rrcurveto
            -45 0 -39 -16 -32 -32 -32 -32 -16 -39 0 -45 rrcurveto
            return
          </CharString>
          <CharString index="126">
            92 300 rlineto
            1 4 1 3 0 4 0 7 -2 8 -4 8 -8 17 -14 16 -18 13 -18 13 -18 8 -17 3 -10 2 -12 1 -13 0 rrcurveto
            -13 hlineto
            -18 -1 -15 -5 -13 -6 -18 -8 -11 -12 -3 -15 rrcurveto
            -51 -310 rlineto
            -1 -5 2 -5 2 -5 6 -12 10 -11 18 -12 18 -12 15 -8 12 -2 12 -2 15 -1 17 0 17 0 13 2 10 5 8 4 6 6 2 8 rrcurveto
            return
          </CharString>
          <CharString index="127">
            91 300 rlineto
            3 10 -1 11 -6 13 -8 17 -14 16 -18 13 -18 13 -17 8 -17 3 -10 2 -12 1 -13 0 rrcurveto
            -13 hlineto
            -18 -1 -16 -5 -13 -6 -18 -8 -11 -12 -3 -15 rrcurveto
            -50 -310 rlineto
            -1 -5 1 -5 2 -5 6 -12 11 -11 18 -12 18 -12 14 -8 12 -2 12 -2 15 -1 17 0 17 0 14 2 10 5 8 4 6 6 2 8 rrcurveto
            return
          </CharString>
          <CharString index="128">
            141 -423 -300 0 rlineto
            return
          </CharString>
          <CharString index="129">
            125 -379 307 0 -508 1456 -256 0 -563 -1456 311 0 136 379 rlineto
            return
          </CharString>
          <CharString index="130">
            -1456 982 240 -714 387 652 239 -652 351 714 239 vlineto
            return
          </CharString>
          <CharString index="131">
            -1456 268 625 485 -625 269 1456 -269 -592 -485 592 vlineto
            return
          </CharString>
          <CharString index="132">
            269 1456 -269 hlineto
            return
          </CharString>
          <CharString index="133">
            462 -751 0 -705 269 0 0 705 451 751 -278 0 -310 -537 -310 537 rlineto
            return
          </CharString>
          <CharString index="134">
            -39 22 -40 32 -41 41 -41 41 -29 44 -16 48 -16 48 -11 48 -7 49 -7 49 -3 51 0 52 0 48 3 46 6 45 6 45 12 44 16 44 rrcurveto
            16 44 22 38 24 32 24 32 31 27 39 20 39 20 45 10 49 0 61 0 53 -15 45 -30 45 -30 35 -38 24 -50 24 -50 17 -53 11 -55 rrcurveto
            11 -55 6 -58 0 -61 0 -52 -3 -51 -6 -49 -6 -49 -11 -50 -15 -53 -15 -53 -31 -47 -48 -41 -50 -42 -45 -27 -41 -11 rrcurveto
            -229 602 229 -191 vlineto
            20 32 19 35 16 36 31 70 23 70 13 70 13 70 7 71 0 71 0 67 -7 67 -13 66 -13 66 -23 66 -31 65 -31 65 -38 58 -46 49 rrcurveto
            -46 49 -58 40 -71 31 -71 31 -79 15 -87 0 -87 0 -79 -15 -71 -31 -71 -31 -58 -40 -46 -50 -46 -50 -39 -57 -31 -65 -31 -65 -23 -65 -13 -66 rrcurveto
            -13 -66 -7 -67 0 -67 0 -71 6 -71 14 -71 14 -71 23 -70 31 -69 16 -36 19 -34 20 -32 rrcurveto
            -212 -229 602 hlineto
            return
          </CharString>
          <CharString index="135">
            227 hlineto
            190 95 -64 -128 hvcurveto
            0 -60 -21 -50 -44 -39 -44 -39 -73 -19 -103 0 rrcurveto
            -227 hlineto
            return
          </CharString>
          <CharString index="136">
            168 hlineto
            91 0 66 -17 40 -33 rrcurveto
            return
          </CharString>
          <CharString index="137">
            40 -33 19 -40 0 -47 0 -47 -19 -40 -40 -34 -40 -34 -66 -17 -91 0 rrcurveto
            -168 hlineto
            return
          </CharString>
          <CharString index="138">
            -1456 525 vlineto
            85 0 74 11 65 21 65 21 51 26 36 31 36 31 29 35 23 42 23 42 14 39 7 35 rrcurveto
            return
          </CharString>
          <CharString index="139">
            7 35 4 35 0 35 0 42 -10 44 -19 47 -19 47 -33 45 -46 44 -46 44 -56 30 -64 15 62 19 50 33 37 45 rrcurveto
            return
          </CharString>
          <CharString index="140">
            37 45 19 58 0 73 0 23 -2 23 -3 22 -3 22 -7 26 -10 26 -10 26 -12 24 -16 22 -16 22 -21 22 -27 22 -27 22 -32 19 -35 15 rrcurveto
            -35 15 -44 12 -51 9 -51 9 -56 5 -62 0 rrcurveto
            return
          </CharString>
          <CharString index="141">
            714 239 -982 -1456 268 hlineto
            return
          </CharString>
          <CharString index="142">
            1332 0 -529 1456 -270 0 rlineto
            return
          </CharString>
          <CharString index="143">
            262 988 hlineto
            313 -988 270 0 318 999 0 -999 262 0 0 1456 -359 0 -357 -1032 -349 1032 -360 0 rlineto
            return
          </CharString>
          <CharString index="144">
            0 -240 982 1 0 240 rlineto
            return
          </CharString>
          <CharString index="145">
            -1456 268 1217 485 -1217 269 1456 vlineto
            return
          </CharString>
          <CharString index="146">
            394 130 vlineto
            184 92 -66 -131 -131 -92 -66 -184 hvcurveto
            return
          </CharString>
          <CharString index="147">
            -1456 268 580 130 vlineto
            85 0 78 12 70 23 70 23 58 32 46 40 46 40 35 47 25 53 25 53 12 57 0 60 0 61 -12 57 -23 52 -23 52 -33 46 -44 40 rrcurveto
            -44 40 -59 31 -71 23 -71 23 -80 11 -90 0 rrcurveto
            -130 hlineto
            return
          </CharString>
          <CharString index="148">
            262 -814 vlineto
            412 446 -422 455 824 0 0 262 -1102 0 0 -359 333 -357 -333 -349 0 -360 rlineto
            return
          </CharString>
          <CharString index="149">
            -239 477 -1217 268 1217 457 239 vlineto
            return
          </CharString>
          <CharString index="150">
            19 2 19 4 18 3 59 11 59 17 59 25 59 25 52 30 44 37 44 37 36 47 28 57 28 57 13 63 0 69 0 69 -13 63 -28 57 rrcurveto
            -28 57 -36 46 -45 37 -45 37 -52 31 -58 25 -58 25 -59 18 -60 11 -18 3 -19 3 -18 2 rrcurveto
            171 -243 -169 vlineto
            return
          </CharString>
          <CharString index="151">
            -24 -3 -25 -4 -24 -4 -64 -11 -63 -18 -62 -25 -62 -25 -56 -30 -47 -37 -47 -37 -39 -47 -29 -57 -29 -57 -15 -62 0 -69 0 -69 15 -63 29 -57 rrcurveto
            29 -57 39 -46 47 -37 47 -37 55 -31 63 -25 63 -25 63 -17 63 -11 24 -4 25 -3 24 -3 rrcurveto
            -314 243 vlineto
            return
          </CharString>
          <CharString index="152">
            1 hlineto
            40 -5 39 -9 40 -13 40 -13 34 -17 29 -19 29 -19 24 -26 18 -31 18 -31 9 -36 0 -39 0 -49 -13 -43 -27 -36 -27 -36 -35 -28 -45 -19 rrcurveto
            -45 -19 -46 -14 -50 -9 rrcurveto
            return
          </CharString>
          <CharString index="153">
            -6 1 -6 0 -6 1 -44 5 -44 9 -43 13 -43 13 -37 17 -32 19 -32 19 -26 26 -20 31 -20 31 -9 36 0 39 0 39 9 35 20 31 rrcurveto
            20 31 26 25 32 20 32 20 37 16 43 13 rrcurveto
            return
          </CharString>
          <CharString index="154">
            43 13 44 9 44 5 6 1 6 0 6 1 rrcurveto
            return
          </CharString>
          <CharString index="155">
            421 -729 -427 -727 337 0 247 460 251 -460 337 0 -430 727 424 729 -310 0 -272 -501 -269 501 rlineto
            return
          </CharString>
          <CharString index="156">
            219 63 111 126 126 63 -111 -219 -221 -63 -110 -126 vhcurveto
            -126 -63 110 221 hvcurveto
            return
          </CharString>
          <CharString index="157">
            -40 21 -45 11 -50 0 -81 0 -63 -23 -45 -45 rrcurveto
            -71 52 rlineto
            return
          </CharString>
          <CharString index="158">
            -55 27 -62 14 -68 0 -131 0 -107 -51 -83 -101 -83 -101 -41 -138 0 -173 0 -176 41 -137 82 -101 82 -101 99 -51 113 0 81 0 71 15 61 30 rrcurveto
            41 23 69 -12 rlineto
            return
          </CharString>
          <CharString index="159">
            41 -25 42 -13 42 0 8 0 9 1 8 1 42 0 45 11 50 21 42 18 36 26 31 35 rrcurveto
            -169 172 rlineto
            -8 -11 -13 -10 -17 -8 -14 -7 -13 -4 -14 -1 rrcurveto
            601 vlineto
            13 -2 13 -3 13 -6 17 -8 13 -11 8 -11 rrcurveto
            return
          </CharString>
          <CharString index="160">
            -239 60 rlineto
            -14 -35 -19 -25 -26 -16 -26 -16 -26 -9 -28 0 -38 0 -31 12 -25 23 -25 23 -12 29 0 34 0 34 14 29 26 25 26 25 31 12 34 0 rrcurveto
            93 0 2 237 -80 0 rlineto
            -28 0 -24 12 -21 22 rrcurveto
            return
          </CharString>
          <CharString index="161">
            -21 22 -10 24 0 27 0 36 11 28 20 19 20 19 25 10 31 0 22 0 20 -6 17 -12 17 -12 11 -15 7 -17 rrcurveto
            222 65 rlineto
            -54 141 -104 70 -154 0 -44 0 -43 -5 -38 -11 -38 -11 -35 -18 -32 -22 -32 -22 -26 -31 -18 -39 -18 -39 -10 -45 0 -52 0 -86 37 -69 72 -52 rrcurveto
            -24 -16 -21 -16 -18 -16 -18 -16 -18 -19 -18 -24 -18 -24 -14 -27 -10 -32 rrcurveto
            return
          </CharString>
          <CharString index="162">
            -10 -32 -6 -33 0 -38 0 -46 10 -43 19 -42 19 -42 26 -37 33 -31 33 -31 40 -25 47 -18 47 -18 50 -10 53 0 56 0 53 9 47 17 rrcurveto
            47 17 43 29 40 40 rrcurveto
            40 40 31 51 22 60 rrcurveto
            return
          </CharString>
          <CharString index="163">
            536 vlineto
            0 53 4 47 7 40 7 40 9 31 12 24 12 24 14 19 18 15 18 15 18 10 18 5 18 5 21 3 23 0 23 0 20 -3 17 -5 rrcurveto
            17 -5 17 -10 16 -14 16 -14 12 -20 10 -24 10 -24 8 -32 6 -39 6 -39 2 -47 0 -54 rrcurveto
            0 -108 0 -825 258 0 0 819 0 245 rlineto
            0 68 -9 62 -19 57 -19 57 -26 45 -31 35 rrcurveto
            return
          </CharString>
          <CharString index="164">
            -664 vlineto
            0 -67 19 -64 37 -62 37 -62 47 -49 60 -37 60 -37 62 -19 63 0 55 0 46 7 38 13 38 13 36 27 35 39 rrcurveto
            -169 172 rlineto
            -8 -11 -13 -10 -17 -8 -17 -8 -18 -5 -17 0 -33 0 -28 10 -22 21 -22 20 -11 27 0 33 rrcurveto
            0 57 1 664 rlineto
            return
          </CharString>
          <CharString index="165">
            -258 -538 hlineto
            0 -224 24 -139 50 -55 72 -78 72 -47 70 -16 46 -10 44 -6 43 0 43 0 42 6 40 10 45 11 47 19 47 30 43 26 40 40 36 56 rrcurveto
            31 47 22 60 15 71 16 78 8 60 0 43 0 97 -8 85 -16 71 -15 67 -22 60 -30 53 -30 53 -40 41 -49 30 -49 30 -57 16 -64 0 rrcurveto
            -93 -234 rlineto
            26 0 25 -6 24 -12 24 -12 22 -17 21 -25 21 -25 17 -34 13 -44 13 -46 7 -58 0 -70 0 -80 -4 -46 -9 -13 -9 -40 -10 -32 -14 -24 rrcurveto
            -14 -24 -16 -19 -18 -15 -18 -15 -17 -10 -17 -5 -8 -2 -17 -3 -27 -3 -5 0 -4 -1 -5 0 -24 0 -23 7 -23 13 -22 14 -19 25 -15 36 rrcurveto
            -13 32 -9 32 -6 32 -8 40 -4 47 0 53 rrcurveto
            return
          </CharString>
          <CharString index="166">
            219 74 110 148 148 74 -110 -219 -221 -74 -110 -148 -148 -74 110 221 vhcurveto
            return
          </CharString>
          <CharString index="167">
            0 -176 42 -138 82 -101 82 -101 116 -50 151 0 150 0 116 51 82 102 82 102 41 137 0 174 0 174 -41 137 -82 101 -82 101 -116 50 -150 0 rrcurveto
            -150 0 -116 -51 -83 -101 -83 -101 -41 -137 0 -173 rrcurveto
            return
          </CharString>
          <CharString index="168">
            213 112 rlineto
            -39 70 -55 56 -73 42 -73 42 -76 22 -77 0 -145 0 -120 -53 -94 -105 -94 -105 -47 -137 0 -168 0 -170 46 -136 94 -102 94 -102 127 -51 159 0 rrcurveto
            41 0 40 7 39 13 39 13 34 18 31 23 31 23 28 24 24 27 24 27 21 28 18 30 rrcurveto
            -214 111 rlineto
            -6 -13 -8 -14 -8 -13 -8 -13 -8 -12 -10 -11 -10 -11 -14 -8 -18 -7 -18 -7 -23 -3 -25 0 -73 0 -61 30 -50 61 -50 61 -24 80 0 97 rrcurveto
            0 98 24 80 46 64 46 64 56 32 66 0 77 0 60 -38 43 -76 rrcurveto
            return
          </CharString>
          <CharString index="169">
            0 -53 -3 -47 -8 -40 -6 -32 -10 -32 -13 -32 -15 -36 -19 -25 -22 -14 -23 -13 -23 -7 -24 0 -5 0 -4 1 -5 0 -27 3 -17 3 -8 2 rrcurveto
            -17 5 -17 10 -18 15 -18 15 -15 19 -14 24 -14 24 -11 32 -9 40 -9 13 -4 46 0 80 0 70 7 58 13 46 13 44 17 34 21 25 rrcurveto
            21 25 23 17 24 12 24 12 24 6 26 0 rrcurveto
            -93 234 rlineto
            -64 0 -57 -16 -49 -30 -49 -30 -40 -41 -30 -53 -30 -53 -22 -60 -15 -67 -16 -71 -8 -85 0 -97 0 -43 8 -60 16 -78 15 -71 22 -60 31 -47 rrcurveto
            36 -56 40 -40 43 -26 47 -30 47 -19 45 -11 40 -10 42 -6 43 0 43 0 44 6 46 10 52 12 54 29 53 46 53 -46 52 -29 54 -12 rrcurveto
            46 -10 44 -6 43 0 43 0 42 6 40 10 48 12 46 20 45 28 45 28 40 41 34 53 31 47 22 60 15 71 16 78 8 60 0 43 rrcurveto
            0 97 -7 85 -16 71 -15 67 -23 60 -30 53 -30 53 -40 41 -49 30 -49 30 -57 16 -64 0 rrcurveto
            -93 -234 rlineto
            26 0 25 -6 24 -12 24 -12 22 -17 21 -25 21 -25 17 -34 13 -44 13 -46 7 -58 0 -70 0 -80 -4 -46 -9 -13 -9 -40 -10 -32 -14 -24 rrcurveto
            -14 -24 -16 -19 -18 -15 -18 -15 -17 -10 -17 -5 -8 -2 -16 -3 -27 -3 -5 0 -4 -1 -5 0 -24 0 -24 7 -23 13 -22 14 -18 25 -15 36 rrcurveto
            -13 32 -10 32 -6 32 -8 40 -4 47 0 53 rrcurveto
            264 -258 vlineto
            return
          </CharString>
          <CharString index="170">
            0 -45 16 -39 32 -32 32 -32 39 -16 45 0 45 0 39 16 32 32 32 32 16 39 0 45 0 45 -16 39 -32 32 -32 32 -39 16 -45 0 rrcurveto
            -45 0 -39 -16 -32 -32 rrcurveto
            -32 -32 -16 -39 0 -45 rrcurveto
            return
          </CharString>
          <CharString index="171">
            0 -176 42 -138 82 -101 58 -71 75 -46 92 -21 rrcurveto
            -380 243 379 vlineto
            94 21 76 47 59 73 82 102 41 137 0 174 0 174 -41 137 -82 101 -59 72 -76 47 -94 20 rrcurveto
            366 -243 -367 vlineto
            -92 -21 -75 -47 -58 -71 -83 -101 -41 -137 0 -173 rrcurveto
            return
          </CharString>
          <CharString index="172">
            -584 vlineto
            -65 49 -32 98 0 146 0 145 32 97 65 49 rrcurveto
            return
          </CharString>
          <CharString index="173">
            69 -47 35 -99 0 -150 0 -151 -35 -99 -69 -48 rrcurveto
            return
          </CharString>
          <CharString index="174">
            0 -45 16 -38 32 -32 32 -32 39 -17 45 0 45 0 39 16 32 32 32 32 16 39 0 45 0 45 -16 39 -32 32 -32 32 -39 16 -45 0 rrcurveto
            -45 0 -39 -16 -32 -32 rrcurveto
            -32 -32 -16 -39 0 -45 rrcurveto
            return
          </CharString>
          <CharString index="175">
            130 hlineto
            184 92 -66 -131 -131 -92 -66 -184 hvcurveto
            -130 hlineto
            return
          </CharString>
          <CharString index="176">
            462 -751 -254 -445 rlineto
            -21 -21 -27 -10 -35 0 -17 0 -18 5 -17 8 -17 8 -13 10 -8 11 rrcurveto
            -169 -172 rlineto
            35 -39 35 -27 38 -13 38 -13 47 -7 55 0 63 0 61 19 60 37 60 37 49 49 37 62 rrcurveto
            286 501 452 751 -278 0 -310 -537 -310 537 rlineto
            return
          </CharString>
          <CharString index="177">
            -1456 260 vlineto
            573 940 0 -940 269 0 0 1456 -265 0 -569 -973 0 973 rlineto
            return
          </CharString>
          <CharString index="178">
            -259 100 rlineto
            -75 -134 -83 -67 -90 0 -61 0 -53 15 -46 29 -46 29 -37 41 -27 51 -27 51 -20 58 -14 64 -14 64 -7 69 0 74 0 55 4 52 7 47 rrcurveto
            7 47 12 45 17 44 17 44 21 37 26 31 26 31 35 25 41 18 41 18 47 9 53 0 43 0 43 -16 45 -31 45 -31 35 -37 27 -44 rrcurveto
            255 89 rlineto
            -38 86 -62 73 -86 60 -86 60 -103 31 -118 0 -91 0 -81 -14 -73 -27 -73 -27 -61 -37 -48 -46 -48 -46 -40 -56 -32 -64 -32 -64 -23 -68 -14 -70 rrcurveto
            -14 -70 -7 -75 0 -79 0 -83 7 -77 13 -74 13 -74 23 -72 32 -68 32 -68 39 -58 47 -50 47 -50 61 -40 73 -29 73 -29 83 -15 92 0 rrcurveto
            232 0 169 114 106 229 rrcurveto
            return
          </CharString>
          <CharString index="179">
            106 -229 169 -114 232 0 92 0 83 15 73 29 73 29 61 40 47 50 47 50 39 58 32 68 32 68 23 72 13 74 13 74 7 77 0 83 rrcurveto
            0 79 -7 75 -14 70 -14 70 -23 68 -32 64 -32 64 -40 56 -48 46 -48 46 -61 37 -73 27 -73 27 -81 14 -91 0 -118 0 -103 -31 -86 -60 rrcurveto
            -86 -60 -62 -73 -38 -86 rrcurveto
            255 -89 rlineto
            27 44 35 37 45 31 45 31 43 16 43 0 53 0 47 -9 41 -18 41 -18 35 -25 26 -31 26 -31 21 -37 17 -44 17 -44 12 -45 7 -47 rrcurveto
            7 -47 4 -52 0 -55 0 -74 -7 -69 -14 -64 -14 -64 -20 -58 -27 -51 -27 -51 -37 -41 -46 -29 -46 -29 -53 -15 -61 0 -90 0 -83 67 -75 134 rrcurveto
            return
          </CharString>
          <CharString index="180">
            -1074 258 vlineto
            10 835 627 0 0 239 rlineto
            return
          </CharString>
          <CharString index="181">
            4 59 21 51 37 43 37 43 48 21 59 0 60 0 49 -22 37 -42 37 -42 20 -51 5 -60 rrcurveto
            return
          </CharString>
          <CharString index="182">
            -23 0 -22 4 -21 7 -21 7 -23 11 -24 18 -24 18 -19 28 -15 38 -15 38 -8 45 -1 54 rrcurveto
            664 68 hlineto
            0 107 -19 96 -39 85 -39 85 -54 68 -70 48 -70 48 -79 24 -88 0 -134 0 -113 -53 -93 -107 -93 -107 -47 -134 0 -160 0 -80 12 -75 26 -71 rrcurveto
            26 -71 36 -60 44 -49 44 -49 52 -39 60 -29 60 -29 64 -14 66 0 71 0 70 18 72 35 72 35 56 48 41 62 rrcurveto
            -228 98 rlineto
            -36 -44 -51 -22 -67 0 rrcurveto
            return
          </CharString>
          <CharString index="183">
            -1077 209 vlineto
            463 696 0 -696 217 0 0 1077 -214 0 -459 -720 0 720 rlineto
            return
          </CharString>
          <CharString index="184">
            -4 -1074 268 0 0 426 362 0 0 -426 269 0 4 1074 -269 0 -4 -409 -362 0 4 409 rlineto
            return
          </CharString>
          <CharString index="185">
            0 58 0 1044 -259 0 0 -536 rlineto
            0 -53 -4 -46 -9 -40 -9 -40 -10 -32 -14 -24 -14 -24 -16 -19 -18 -15 -18 -15 -17 -10 -17 -5 -17 -5 -17 -3 -18 0 -18 0 -16 3 -16 5 rrcurveto
            -16 5 -16 9 -16 15 -16 15 -14 18 -12 24 -12 24 -8 32 -8 40 -8 40 -4 47 0 53 rrcurveto
            537 -258 -538 vlineto
            0 -185 29 -140 57 -96 57 -96 78 -47 99 0 66 0 62 19 58 36 58 36 43 45 30 54 rrcurveto
            -220 vlineto
            0 -53 -19 -43 -37 -31 -37 -31 -47 -16 -56 0 -53 0 -44 11 -36 22 -36 22 -23 30 -13 36 rrcurveto
            -204 -112 rlineto
            31 -67 52 -57 73 -47 73 -47 87 -23 99 0 53 0 54 13 54 25 54 25 48 34 42 40 42 40 34 47 27 53 27 53 13 53 0 53 rrcurveto
            return
          </CharString>
          <CharString index="186">
            161 hlineto
            141 70 -47 -95 hvcurveto
            0 -44 -16 -37 -32 -29 -32 -29 -55 -14 -76 0 rrcurveto
            -161 hlineto
            return
          </CharString>
          <CharString index="187">
            0 -43 14 -37 29 -32 29 -32 35 -16 40 0 40 0 35 16 29 32 29 32 14 37 0 43 0 43 -14 37 -29 32 -29 32 -35 16 -40 0 rrcurveto
            -40 0 -35 -16 -29 -32 rrcurveto
            -29 -32 -14 -37 0 -43 rrcurveto
            return
          </CharString>
          <CharString index="188">
            0 -30 6 -27 14 -23 31 -56 49 -28 64 0 30 0 27 6 23 14 56 31 28 49 0 64 0 30 -7 27 -14 23 -31 56 -48 28 -64 0 rrcurveto
            -30 0 -27 -7 -23 -14 -56 -31 -28 -48 0 -64 rrcurveto
            return
          </CharString>
          <CharString index="189">
            0 -30 7 -27 14 -23 31 -56 48 -28 64 0 30 0 27 6 23 14 56 31 28 49 0 64 0 30 -6 27 -14 23 -31 56 -49 28 -64 0 rrcurveto
            -30 0 -27 -7 -23 -14 rrcurveto
            -56 -31 -28 -48 0 -64 rrcurveto
            return
          </CharString>
          <CharString index="190">
            -1458 268 625 486 -625 269 1458 -269 -593 -486 593 vlineto
            return
          </CharString>
          <CharString index="191">
            0 -30 6 -27 14 -23 31 -56 49 -28 64 0 30 0 27 6 23 14 56 31 28 49 0 64 0 30 -7 27 -14 23 -31 56 -48 28 -64 0 rrcurveto
            -30 0 -27 -7 -23 -14 rrcurveto
            -56 -31 -28 -48 0 -64 rrcurveto
            return
          </CharString>
          <CharString index="192">
            605 vlineto
            0 68 22 61 44 53 45 55 47 27 49 0 22 0 21 -13 19 -26 46 -63 23 -87 0 -112 rrcurveto
            -568 259 572 vlineto
            0 102 -11 91 -20 78 -48 174 -90 86 -131 0 -144 0 -98 -50 -55 -100 rrcurveto
            503 -258 -1456 vlineto
            return
          </CharString>
          <CharString index="193">
            -1458 1035 240 -767 1218 vlineto
            return
          </CharString>
          <CharString index="194">
            1175 -259 -1179 vlineto
            0 -83 14 -65 29 -45 48 -75 103 -38 157 0 rrcurveto
            224 vlineto
            -62 -30 29 57 hvcurveto
            return
          </CharString>
          <CharString index="195">
            262 988 hlineto
            314 -990 270 0 318 1002 0 -1000 262 0 0 1458 -358 0 -359 -1034 -349 1034 -360 0 rlineto
            return
          </CharString>
          <CharString index="196">
            268 974 hlineto
            570 -974 265 0 0 1458 -269 0 0 -941 -574 941 -260 0 rlineto
            return
          </CharString>
          <CharString index="197">
            605 vlineto
            0 68 22 61 44 53 45 55 47 27 49 0 22 0 21 -13 19 -26 46 -63 23 -87 0 -112 rrcurveto
            -568 259 572 vlineto
            0 102 -11 91 -20 78 -48 174 -90 86 -131 0 -137 0 -98 -40 -62 -81 rrcurveto
            return
          </CharString>
          <CharString index="198">
            92 -258 -1074 vlineto
            return
          </CharString>
          <CharString index="199">
            394 98 vlineto
            26 0 24 -1 22 -1 156 -11 77 -55 0 -98 0 -14 -1 -13 -1 -12 -15 -126 -101 -63 -187 0 rrcurveto
            return
          </CharString>
          <CharString index="200">
            305 0 -446 633 rlineto
            59 15 51 23 45 30 133 83 66 118 0 150 0 86 -25 73 -49 62 -98 123 -170 62 -242 0 rrcurveto
            -98 0 -269 0 0 -1458 269 0 0 580 84 0 rlineto
            return
          </CharString>
          <CharString index="201">
            96 201 rlineto
            -12 11 -15 10 -18 11 rrcurveto
            return
          </CharString>
          <CharString index="202">
            -70 41 -66 21 -63 0 -74 0 -69 -48 -66 -96 rrcurveto
            return
          </CharString>
          <CharString index="203">
            115 -258 -1074 258 615 vlineto
            0 44 16 46 31 49 rrcurveto
            return
          </CharString>
          <CharString index="204">
            51 77 58 38 64 0 19 0 46 -20 72 -41 rrcurveto
            return
          </CharString>
          <CharString index="205">
            0 -30 7 -27 14 -23 31 -56 48 -28 64 0 30 0 27 6 23 14 56 31 28 49 0 64 0 30 -6 27 -14 23 -31 56 -49 28 -64 0 rrcurveto
            -30 0 -26 -7 -23 -14 rrcurveto
            -56 -31 -29 -48 0 -64 rrcurveto
            return
          </CharString>
          <CharString index="206">
            -566 vlineto
            0 -74 11 -58 22 -42 46 -89 112 -45 178 0 rrcurveto
            39 218 -39 hlineto
            -74 -36 31 63 hvcurveto
            562 153 229 -153 250 -259 -250 -141 -229 vlineto
            return
          </CharString>
          <CharString index="207">
            -240 478 -1218 268 1218 457 240 vlineto
            return
          </CharString>
          <CharString index="208">
            -70 52 -91 115 86 73 83 78 vhcurveto
            0 101 -61 52 -55 13 -1 3 -1 4 0 4 0 34 35 72 10 16 rrcurveto
            -74 43 rlineto
            -46 -36 -133 -142 0 -164 rrcurveto
            return
          </CharString>
          <CharString index="209">
            0 -164 133 -142 46 -36 rrcurveto
            74 43 rlineto
            -10 16 -35 72 0 34 0 4 1 4 1 3 55 13 61 52 0 101 rrcurveto
            78 -73 83 -86 -115 -52 -91 -70 vhcurveto
            return
          </CharString>
          <CharString index="210">
            0 16 3 16 5 15 16 41 26 21 36 0 12 0 12 -3 11 -5 36 -19 17 -34 0 -48 0 -10 -1 -9 -1 -8 -8 -49 -28 -24 -48 0 rrcurveto
            -8 0 -7 1 -7 1 -44 12 -22 33 0 53 rrcurveto
            return
          </CharString>
          <CharString index="211">
            0 -70 19 -61 40 -53 60 -82 81 -41 103 0 67 0 61 20 55 41 81 60 39 82 0 104 0 71 -20 64 -41 56 -62 82 -80 41 -100 0 rrcurveto
            -67 0 -60 -21 -55 -41 -81 -63 -40 -84 0 -105 rrcurveto
            return
          </CharString>
          <CharString index="212">
            0 16 3 16 5 15 16 41 26 21 36 0 12 0 11 -3 11 -5 36 -19 18 -34 0 -48 0 -10 -1 -8 -1 -8 -8 -49 -28 -25 -48 0 rrcurveto
            -8 0 -8 1 -7 1 -44 12 -21 33 0 53 rrcurveto
            return
          </CharString>
          <CharString index="213">
            0 -68 20 -61 40 -55 60 -82 82 -41 102 0 68 0 61 20 53 41 82 60 41 82 0 104 0 71 -20 64 -41 56 -62 82 -81 41 -101 0 rrcurveto
            -68 0 -62 -21 -53 -41 -81 -63 -40 -84 0 -105 rrcurveto
            return
          </CharString>
          <CharString index="214">
            662 1220 -201 2 -672 -1220 rlineto
            return
          </CharString>
          <CharString index="215">
            0 -70 19 -61 40 -53 60 -82 82 -41 102 0 67 0 61 20 55 41 81 60 40 82 0 104 0 71 -21 64 -41 56 -62 82 -80 41 -100 0 rrcurveto
            -67 0 -60 -21 -55 -41 -81 -63 -40 -84 0 -105 rrcurveto
            return
          </CharString>
          <CharString index="216">
            40 951 rlineto
            0 23 -16 21 -32 19 -32 19 -32 10 -29 0 -29 0 -30 -10 -32 -19 -32 -19 -16 -21 0 -25 rrcurveto
            return
          </CharString>
          <CharString index="217">
            41 -949 rlineto
            0 -15 11 -14 24 -12 24 -12 22 -6 19 0 18 0 21 6 24 12 rrcurveto
            24 12 12 14 0 15 rrcurveto
            return
          </CharString>
          <CharString index="218">
            0 -45 17 -38 32 -32 32 -32 38 -17 45 0 45 0 39 16 32 32 32 32 16 39 0 45 0 45 -16 39 -32 32 -32 32 -39 16 -45 0 rrcurveto
            -45 0 -39 -16 -32 -32 rrcurveto
            -32 -32 -16 -39 0 -45 rrcurveto
            return
          </CharString>
          <CharString index="219">
            186 -188 rlineto
            34 35 44 18 53 0 34 0 31 -5 28 -10 28 -10 25 -16 21 -25 21 -25 10 -31 0 -37 0 -32 -7 -30 -12 -27 -12 -27 -16 -24 -19 -20 rrcurveto
            -19 -20 -22 -21 -24 -19 -24 -19 -23 -18 -23 -19 -23 -19 -22 -20 -19 -21 -19 -21 -17 -24 -12 -28 rrcurveto
            return
          </CharString>
          <CharString index="220">
            -12 -28 -6 -30 0 -33 rrcurveto
            -195 268 131 vlineto
            0 25 6 23 13 22 13 22 16 20 20 18 20 18 24 18 24 19 24 19 24 21 24 23 24 23 24 26 20 28 20 28 16 35 13 42 rrcurveto
            13 42 6 46 0 50 0 51 -8 47 -18 44 -18 44 -25 37 -31 31 -31 31 -36 27 -41 22 -41 22 -43 16 -47 11 -47 11 -48 5 -49 0 rrcurveto
            -127 0 -105 -36 -81 -73 rrcurveto
            return
          </CharString>
          <CharString index="221">
            0 25 6 23 13 22 13 22 17 20 20 18 20 18 22 18 24 19 24 19 26 21 24 23 24 23 22 26 20 28 20 28 17 35 13 42 rrcurveto
            13 42 6 46 0 50 0 51 -9 47 -18 44 -18 44 -23 37 -31 31 -31 31 -36 27 -41 22 -41 22 -44 16 -47 11 -47 11 -48 5 -49 0 rrcurveto
            -127 0 -104 -36 -81 -73 -81 -73 -47 -92 -13 -113 rrcurveto
            268 -41 rlineto
            5 53 20 43 34 35 34 35 43 18 53 0 34 0 32 -5 28 -10 rrcurveto
            return
          </CharString>
          <CharString index="222">
            28 -10 24 -16 21 -25 21 -25 10 -31 0 -37 0 -32 -6 -30 -12 -27 -12 -27 -17 -24 -19 -20 -19 -20 -21 -21 -24 -19 -24 -19 -24 -18 -23 -19 rrcurveto
            -23 -19 -22 -20 -19 -21 -19 -21 -16 -24 -12 -28 rrcurveto
            return
          </CharString>
          <CharString index="223">
            -12 -28 -7 -30 0 -33 rrcurveto
            -195 268 vlineto
            return
          </CharString>
          <CharString index="224">
            -241 vlineto
            9 7 14 11 19 15 19 15 14 12 10 7 10 7 15 6 17 7 17 7 18 3 18 0 18 0 21 -8 23 -16 23 -16 22 -17 20 -19 rrcurveto
            20 -19 24 -17 28 -16 rrcurveto
            return
          </CharString>
          <CharString index="225">
            28 -16 26 -8 26 0 19 0 20 4 20 8 20 8 16 8 11 8 11 8 14 10 17 14 17 14 10 9 3 3 rrcurveto
            260 vlineto
            -24 -23 -17 -16 -11 -10 -11 -10 -19 -13 -26 -14 -26 -14 -23 -7 -21 0 -19 0 -20 5 -20 10 -20 10 -18 13 -17 15 -26 22 0 2 -26 22 rrcurveto
            -17 15 -18 13 -19 10 rrcurveto
            return
          </CharString>
          <CharString index="226">
            -19 10 -19 5 -18 0 -15 0 -15 -3 -14 -4 -14 -4 -14 -7 -14 -9 -14 -9 -11 -7 -9 -7 -9 -7 -13 -9 -14 -13 rrcurveto
            -14 -13 -9 -8 -4 -3 rrcurveto
            return
          </CharString>
          <CharString index="227">
            45 0 39 16 32 32 32 32 16 39 0 45 0 45 -16 39 -32 32 -32 32 -39 16 -45 0 -45 0 -39 -16 -32 -32 -32 -32 -16 -39 0 -45 rrcurveto
            0 -45 16 -39 32 -32 32 -32 39 -16 45 0 rrcurveto
            return
          </CharString>
          <CharString index="228">
            -48 -69 -25 -95 0 -119 0 -79 11 -71 20 -61 20 -61 31 -49 42 -36 42 -36 49 -19 57 0 rrcurveto
            1 hlineto
            57 0 49 19 42 36 42 36 31 48 20 62 20 62 11 70 0 79 0 120 -24 94 -46 69 -46 69 -66 35 -87 0 -87 0 -68 -35 -48 -69 rrcurveto
            return
          </CharString>
          <CharString index="229">
            0 87 8 59 15 32 15 32 26 16 38 0 37 0 25 -16 13 -31 13 -31 7 -59 0 -89 0 -45 -2 -38 -3 -31 -3 -31 -6 -26 -8 -21 rrcurveto
            -8 -21 -10 -15 -12 -9 -12 -9 -16 -5 -19 0 -15 0 -12 3 -11 6 -11 6 -10 9 -7 12 -7 12 -6 17 -5 21 -5 21 -3 24 -2 26 rrcurveto
            -2 26 -2 32 0 36 rrcurveto
            return
          </CharString>
          <CharString index="230">
            435 -175 vlineto
            -291 -466 0 -128 292 0 0 -174 174 0 0 174 70 0 0 159 rlineto
            return
          </CharString>
          <CharString index="231">
            15 16 23 8 31 0 30 0 25 -11 19 -21 19 -21 9 -26 0 -31 0 -30 -9 -24 -19 -19 -19 -19 -24 -10 -31 0 -12 0 -11 2 -11 4 rrcurveto
            -11 4 -9 5 -7 6 -7 6 -7 8 -6 8 -6 8 -4 6 -3 7 -3 7 -2 6 -1 5 rrcurveto
            -4 19 -172 -30 4 -20 rlineto
            4 -18 6 -18 9 -18 9 -18 12 -19 15 -19 15 -19 18 -17 20 -15 20 -15 24 -12 29 -10 29 -10 30 -4 32 0 51 0 47 11 41 21 rrcurveto
            41 21 33 31 24 41 24 41 13 45 0 52 0 52 -13 46 -24 41 -24 41 -33 31 -41 21 -41 21 -47 11 -51 0 -19 0 -16 -1 -13 -2 rrcurveto
            19 97 238 0 0 160 -379 0 -65 -386 157 -55 rlineto
            return
          </CharString>
          <CharString index="232">
            -581 -167 289 hlineto
            -303 -601 207 0 rlineto
            return
          </CharString>
          <CharString index="233">
            -33 0 -26 9 -19 19 rrcurveto
            return
          </CharString>
          <CharString index="234">
            -160 440 160 vlineto
            return
          </CharString>
          <CharString index="235">
            19 -69 35 -66 50 -63 rrcurveto
            6 -8 180 0 -22 32 rlineto
            -42 61 -31 64 -22 69 -22 69 -11 67 0 65 0 68 11 68 21 70 21 70 32 67 43 63 rrcurveto
            21 31 -179 0 -6 -8 rlineto
            -89 -114 -44 -141 0 -169 0 -82 10 -75 19 -69 rrcurveto
            return
          </CharString>
          <CharString index="236">
            -30 -41 -15 -44 0 -47 0 -75 25 -60 51 -46 51 -46 67 -23 85 0 39 0 36 6 34 10 34 10 30 15 26 21 26 21 21 27 15 32 rrcurveto
            15 32 7 36 0 40 0 48 -15 45 -29 39 -19 25 -18 19 -21 13 rrcurveto
            3 2 rlineto
            10 8 8 8 8 9 rrcurveto
            18 22 rlineto
            4 5 4 8 4 9 4 9 3 10 3 13 rrcurveto
            return
          </CharString>
          <CharString index="237">
            3 13 1 13 0 14 rrcurveto
            0 63 -23 52 -48 41 rrcurveto
            return
          </CharString>
          <CharString index="238">
            0 -30 -10 -23 -19 -19 -19 -19 -27 -9 -32 0 rrcurveto
            return
          </CharString>
          <CharString index="239">
            117 -258 -1074 258 605 vlineto
            0 66 15 56 30 48 rrcurveto
            return
          </CharString>
          <CharString index="240">
            40 36 19 46 0 55 0 37 -7 33 -14 29 -14 29 -17 23 -24 17 -24 17 -25 12 -28 8 -28 8 -29 3 -32 0 -112 0 -76 -50 -39 -103 rrcurveto
            -8 -21 164 -43 6 16 rlineto
            5 12 8 10 12 9 12 9 14 3 15 0 22 0 18 -7 14 -13 14 -13 7 -20 0 -26 0 -18 -7 -17 -15 -16 -15 -16 -17 -8 -19 0 rrcurveto
            -90 -146 102 hlineto
            25 0 23 -10 19 -18 rrcurveto
            return
          </CharString>
          <CharString index="241">
            19 -18 10 -21 0 -25 0 -25 -8 -20 -18 -17 -18 -17 -23 -8 -29 0 -21 0 -20 6 -19 12 -19 12 -15 20 -11 27 rrcurveto
            -7 16 rlineto
            return
          </CharString>
          <CharString index="242">
            -194 80 752 600 186 -77 rlineto
            return
          </CharString>
          <CharString index="243">
            6 19 rlineto
            8 26 10 20 13 11 13 11 19 6 22 0 23 0 18 -7 14 -14 14 -14 7 -21 0 -29 0 -15 -3 -16 -6 -14 -6 -14 -9 -13 -10 -11 rrcurveto
            -10 -11 -13 -13 -16 -13 -16 -13 -16 -12 -16 -11 -16 -11 -17 -13 -20 -16 -20 -16 -18 -15 -13 -13 -22 -22 -18 -22 -15 -22 -15 -22 -10 -23 -8 -24 rrcurveto
            -8 -24 -5 -23 -3 -22 -3 -22 -1 -26 0 -29 rrcurveto
            -20 524 160 -315 vlineto
            5 6 9 10 12 13 12 13 22 18 33 25 rrcurveto
            70 53 rlineto
            14 10 15 13 16 16 32 32 23 32 13 30 13 30 6 37 0 43 0 36 -5 33 -10 29 -10 29 -14 24 -17 18 -17 18 -20 15 -22 12 rrcurveto
            -22 12 -22 8 -22 4 -22 4 -21 3 -23 0 -55 0 -52 -18 -48 -36 -48 -36 -29 -46 -11 -53 rrcurveto
            -4 -17 rlineto
            return
          </CharString>
          <CharString index="244">
            8 -20 rlineto
            16 -43 21 -36 29 -29 29 -29 31 -21 34 -12 34 -12 37 -7 40 0 38 0 36 7 34 13 34 13 28 18 24 23 24 23 18 26 14 30 rrcurveto
            return
          </CharString>
          <CharString index="245">
            14 30 6 32 0 33 0 27 -3 26 -7 23 -7 23 -11 20 -13 17 -13 17 -12 13 -10 9 -10 9 -8 7 -8 6 rrcurveto
            return
          </CharString>
          <CharString index="246">
            15 16 23 7 31 0 30 0 25 -10 19 -21 19 -21 9 -25 0 -31 0 -30 -9 -25 -19 -19 -19 -19 -24 -10 -31 0 -12 0 -11 2 -11 4 rrcurveto
            -11 4 -9 5 -7 6 -7 6 -7 8 -6 8 -6 8 -4 6 -3 7 -3 7 -2 6 -1 5 rrcurveto
            -4 19 -172 -30 4 -20 rlineto
            4 -18 6 -18 9 -18 9 -18 12 -19 15 -19 15 -19 18 -17 20 -15 20 -15 24 -12 29 -10 29 -10 30 -4 32 0 51 0 47 11 41 21 rrcurveto
            41 21 33 31 24 41 24 41 13 46 0 52 0 52 -13 45 -24 41 -24 41 -33 31 -41 21 -41 21 -47 10 -51 0 -19 0 -16 0 -13 -2 rrcurveto
            19 98 237 0 0 160 -378 0 -65 -387 157 -55 rlineto
            return
          </CharString>
          <CharString index="247">
            0 -24 -8 -20 -16 -18 -16 -18 -21 -10 -25 0 -23 0 -20 9 -17 17 -17 17 -8 22 0 27 0 25 8 22 16 19 16 19 20 9 24 0 rrcurveto
            25 0 22 -10 16 -18 16 -18 8 -23 0 -27 rrcurveto
            return
          </CharString>
          <CharString index="248">
            147 277 -189 0 -142 -277 rlineto
            -2 -5 -7 -13 -13 -24 -13 -24 -10 -20 -7 -16 -7 -16 -8 -22 -7 -29 -7 -29 -4 -28 0 -29 0 -43 11 -41 22 -38 22 -38 30 -30 40 -24 rrcurveto
            40 -24 44 -12 49 0 37 0 36 8 33 14 33 14 28 19 22 23 22 23 18 27 13 30 13 30 6 29 0 31 0 75 -24 62 -48 48 rrcurveto
            -46 47 -59 23 -73 2 rrcurveto
            return
          </CharString>
          <CharString index="249">
            0 20 6 16 12 12 12 12 20 7 27 0 27 0 20 -7 13 -12 13 -12 6 -16 0 -20 0 -23 -7 -16 -13 -11 -13 -11 -20 -5 -25 0 rrcurveto
            -26 0 -20 4 -13 11 -13 11 -6 17 0 23 rrcurveto
            return
          </CharString>
          <CharString index="250">
            -19 19 -10 23 0 30 0 31 10 24 18 19 18 19 27 9 34 0 29 0 25 -10 21 -19 21 -19 11 -25 0 -29 rrcurveto
            return
          </CharString>
          <CharString index="251">
            -48 41 -60 20 -74 0 -75 0 -61 -20 -46 -40 rrcurveto
            return
          </CharString>
          <CharString index="252">
            -46 -40 -23 -52 0 -65 0 -22 3 -21 8 -20 8 -19 10 -17 12 -13 12 -13 10 -10 10 -8 -20 -13 -18 -19 -19 -25 rrcurveto
            return
          </CharString>
          <CharString index="253">
            3 13 1 13 0 14 0 63 -23 52 -48 41 rrcurveto
            return
          </CharString>
          <CharString index="254">
            -300 -1045 -294 1045 -290 0 428 -1456 316 0 418 1456 rlineto
            return
          </CharString>
          <CharString index="255">
            0 -153 -31 -124 -62 -94 -62 -94 -79 -47 -97 0 rrcurveto
            -199 977 199 hlineto
            96 0 80 -43 62 -88 62 -88 31 -111 0 -135 rrcurveto
            return
          </CharString>
          <CharString index="256">
            0 129 -26 118 -50 107 -50 107 -72 85 -94 63 -94 63 -107 32 -121 0 rrcurveto
            -467 -1456 467 hlineto
            119 0 107 33 94 65 94 65 72 91 51 114 51 114 26 128 0 142 rrcurveto
            return
          </CharString>
          <CharString index="257">
            -1059 0 109 327 -441 -441 441 -441 -109 327 1059 0 0 -128 164 0 0 484 -164 0 rlineto
            return
          </CharString>
          <CharString index="258">
            1605 228 -1159 hlineto
            109 327 rlineto
            return
          </CharString>
          <CharString index="259">
            -1605 0 555 -555 -109 327 1159 0 rlineto
            return
          </CharString>
          <CharString index="260">
            1605 0 -555 555 109 -327 -1159 0 rlineto
            return
          </CharString>
          <CharString index="261">
            -412 -1519 -99 342 -555 1 0 -240 339 0 158 -514 317 0 530 1930 rlineto
            return
          </CharString>
          <CharString index="262">
            0 -69 11 -64 21 -60 21 -60 28 -51 35 -42 35 -42 39 -36 46 -30 46 -30 48 -23 49 -14 49 -14 50 -7 50 0 89 0 83 22 80 45 rrcurveto
            80 45 65 64 51 84 51 84 26 94 0 104 0 79 -14 74 -28 70 -28 70 -37 58 -48 49 -48 49 -56 38 -64 28 -64 28 -67 14 -71 0 rrcurveto
            -48 0 -48 -6 -48 -14 -48 -14 -48 -22 -46 -30 -46 -30 -41 -36 -36 -42 -36 -42 -29 -53 -22 -63 -22 -63 -10 -68 0 -74 rrcurveto
            return
          </CharString>
          <CharString index="263">
            -55 27 -62 14 -68 0 -131 0 -107 -51 -83 -101 -83 -101 -41 -138 0 -173 0 -176 41 -137 82 -101 82 -101 99 -51 113 0 81 0 71 15 61 30 rrcurveto
            return
          </CharString>
          <CharString index="264">
            -13 258 534 vlineto
            539 vlineto
            return
          </CharString>
          <CharString index="265">
            219 63 111 126 126 63 -111 -219 -221 -63 -110 -126 -126 -63 110 221 vhcurveto
            return
          </CharString>
          <CharString index="266">
            -207 hlineto
            15 -38 15 -35 16 -31 16 -31 17 -28 18 -23 38 -48 45 -37 53 -25 53 -25 55 -13 57 0 63 0 58 16 53 31 53 31 44 40 36 46 rrcurveto
            18 23 17 27 15 31 15 31 13 29 11 27 rrcurveto
            -195 0 -33 -65 0 2 rlineto
            -22 -34 -25 -25 -27 -15 -27 -15 -31 -7 -36 0 -30 0 -29 8 -28 16 -28 16 -25 26 -20 36 -10 10 -10 19 -11 30 rrcurveto
            return
          </CharString>
          <CharString index="267">
            38 63 48 31 56 0 31 -5 26 -28 18 -50 18 -50 9 -72 0 -96 rrcurveto
            -568 vlineto
            return
          </CharString>
          <CharString index="268">
            0 -30 7 -27 14 -23 31 -56 48 -28 64 0 30 0 27 7 23 14 56 31 28 48 0 64 0 30 -6 27 -14 23 -31 56 -49 28 -64 0 rrcurveto
            -30 0 -27 -7 -23 -14 rrcurveto
            -56 -31 -28 -48 0 -64 rrcurveto
            return
          </CharString>
          <CharString index="269">
            0 -30 6 -27 14 -23 31 -56 49 -28 64 0 30 0 27 7 23 14 56 31 28 48 0 64 0 30 -7 27 -14 23 -31 56 -48 28 -64 0 rrcurveto
            -30 0 -27 -7 -23 -14 rrcurveto
            -56 -31 -28 -48 0 -64 rrcurveto
            return
          </CharString>
          <CharString index="270">
            0 25 6 23 12 23 27 52 43 26 57 0 22 0 22 -5 22 -11 52 -27 26 -44 0 -62 0 -23 -5 -24 -11 -25 -27 -52 -44 -26 -57 0 rrcurveto
            -23 0 -22 5 -22 11 rrcurveto
            -52 27 -26 45 0 62 rrcurveto
            return
          </CharString>
          <CharString index="271">
            0 -71 21 -64 44 -56 64 -81 84 -40 104 0 72 0 65 22 56 42 83 62 42 82 0 104 0 71 -21 63 -44 56 -64 82 -85 41 -104 0 rrcurveto
            -74 0 -63 -21 -55 -42 -83 -63 -42 -83 0 -104 rrcurveto
            return
          </CharString>
          <CharString index="272">
            0 25 7 23 12 23 27 52 43 26 57 0 22 0 22 -5 22 -11 52 -27 25 -44 0 -62 0 -23 -5 -24 -11 -25 -27 -52 -43 -26 -57 0 rrcurveto
            -23 0 -23 5 -22 11 rrcurveto
            -52 27 -26 45 0 62 rrcurveto
            return
          </CharString>
          <CharString index="273">
            0 25 7 23 12 23 27 52 43 26 57 0 22 0 21 -5 22 -11 52 -27 26 -44 0 -62 0 -23 -5 -24 -11 -25 -27 -52 -43 -26 -57 0 rrcurveto
            -23 0 -23 5 -22 11 rrcurveto
            -52 27 -26 45 0 62 rrcurveto
            return
          </CharString>
          <CharString index="274">
            0 -71 22 -64 44 -56 64 -81 84 -40 104 0 72 0 64 22 56 42 83 62 43 82 0 104 0 71 -22 63 -44 56 -64 82 -84 41 -104 0 rrcurveto
            -74 0 -64 -21 -55 -42 -83 -63 -42 -83 0 -104 rrcurveto
            return
          </CharString>
          <CharString index="275">
            0 -71 21 -64 44 -56 64 -81 84 -40 104 0 72 0 65 22 56 42 83 62 42 82 0 104 0 71 -22 63 -44 56 -64 82 -84 41 -104 0 rrcurveto
            -74 0 -63 -21 -55 -42 -83 -63 -42 -83 0 -104 rrcurveto
            return
          </CharString>
          <CharString index="276">
            0 58 10 53 20 47 20 47 27 38 32 28 32 28 35 23 38 15 38 15 38 7 39 0 34 0 36 -7 36 -15 36 -15 34 -21 34 -28 rrcurveto
            34 -28 28 -38 22 -48 22 -48 10 -52 0 -59 0 -53 -10 -48 -20 -44 -20 -44 -26 -38 -32 -28 -32 -28 -34 -22 -38 -16 -38 -16 -38 -7 -38 0 rrcurveto
            -38 0 -38 7 -38 14 -38 14 -34 21 -33 27 -33 27 -26 36 -20 45 -20 45 -11 51 0 57 rrcurveto
            return
          </CharString>
        <CharString name=".notdef">
          290 -29 242 132 161 469 120 154 240 hstemhm
          100 283 94 131 14 161 -148 131 32 138 111 282 hintmask 1111110111000000
          766 621 rmoveto
          0 12 4 11 6 11 6 11 8 10 10 9 10 9 11 9 12 9 12 9 12 10 12 11 12 11 11 13 10 14 10 14 8 17 6 21 rrcurveto
          6 21 4 22 0 24 0 25 -5 24 -9 21 -9 21 -12 19 -15 15 -15 15 -17 13 -20 11 -20 11 -22 8 -23 5 -23 5 -23 3 -24 0 rrcurveto
          -62 0 -52 -18 -40 -36 -40 -36 -22 -45 -6 -55 rrcurveto
          131 -20 rlineto
          2 26 10 21 17 17 17 17 21 9 26 0 17 0 14 -2 14 -5 rrcurveto
          hintmask 1111111011000000
          14 -5 13 -8 10 -12 10 -12 5 -16 0 -18 0 -16 -4 -14 -6 -13 -6 -13 -8 -12 -9 -10 -9 -10 -10 -10 -12 -9 -12 -9 -12 -10 -11 -9 rrcurveto
          -11 -9 -11 -10 -9 -10 -9 -10 -9 -12 -6 -14 rrcurveto
          hintmask 1111110111000000
          -6 -14 -3 -15 0 -16 rrcurveto
          -95 131 vlineto
          hintmask 1111111011000000
          -144 -132 rmoveto
          0 -22 7 -18 16 -16 16 -16 19 -8 22 0 22 0 19 8 16 16 16 16 8 18 0 22 0 22 -8 19 -16 16 -16 16 -19 8 -22 0 rrcurveto
          -22 0 -19 -8 -16 -16 rrcurveto
          -16 -16 -7 -19 0 -22 rrcurveto
          425 329 rmoveto
          -107 callsubr
          -947 hmoveto
          -106 callsubr
          endchar
        </CharString>
        <CharString name=".null">
          -1119 endchar
        </CharString>
        <CharString name="A">
          302 21 -21 382 239 835 -20 hstem
          700 1124 rmoveto
          -99 callsubr
          328 835 rmoveto
          -98 callsubr
          endchar
        </CharString>
        <CharString name="AE">
          470 0 250 340 250 363 253 hstem
          819 265 vstem
          819 596 rmoveto
          -596 654 250 -389 340 389 250 -388 363 388 253 -887 vlineto
          -576 -1456 298 0 233 596 rlineto
          278 690 rmoveto
          -447 -198 vlineto
          endchar
        </CharString>
        <CharString name="Aacute">
          302 0 21 361 239 815 20 72 417 hstem
          608 446 vstem
          700 1124 rmoveto
          -99 callsubr
          328 835 rmoveto
          -98 callsubr
          -652 1533 rmoveto
          -12 callsubr
          endchar
        </CharString>
        <CharString name="Abreve">
          302 0 21 361 239 815 20 60 236 hstem
          793 1768 rmoveto
          -4 callsubr
          -93 -644 rmoveto
          -99 callsubr
          328 835 rmoveto
          -98 callsubr
          endchar
        </CharString>
        <CharString name="Acircumflex">
          173 0 21 361 239 815 20 104 344 hstem
          1104 1560 rmoveto
          -68 callsubr
          -133 -436 rmoveto
          -99 callsubr
          328 835 rmoveto
          -98 callsubr
          endchar
        </CharString>
        <CharString name="Adieresis">
          173 0 21 361 239 815 20 43 328 hstem
          303 328 143 328 vstem
          303 1663 rmoveto
          -20 callsubr
          471 hmoveto
          -20 callsubr
          -74 -539 rmoveto
          -99 callsubr
          328 835 rmoveto
          -98 callsubr
          endchar
        </CharString>
        <CharString name="Agrave">
          302 0 21 361 239 815 20 72 417 hstem
          422 446 vstem
          700 1124 rmoveto
          -99 callsubr
          328 835 rmoveto
          -98 callsubr
          -626 1533 rmoveto
          -67 callsubr
          endchar
        </CharString>
        <CharString name="Alpha">
          302 21 -21 379 246 831 -20 hstem
          726 1048 rmoveto
          21 callsubr
          375 -246 rmoveto
          22 callsubr
          endchar
        </CharString>
        <CharString name="Alphatonos">
          302 0 21 358 246 542 432 -163 20 hstemhm
          177 276 hintmask 11010000
          726 1048 rmoveto
          21 callsubr
          375 -246 rmoveto
          22 callsubr
          hintmask 00101000
          -135 813 rmoveto
          19 callsubr
          endchar
        </CharString>
        <CharString name="Amacron">
          302 0 21 361 239 815 20 230 127 hstem
          334 1813 rmoveto
          -19 callsubr
          -406 -689 rmoveto
          -99 callsubr
          328 835 rmoveto
          -98 callsubr
          endchar
        </CharString>
        <CharString name="Aogonek">
          302 -344 439 -95 21 361 239 815 20 hstemhm
          1040 227 hintmask 10001000
          1398 -217 rmoveto
          -3 callsubr
          hintmask 01110000
          -609 1468 rmoveto
          -99 callsubr
          328 835 rmoveto
          -98 callsubr
          endchar
        </CharString>
        <CharString name="Aring">
          173 0 21 361 239 815 20 16 162 300 162 hstem
          389 173 289 173 vstem
          562 1784 rmoveto
          -18 callsubr
          -173 hmoveto
          -17 callsubr
          311 -660 rmoveto
          -99 callsubr
          328 835 rmoveto
          -98 callsubr
          endchar
        </CharString>
        <CharString name="Atilde">
          173 0 21 361 239 815 20 62 247 -95 247 hstemhm
          381 637 hintmask 00001100
          381 1814 rmoveto
          -24 callsubr
          hintmask 00010100
          -23 callsubr
          hintmask 00001100
          -22 callsubr
          hintmask 11100000
          319 -690 rmoveto
          -99 callsubr
          328 835 rmoveto
          -98 callsubr
          endchar
        </CharString>
        <CharString name="B">
          103 383 638 rmoveto
          -97 callsubr
          976 vmoveto
          -96 callsubr
          -268 578 rmoveto
          -95 callsubr
          endchar
        </CharString>
        <CharString name="Bdotaccent">
          107 1593 328 hstem
          440 328 vstem
          383 638 rmoveto
          -97 callsubr
          976 vmoveto
          -96 callsubr
          -268 578 rmoveto
          -95 callsubr
          -111 301 rmoveto
          -20 callsubr
          endchar
        </CharString>
        <CharString name="Beta">
          107 0 240 399 238 342 237 hstemhm
          119 268 424 264 -176 264 hintmask 11110100
          387 639 rmoveto
          28 callsubr
          979 vmoveto
          29 callsubr
          hintmask 11111000
          30 callsubr
          -268 579 rmoveto
          31 callsubr
          hintmask 11110100
          32 callsubr
          hintmask 11111000
          33 callsubr
          endchar
        </CharString>
        <CharString name="C">
          290 -29 240 1034 240 hstem
          100 283 619 294 vstem
          1002 969 rmoveto
          -94 callsubr
          endchar
        </CharString>
        <CharString name="Cacute">
          191 -29 240 1034 240 43 417 hstemhm
          100 283 195 446 -22 294 hintmask 00101000
          695 1533 rmoveto
          -12 callsubr
          hintmask 11010100
          307 -564 rmoveto
          -94 callsubr
          endchar
        </CharString>
        <CharString name="Ccaron">
          191 -29 240 1034 240 77 344 hstem
          100 283 619 294 vstem
          1121 1906 rmoveto
          -2 callsubr
          165 -593 rmoveto
          -94 callsubr
          endchar
        </CharString>
        <CharString name="Ccedilla">
          101 -474 439 6 240 1034 240 hstem
          110 283 241 227 151 294 vstem
          503 -347 rmoveto
          -11 callsubr
          509 1316 rmoveto
          -94 callsubr
          endchar
        </CharString>
        <CharString name="Ccircumflex">
          191 -29 240 1034 240 77 344 hstem
          100 283 619 294 vstem
          1121 1562 rmoveto
          -68 callsubr
          152 -593 rmoveto
          -94 callsubr
          endchar
        </CharString>
        <CharString name="Cdotaccent">
          191 -29 240 1034 240 57 328 hstem
          100 283 176 328 115 294 vstem
          559 1706 rmoveto
          -20 callsubr
          443 -737 rmoveto
          -94 callsubr
          endchar
        </CharString>
        <CharString name="Chi">
          179 21 -21 1456 -20 hstem
          59 1456 rmoveto
          48 callsubr
          endchar
        </CharString>
        <CharString name="D">
          154 0 240 977 239 hstem
          115 268 530 283 vstem
          913 752 rmoveto
          -93 callsubr
          283 hmoveto
          -92 callsubr
          endchar
        </CharString>
        <CharString name="Dcaron">
          154 0 240 977 239 106 344 hstem
          115 268 530 283 vstem
          1007 1906 rmoveto
          -2 callsubr
          190 -810 rmoveto
          -93 callsubr
          283 hmoveto
          -92 callsubr
          endchar
        </CharString>
        <CharString name="Dcroat">
          361 0 243 369 239 360 245 hstem
          260 268 562 267 vstem
          260 612 rmoveto
          -612 211 vlineto
          225 hlineto
          97 0 89 18 83 38 83 38 69 51 57 65 57 65 45 78 32 89 32 89 17 95 0 101 0 101 -15 95 -32 89 -32 89 -44 78 -56 65 rrcurveto
          -56 65 -71 52 -83 38 -83 38 -91 19 -98 0 rrcurveto
          -436 -605 -125 -239 hlineto
          393 hmoveto
          246 239 -247 360 169 hlineto
          114 0 94 -45 74 -90 74 -90 38 -116 0 -143 0 -143 -37 -116 -74 -90 -74 -90 -94 -45 -115 0 rrcurveto
          -168 hlineto
          endchar
        </CharString>
        <CharString name="Ddotaccent">
          154 0 240 977 239 137 328 hstem
          115 268 69 328 133 283 vstem
          913 752 rmoveto
          -93 callsubr
          283 hmoveto
          -92 callsubr
          -744 1005 rmoveto
          -20 callsubr
          endchar
        </CharString>
        <CharString name="Delta">
          429 0 240 1216 -20 hstem
          108 hmoveto
          35 callsubr
          -134 -1216 rmoveto
          268 792 274 -792 rlineto
          endchar
        </CharString>
        <CharString name="E">
          92 0 240 386 240 350 240 hstem
          115 268 vstem
          115 1456 rmoveto
          -91 callsubr
          endchar
        </CharString>
        <CharString name="Eacute">
          92 0 240 386 240 350 240 72 417 hstem
          115 268 135 446 vstem
          115 1456 rmoveto
          -91 callsubr
          -462 77 rmoveto
          -12 callsubr
          endchar
        </CharString>
        <CharString name="Ebreve">
          92 0 240 386 240 350 240 60 236 hstem
          115 268 vstem
          653 1768 rmoveto
          -4 callsubr
          -538 -312 rmoveto
          -91 callsubr
          endchar
        </CharString>
        <CharString name="Ecaron">
          92 0 240 386 240 350 240 106 344 hstem
          115 268 vstem
          1037 1906 rmoveto
          -2 callsubr
          -638 -106 rmoveto
          -91 callsubr
          endchar
        </CharString>
        <CharString name="Ecircumflex">
          31 0 240 386 240 350 240 81 344 hstem
          115 268 vstem
          1049 1537 rmoveto
          -68 callsubr
          -663 -81 rmoveto
          -91 callsubr
          endchar
        </CharString>
        <CharString name="Edieresis">
          31 0 240 386 240 350 240 63 328 hstemhm
          115 268 -132 328 143 328 hintmask 00010110
          251 1683 rmoveto
          -20 callsubr
          471 hmoveto
          -20 callsubr
          hintmask 11101000
          -607 -227 rmoveto
          -91 callsubr
          endchar
        </CharString>
        <CharString name="Edotaccent">
          92 0 240 386 240 350 240 137 328 hstem
          115 268 117 328 vstem
          500 1757 rmoveto
          -20 callsubr
          -385 -301 rmoveto
          -91 callsubr
          endchar
        </CharString>
        <CharString name="Egrave">
          92 0 240 386 240 350 240 72 417 hstemhm
          115 268 -6 446 hintmask 11101000
          115 1456 rmoveto
          -91 callsubr
          hintmask 00010100
          -391 77 rmoveto
          -67 callsubr
          endchar
        </CharString>
        <CharString name="Emacron">
          92 0 240 386 240 350 240 230 127 hstem
          115 268 vstem
          250 1813 rmoveto
          -19 callsubr
          -907 -357 rmoveto
          -91 callsubr
          endchar
        </CharString>
        <CharString name="Eng">
          225 0 229 1019 235 -28 -20 20 -20 hstemhm
          119 258 584 261 hintmask 11001100
          589 99 rmoveto
          35 -39 36 -27 38 -13 38 -13 46 -7 55 0 63 0 62 19 60 37 60 37 47 49 37 62 37 62 19 65 0 66 rrcurveto
          -3 652 rlineto
          0 69 -10 63 -19 55 -19 57 -24 46 -31 35 -31 35 -35 26 -36 19 -36 19 -36 10 -37 0 -94 0 -89 -17 -83 -35 -43 -18 -88 -46 -131 -74 rrcurveto
          hintmask 10101100
          162 -258 -1455 258 917 vlineto
          0 85 4 46 7 8 60 67 59 49 57 30 rrcurveto
          hintmask 11001100
          60 31 72 15 85 0 23 0 21 -3 17 -5 17 -5 15 -11 16 -14 16 -14 13 -19 10 -24 10 -24 7 -32 6 -39 6 -39 3 -47 0 -54 rrcurveto
          -486 3 -92 vlineto
          0 -32 -11 -27 -22 -21 -22 -21 -28 -10 -33 0 -17 0 -18 5 -17 8 -17 8 -13 10 -8 11 rrcurveto
          endchar
        </CharString>
        <CharString name="Eogonek">
          92 -344 439 -95 240 386 240 350 240 hstemhm
          115 268 360 227 hintmask 10000100
          1101 -217 rmoveto
          -3 callsubr
          hintmask 01111000
          -873 1800 rmoveto
          -91 callsubr
          endchar
        </CharString>
        <CharString name="Epsilon">
          92 0 240 387 239 351 239 hstem
          114 268 vstem
          114 1456 rmoveto
          23 callsubr
          endchar
        </CharString>
        <CharString name="Epsilontonos">
          322 0 240 387 239 301 432 -382 239 hstemhm
          53 276 29 268 hintmask 11010100
          358 1456 rmoveto
          23 callsubr
          hintmask 00101000
          -1105 -264 rmoveto
          19 callsubr
          endchar
        </CharString>
        <CharString name="Eta">
          134 21 -21 625 239 592 -20 hstem
          115 268 485 269 vstem
          115 1456 rmoveto
          24 callsubr
          endchar
        </CharString>
        <CharString name="Etatonos">
          342 0 21 604 239 303 432 -163 20 hstemhm
          37 276 26 268 485 269 hintmask 11010110
          339 1456 rmoveto
          24 callsubr
          hintmask 00101000
          -388 -264 rmoveto
          19 callsubr
          endchar
        </CharString>
        <CharString name="Eth">
          361 0 243 369 239 360 245 hstem
          260 268 562 267 vstem
          260 612 rmoveto
          -612 211 vlineto
          225 hlineto
          394 267 320 407 406 -260 323 -401 hvcurveto
          -436 -605 -125 -239 hlineto
          393 hmoveto
          246 239 -247 360 169 hlineto
          227 167 -197 -287 -288 -167 -196 -227 hvcurveto
          -168 hlineto
          endchar
        </CharString>
        <CharString name="Euro">
          107 164 229 88 166 113 166 127 229 hstem
          258 256 vstem
          261 760 rmoveto
          -2 -4 -1 -12 0 -19 0 -23 1 -26 2 -29 rrcurveto
          -136 -166 151 hlineto
          22 -88 52 -75 84 -62 84 -62 98 -30 111 0 51 0 45 4 39 8 39 8 34 14 29 17 29 17 23 18 19 17 19 17 20 23 22 27 rrcurveto
          -174 133 rlineto
          -22 -24 -21 -17 -21 -11 -21 -11 -18 -6 -16 -2 -16 -2 -25 -1 -35 0 -29 0 -35 8 -42 17 -42 17 -26 21 -10 25 rrcurveto
          262 166 -286 hlineto
          -5 75 rlineto
          0 21 2 13 4 4 rrcurveto
          291 166 -269 hlineto
          5 34 23 30 41 25 41 25 38 13 37 0 84 0 70 -34 55 -69 rrcurveto
          156 133 rlineto
          -55 71 -56 51 -59 31 -59 31 -65 15 -71 0 -103 0 -91 -34 -81 -68 -81 -68 -57 -85 -33 -101 rrcurveto
          -150 -166 hlineto
          endchar
        </CharString>
        <CharString name="F">
          72 115 1456 rmoveto
          -90 callsubr
          endchar
        </CharString>
        <CharString name="Fdotaccent">
          72 1593 328 hstem
          464 328 vstem
          115 1456 rmoveto
          -90 callsubr
          -633 301 rmoveto
          -20 callsubr
          endchar
        </CharString>
        <CharString name="G">
          302 -27 238 356 240 450 240 hstem
          90 283 637 278 vstem
          713 -27 rmoveto
          -89 callsubr
          endchar
        </CharString>
        <CharString name="Gamma">
          72 21 -21 1217 239 hstem
          115 268 vstem
          383 1217 rmoveto
          34 callsubr
          endchar
        </CharString>
        <CharString name="Gbreve">
          302 -27 238 356 240 450 240 19 236 hstem
          90 283 637 278 vstem
          780 1768 rmoveto
          -4 callsubr
          -67 -1795 rmoveto
          -89 callsubr
          endchar
        </CharString>
        <CharString name="Gcircumflex">
          302 -27 238 356 240 450 240 65 344 hstem
          90 283 637 278 vstem
          1121 1562 rmoveto
          -68 callsubr
          -137 -1589 rmoveto
          -89 callsubr
          endchar
        </CharString>
        <CharString name="Gcommaaccent">
          302 -27 238 356 240 450 240 hstem
          90 283 637 278 vstem
          713 -27 rmoveto
          -89 callsubr
          endchar
        </CharString>
        <CharString name="Gdotaccent">
          302 -27 238 356 240 450 240 96 328 hstem
          90 283 175 328 134 278 vstem
          548 1757 rmoveto
          -20 callsubr
          165 -1784 rmoveto
          -89 callsubr
          endchar
        </CharString>
        <CharString name="H">
          134 21 -21 624 240 592 -20 hstem
          115 268 485 270 vstem
          115 1456 rmoveto
          -88 callsubr
          endchar
        </CharString>
        <CharString name="Hbar">
          134 21 -21 624 240 210 240 142 -20 hstem
          115 268 485 270 vstem
          115 1456 rmoveto
          -142 -71 -240 71 -1074 268 624 485 -624 270 1074 71 240 -71 142 vlineto
          -270 -142 -485 142 hlineto
          485 -382 rmoveto
          -210 -485 210 vlineto
          endchar
        </CharString>
        <CharString name="Hcircumflex">
          134 0 21 603 240 572 20 106 344 hstem
          115 268 485 270 vstem
          1025 1562 rmoveto
          -68 callsubr
          -639 -106 rmoveto
          -88 callsubr
          endchar
        </CharString>
        <CharString name="I">
          -564 21 -21 1456 -20 hstem
          143 268 vstem
          143 hmoveto
          -87 callsubr
          endchar
        </CharString>
        <CharString name="IJ">
          588 -35 254 -219 21 1435 -20 hstemhm
          143 268 147 241 517 268 hintmask 10111100
          558 586 rmoveto
          0 -71 6 -67 13 -62 13 -62 19 -56 27 -52 27 -52 33 -45 40 -37 40 -37 49 -28 57 -21 57 -21 63 -10 70 0 111 0 94 27 78 53 rrcurveto
          78 53 58 73 37 92 37 92 19 108 0 123 rrcurveto
          870 -268 -870 vlineto
          0 -49 -4 -45 -8 -41 -8 -41 -12 -38 -17 -36 -17 -36 -26 -29 -33 -21 -33 -21 -40 -10 -46 0 -49 0 -43 10 -37 21 -37 21 -28 29 -20 36 rrcurveto
          -20 36 -16 40 -9 41 -9 41 -5 45 0 47 rrcurveto
          hintmask 01110000
          -656 -586 rmoveto
          -87 callsubr
          endchar
        </CharString>
        <CharString name="Iacute">
          -452 0 21 1415 20 72 417 hstemhm
          143 268 -267 446 hintmask 11010000
          143 hmoveto
          -87 callsubr
          hintmask 00101000
          118 77 rmoveto
          -12 callsubr
          endchar
        </CharString>
        <CharString name="Ibreve">
          -564 0 21 1415 20 60 236 hstem
          143 268 vstem
          340 1768 rmoveto
          -4 callsubr
          -197 -1768 rmoveto
          -87 callsubr
          endchar
        </CharString>
        <CharString name="Icircumflex">
          -452 0 21 1415 20 81 344 hstem
          143 268 vstem
          674 1537 rmoveto
          -68 callsubr
          -260 -1537 rmoveto
          -87 callsubr
          endchar
        </CharString>
        <CharString name="Idieresis">
          -452 0 21 1415 20 78 328 hstemhm
          -123 328 -62 268 -63 328 hintmask 00110100
          -123 1698 rmoveto
          -20 callsubr
          471 hmoveto
          -20 callsubr
          hintmask 11001000
          -205 -1698 rmoveto
          -87 callsubr
          endchar
        </CharString>
        <CharString name="Idotaccent">
          -564 0 21 1415 20 137 328 hstemhm
          114 328 -299 268 hintmask 00110000
          114 1757 rmoveto
          -20 callsubr
          hintmask 11001000
          29 -1757 rmoveto
          -87 callsubr
          endchar
        </CharString>
        <CharString name="Igrave">
          -452 0 21 1415 20 72 417 hstemhm
          -40 446 -263 268 hintmask 11001000
          143 hmoveto
          -87 callsubr
          hintmask 00110000
          146 77 rmoveto
          -67 callsubr
          endchar
        </CharString>
        <CharString name="Imacron">
          -564 0 21 1415 20 230 127 hstem
          143 268 vstem
          -106 1813 rmoveto
          -19 callsubr
          -523 -1813 rmoveto
          -87 callsubr
          endchar
        </CharString>
        <CharString name="Iogonek">
          -564 -344 439 -95 21 1415 20 hstemhm
          137 227 -221 268 hintmask 10010000
          495 -217 rmoveto
          -3 callsubr
          hintmask 01101000
          -239 344 rmoveto
          -87 callsubr
          endchar
        </CharString>
        <CharString name="Iota">
          -564 21 -21 1456 -20 hstem
          143 269 vstem
          143 hmoveto
          25 callsubr
          endchar
        </CharString>
        <CharString name="Iotadieresis">
          -564 0 21 1415 20 137 328 hstemhm
          -122 328 -63 269 -63 328 hintmask 11001000
          143 hmoveto
          25 callsubr
          hintmask 00110100
          -265 301 rmoveto
          -20 callsubr
          471 hmoveto
          -20 callsubr
          endchar
        </CharString>
        <CharString name="Iotatonos">
          -407 0 21 1146 432 -163 20 hstemhm
          37 276 30 269 hintmask 10101000
          343 hmoveto
          25 callsubr
          hintmask 01010000
          -124 -264 rmoveto
          19 callsubr
          endchar
        </CharString>
        <CharString name="Itilde">
          -564 0 21 1415 20 58 247 -95 247 hstemhm
          -46 637 -448 268 hintmask 00011000
          -46 1810 rmoveto
          -1 callsubr
          hintmask 00101000
          0 callsubr
          hintmask 00011000
          1 callsubr
          hintmask 11000100
          189 -1810 rmoveto
          -87 callsubr
          endchar
        </CharString>
        <CharString name="J">
          124 -35 240 1251 -20 hstem
          102 268 490 268 vstem
          102 586 rmoveto
          -86 callsubr
          endchar
        </CharString>
        <CharString name="Jcircumflex">
          132 -35 240 1231 20 102 344 hstem
          102 268 490 268 vstem
          1391 1558 rmoveto
          -68 callsubr
          -1018 -972 rmoveto
          -86 callsubr
          endchar
        </CharString>
        <CharString name="K">
          214 21 -21 1456 -20 hstem
          115 268 vstem
          115 1456 rmoveto
          -85 callsubr
          endchar
        </CharString>
        <CharString name="Kappa">
          214 21 -21 1456 -20 hstem
          115 268 vstem
          115 1456 rmoveto
          -85 callsubr
          endchar
        </CharString>
        <CharString name="Kcommaaccent">
          214 0 21 1415 20 hstem
          115 268 vstem
          115 1456 rmoveto
          -85 callsubr
          endchar
        </CharString>
        <CharString name="L">
          51 0 240 1216 -20 hstem
          115 268 vstem
          115 1456 rmoveto
          -84 callsubr
          endchar
        </CharString>
        <CharString name="Lacute">
          101 0 240 1196 20 72 417 hstemhm
          115 268 -1 446 hintmask 00101000
          499 1533 rmoveto
          -12 callsubr
          hintmask 11010000
          -384 -77 rmoveto
          -84 callsubr
          endchar
        </CharString>
        <CharString name="Lambda">
          183 21 -21 1456 -20 hstem
          954 hmoveto
          278 0 -418 1456 -316 0 -428 -1456 290 0 294 1045 rlineto
          endchar
        </CharString>
        <CharString name="Lcaron">
          101 0 240 1196 20 hstem
          115 268 vstem
          723 1385 rmoveto
          5 callsubr
          -608 71 rmoveto
          -84 callsubr
          endchar
        </CharString>
        <CharString name="Lcommaaccent">
          101 -365 439 -74 240 1196 20 hstemhm
          115 268 150 227 hintmask 10001000
          402 -238 rmoveto
          -11 callsubr
          hintmask 01110000
          -287 1694 rmoveto
          -84 callsubr
          endchar
        </CharString>
        <CharString name="Ldot">
          101 0 240 362 328 506 20 hstem
          115 268 217 328 vstem
          600 766 rmoveto
          -100 callsubr
          -485 690 rmoveto
          -84 callsubr
          endchar
        </CharString>
        <CharString name="Lslash">
          101 0 240 1216 -20 hstem
          115 268 vstem
          400 vmoveto
          115 100 0 -500 1034 0 0 240 -766 0 0 493 257 223 1 234 -258 -225 0 491 -268 0 0 -726 -115 -100 rlineto
          endchar
        </CharString>
        <CharString name="M">
          536 21 -21 1456 -20 hstem
          115 268 889 268 vstem
          115 hmoveto
          -83 callsubr
          endchar
        </CharString>
        <CharString name="Mdotaccent">
          429 0 21 1415 20 137 328 hstem
          115 268 229 328 332 268 vstem
          115 hmoveto
          -83 callsubr
          497 301 rmoveto
          -20 callsubr
          endchar
        </CharString>
        <CharString name="Mu">
          429 21 -21 1456 -20 hstem
          66 262 901 262 vstem
          66 hmoveto
          36 callsubr
          endchar
        </CharString>
        <CharString name="N">
          212 21 -21 1456 -20 hstem
          115 268 565 268 vstem
          115 hmoveto
          -82 callsubr
          endchar
        </CharString>
        <CharString name="Nacute">
          224 0 21 1415 20 72 417 hstem
          115 268 90 446 29 268 vstem
          590 1533 rmoveto
          -12 callsubr
          -475 -1533 rmoveto
          -82 callsubr
          endchar
        </CharString>
        <CharString name="Ncaron">
          224 0 21 1415 20 106 344 hstem
          115 268 565 268 vstem
          1121 1906 rmoveto
          -2 callsubr
          -722 -1562 rmoveto
          -82 callsubr
          endchar
        </CharString>
        <CharString name="Ncommaaccent">
          224 0 21 1415 20 hstem
          115 268 565 268 vstem
          115 hmoveto
          -82 callsubr
          endchar
        </CharString>
        <CharString name="Ntilde">
          173 0 21 1415 20 41 247 -95 247 hstemhm
          115 268 -62 637 -10 268 hintmask 00010100
          321 1793 rmoveto
          -24 callsubr
          hintmask 00100100
          -23 callsubr
          hintmask 00010100
          -22 callsubr
          hintmask 11001010
          -206 -1793 rmoveto
          -82 callsubr
          endchar
        </CharString>
        <CharString name="Nu">
          224 21 -21 1456 -20 hstem
          119 268 565 269 vstem
          119 hmoveto
          268 973 hlineto
          569 -973 265 0 0 1456 -269 0 0 -940 -573 940 -260 0 rlineto
          endchar
        </CharString>
        <CharString name="O">
          290 -29 240 1034 240 hstem
          100 283 664 282 vstem
          1047 726 rmoveto
          -81 callsubr
          -947 hmoveto
          -80 callsubr
          endchar
        </CharString>
        <CharString name="OE">
          542 -29 242 -213 240 387 239 351 238 -206 240 hstemhm
          100 283 440 268 hintmask 01110110
          823 hmoveto
          762 240 -494 128 hlineto
          259 35 vlineto
          396 239 -396 hlineto
          -35 253 hlineto
          98 494 239 vlineto
          -762 -1 rlineto
          hintmask 10101110
          -56 22 -65 12 -77 0 rrcurveto
          -445 -80 -499 -236 -239 80 -544 445 hvcurveto
          77 0 65 13 56 23 rrcurveto
          1111 vmoveto
          -759 vlineto
          -28 -87 -56 -59 -114 0 rrcurveto
          -225 -17 412 129 131 22 364 220 hvcurveto
          114 0 56 -53 28 -78 rrcurveto
          endchar
        </CharString>
        <CharString name="Oacute">
          228 -29 240 1034 240 43 417 hstemhm
          100 283 -2 446 220 282 hintmask 11010100
          1047 726 rmoveto
          -81 callsubr
          -947 hmoveto
          -80 callsubr
          hintmask 00101000
          610 807 rmoveto
          -67 callsubr
          endchar
        </CharString>
        <CharString name="Obreve">
          290 -29 240 1034 240 31 236 hstem
          100 283 664 282 vstem
          793 1768 rmoveto
          -4 callsubr
          254 -1042 rmoveto
          -81 callsubr
          -947 hmoveto
          -80 callsubr
          endchar
        </CharString>
        <CharString name="Ocircumflex">
          228 -29 240 1034 240 43 417 hstemhm
          100 283 219 446 -1 282 hintmask 11010100
          1047 726 rmoveto
          -81 callsubr
          -947 hmoveto
          -80 callsubr
          hintmask 00101000
          619 807 rmoveto
          -12 callsubr
          endchar
        </CharString>
        <CharString name="Odieresis">
          228 -29 240 1034 240 89 328 hstemhm
          100 283 -72 328 143 328 -63 282 hintmask 00101100
          311 1738 rmoveto
          -20 callsubr
          471 hmoveto
          -20 callsubr
          hintmask 11010010
          265 -1012 rmoveto
          -81 callsubr
          -947 hmoveto
          -80 callsubr
          endchar
        </CharString>
        <CharString name="Ograve">
          228 -29 240 1034 240 438 417 hstem
          100 283 18 446 200 282 vstem
          730 1928 rmoveto
          -67 callsubr
          624 -1415 rmoveto
          -81 callsubr
          -947 hmoveto
          -80 callsubr
          endchar
        </CharString>
        <CharString name="Ohungarumlaut">
          228 -29 240 1034 240 -1 462 hstemhm
          100 283 664 282 hintmask 00100000
          959 1493 rmoveto
          7 callsubr
          -389 hmoveto
          8 callsubr
          hintmask 11011000
          477 -767 rmoveto
          -81 callsubr
          -947 hmoveto
          -80 callsubr
          endchar
        </CharString>
        <CharString name="Omacron">
          290 -29 240 1034 240 201 127 hstem
          100 283 664 282 vstem
          322 1813 rmoveto
          -19 callsubr
          -47 -1087 rmoveto
          -81 callsubr
          -947 hmoveto
          -80 callsubr
          endchar
        </CharString>
        <CharString name="Omega">
          290 0 229 1020 240 hstem
          100 283 664 282 vstem
          633 229 rmoveto
          27 callsubr
          endchar
        </CharString>
        <CharString name="Omegatonos">
          515 0 229 938 432 -350 240 hstemhm
          29 276 -49 283 664 282 hintmask 10101100
          789 229 rmoveto
          27 callsubr
          hintmask 01010000
          -578 1192 rmoveto
          19 callsubr
          endchar
        </CharString>
        <CharString name="Omicron">
          290 -29 242 1036 240 hstem
          100 283 664 282 vstem
          1047 754 rmoveto
          -107 callsubr
          -947 hmoveto
          -106 callsubr
          endchar
        </CharString>
        <CharString name="Omicrontonos">
          421 -29 242 954 432 -350 240 hstemhm
          42 276 -107 283 664 282 hintmask 10101100
          1158 754 rmoveto
          -107 callsubr
          -947 hmoveto
          -106 callsubr
          hintmask 01010000
          13 438 rmoveto
          19 callsubr
          endchar
        </CharString>
        <CharString name="Oslash">
          306 -29 242 1036 240 hstem
          100 281 666 282 vstem
          545 -6 rmoveto
          51 -14 61 -9 58 0 475 0 139 492 0 264 0 225 -57 240 -172 156 rrcurveto
          61 145 -272 0 -8 -27 rlineto
          -42 16 -62 7 -56 0 -451 0 -170 -393 0 -369 0 -178 72 -270 143 -144 rrcurveto
          -67 -164 284 0 rlineto
          105 252 rmoveto
          348 844 rlineto
          49 -111 13 -103 0 -126 0 -190 -68 -324 -266 0 -42 0 -7 6 -27 4 rrcurveto
          -197 203 rmoveto
          -37 80 -22 156 0 65 0 234 65 288 275 0 37 0 6 -6 20 -2 rrcurveto
          endchar
        </CharString>
        <CharString name="Otilde">
          228 -29 240 1034 240 63 247 -95 247 hstemhm
          100 283 22 637 5 282 hintmask 00010100
          405 1844 rmoveto
          -24 callsubr
          hintmask 00100100
          -23 callsubr
          hintmask 00010100
          -22 callsubr
          hintmask 11001010
          642 -1118 rmoveto
          -81 callsubr
          -947 hmoveto
          -80 callsubr
          endchar
        </CharString>
        <CharString name="P">
          75 21 -21 584 240 392 240 hstem
          115 268 446 274 vstem
          383 824 rmoveto
          -79 callsubr
          -339 632 rmoveto
          -78 callsubr
          endchar
        </CharString>
        <CharString name="Pdotaccent">
          29 0 21 563 240 392 240 137 328 hstem
          115 268 5 328 113 274 vstem
          383 824 rmoveto
          -79 callsubr
          -339 632 rmoveto
          -78 callsubr
          5 301 rmoveto
          -20 callsubr
          endchar
        </CharString>
        <CharString name="Phi">
          439 21 -21 315 231 -222 217 515 218 -217 226 171 -20 hstemhm
          96 218 368 243 321 216 hintmask 1100011110000000
          925 315 rmoveto
          hintmask 1010111110000000
          43 callsubr
          hintmask 1011011110000000
          44 callsubr
          hintmask 1100111110000000
          1057 vmoveto
          45 callsubr
          hintmask 1010111110000000
          -11 -2 -11 -2 -11 -1 rrcurveto
          -243 -2 rmoveto
          46 callsubr
          hintmask 1011011110000000
          47 callsubr
          endchar
        </CharString>
        <CharString name="Pi">
          134 21 -21 1217 239 hstem
          115 268 485 269 vstem
          115 1456 rmoveto
          38 callsubr
          endchar
        </CharString>
        <CharString name="Psi">
          -7 21 -21 1455 -20 24 -21 hstemhm
          92 252 89 269 86 248 hintmask 11011100
          1036 1458 rmoveto
          -251 1 3 -515 rlineto
          0 -137 -29 -95 -57 -52 rrcurveto
          795 -269 -797 vlineto
          -59 51 -30 93 0 135 rrcurveto
          0 7 2 514 -251 0 -3 -514 0 -6 rlineto
          0 -172 42 -136 82 -101 56 -69 72 -45 89 -22 rrcurveto
          -393 269 395 vlineto
          86 22 70 45 55 68 82 102 41 138 0 174 rrcurveto
          endchar
        </CharString>
        <CharString name="Q">
          318 -35 242 -215 -21 1284 240 hstemhm
          98 287 662 278 hintmask 10111000
          1047 754 rmoveto
          0 -97 -23 -168 -33 -61 rrcurveto
          -158 131 -147 -197 160 -118 rlineto
          -35 -33 -75 -4 -23 0 rrcurveto
          -258 -70 321 226 245 82 256 252 hvcurveto
          227 101 -235 -266 hvcurveto
          -949 hmoveto
          -369 193 -420 418 vhcurveto
          147 0 123 49 74 66 rrcurveto
          hintmask 01111000
          133 -109 150 190 -136 99 rlineto
          62 90 63 170 0 234 rrcurveto
          352 -174 389 -432 -465 -156 -443 -298 vhcurveto
          endchar
        </CharString>
        <CharString name="R">
          105 20 -21 581 244 392 239 hstem
          115 268 446 274 vstem
          383 824 rmoveto
          -77 callsubr
          398 -825 rmoveto
          -76 callsubr
          endchar
        </CharString>
        <CharString name="Racute">
          91 -1 21 560 244 392 239 73 417 hstemhm
          115 268 3 446 -3 274 hintmask 00010100
          503 1533 rmoveto
          -12 callsubr
          hintmask 11101010
          -120 -709 rmoveto
          -77 callsubr
          398 -825 rmoveto
          -76 callsubr
          endchar
        </CharString>
        <CharString name="Rcaron">
          91 -1 21 560 244 392 239 103 344 hstem
          115 268 446 274 vstem
          938 1902 rmoveto
          -2 callsubr
          -271 -734 rmoveto
          -77 callsubr
          398 -825 rmoveto
          -76 callsubr
          endchar
        </CharString>
        <CharString name="Rcommaaccent">
          91 -365 439 -75 21 560 244 392 239 hstemhm
          115 268 150 227 69 274 hintmask 10000100
          402 -238 rmoveto
          -11 callsubr
          hintmask 01111010
          -19 1062 rmoveto
          -77 callsubr
          398 -825 rmoveto
          -76 callsubr
          endchar
        </CharString>
        <CharString name="Rho">
          29 21 -21 580 243 394 239 hstem
          121 268 406 274 vstem
          389 823 rmoveto
          39 callsubr
          -398 633 rmoveto
          40 callsubr
          endchar
        </CharString>
        <CharString name="S">
          83 -29 242 1038 241 hstem
          135 274 443 274 vstem
          83 404 rmoveto
          -75 callsubr
          endchar
        </CharString>
        <CharString name="Sacute">
          83 -29 242 1038 241 36 417 hstemhm
          135 274 73 446 -76 274 hintmask 00101000
          599 1533 rmoveto
          -12 callsubr
          hintmask 11010100
          -516 -1129 rmoveto
          -75 callsubr
          endchar
        </CharString>
        <CharString name="Scaron">
          83 -29 242 1038 241 70 344 hstem
          135 274 443 274 vstem
          1058 1906 rmoveto
          -2 callsubr
          -691 -1158 rmoveto
          -75 callsubr
          endchar
        </CharString>
        <CharString name="Scedilla">
          83 -365 439 -103 242 1038 241 hstemhm
          135 274 124 227 92 274 hintmask 10001000
          402 -238 rmoveto
          -11 callsubr
          hintmask 01110100
          -319 642 rmoveto
          -75 callsubr
          endchar
        </CharString>
        <CharString name="Scircumflex">
          83 -29 242 1038 241 70 344 hstem
          135 274 443 274 vstem
          1004 1562 rmoveto
          -68 callsubr
          -650 -1158 rmoveto
          -75 callsubr
          endchar
        </CharString>
        <CharString name="Scommaaccent">
          83 -503 503 -29 242 1038 241 hstemhm
          135 274 443 274 hintmask 01111000
          83 404 rmoveto
          -75 callsubr
          hintmask 10000000
          424 -608 rmoveto
          13 callsubr
          endchar
        </CharString>
        <CharString name="Sdotaccent">
          83 -29 242 1038 241 101 328 hstem
          135 274 55 328 60 274 vstem
          83 404 rmoveto
          -75 callsubr
          113 1310 rmoveto
          -20 callsubr
          endchar
        </CharString>
        <CharString name="Sigma">
          429 0 262 901 262 hstem
          1152 hmoveto
          41 callsubr
          endchar
        </CharString>
        <CharString name="T">
          234 21 -21 1216 240 hstem
          555 268 vstem
          78 1456 rmoveto
          -74 callsubr
          endchar
        </CharString>
        <CharString name="Tau">
          234 21 -21 1217 239 hstem
          555 268 vstem
          78 1456 rmoveto
          42 callsubr
          endchar
        </CharString>
        <CharString name="Tbar">
          234 21 -21 514 240 462 240 hstem
          555 268 vstem
          78 1456 rmoveto
          -240 477 -462 -259 -240 259 -514 268 514 245 240 -245 462 457 240 vlineto
          endchar
        </CharString>
        <CharString name="Tcaron">
          234 0 21 1195 240 108 344 hstem
          555 268 vstem
          1097 1908 rmoveto
          -2 callsubr
          -735 -108 rmoveto
          -74 callsubr
          endchar
        </CharString>
        <CharString name="Tcommaaccent">
          234 -365 439 -74 21 1195 240 hstemhm
          555 268 -212 227 hintmask 10001000
          480 -238 rmoveto
          -11 callsubr
          hintmask 01110000
          -402 1694 rmoveto
          -74 callsubr
          endchar
        </CharString>
        <CharString name="Tdotaccent">
          234 0 21 1195 240 137 328 hstemhm
          528 328 -301 268 hintmask 11001000
          78 1456 rmoveto
          -74 callsubr
          hintmask 00110000
          -752 301 rmoveto
          -20 callsubr
          endchar
        </CharString>
        <CharString name="Theta">
          290 -29 242 414 240 382 240 hstem
          100 283 664 282 vstem
          486 867 rmoveto
          -240 453 240 vlineto
          108 -113 rmoveto
          -107 callsubr
          -947 hmoveto
          -106 callsubr
          endchar
        </CharString>
        <CharString name="Thorn">
          265 21 -21 287 239 435 238 257 -20 hstem
          135 268 402 267 vstem
          403 526 rmoveto
          435 vlineto
          155 247 -21 -190 -181 -210 -43 -192 hvcurveto
          -268 930 rmoveto
          -1456 268 287 vlineto
          340 329 78 385 356 -323 93 -346 hvcurveto
          257 vlineto
          endchar
        </CharString>
        <CharString name="U">
          156 -35 240 1251 -20 hstem
          115 268 509 268 vstem
          637 -35 rmoveto
          -73 callsubr
          endchar
        </CharString>
        <CharString name="Uacute">
          179 -35 240 1231 20 72 417 hstemhm
          115 268 155 446 -92 268 hintmask 11010100
          637 -35 rmoveto
          -73 callsubr
          hintmask 00101000
          18 1568 rmoveto
          -12 callsubr
          endchar
        </CharString>
        <CharString name="Ubreve">
          228 -35 240 1231 20 60 236 hstem
          115 268 509 268 vstem
          717 1768 rmoveto
          -4 callsubr
          -80 -1803 rmoveto
          -73 callsubr
          endchar
        </CharString>
        <CharString name="Ucircumflex">
          179 -35 240 1231 20 110 344 hstem
          115 268 509 268 vstem
          1059 1566 rmoveto
          -68 callsubr
          -151 -1601 rmoveto
          -73 callsubr
          endchar
        </CharString>
        <CharString name="Udieresis">
          179 -35 240 1231 20 81 328 hstemhm
          115 268 -126 328 143 328 -164 268 hintmask 00101100
          257 1701 rmoveto
          -20 callsubr
          471 hmoveto
          -20 callsubr
          hintmask 11010010
          -91 -1736 rmoveto
          -73 callsubr
          endchar
        </CharString>
        <CharString name="Ugrave">
          179 -35 240 1231 20 72 417 hstemhm
          115 268 -46 446 109 268 hintmask 11010100
          637 -35 rmoveto
          -73 callsubr
          hintmask 00101000
          29 1568 rmoveto
          -67 callsubr
          endchar
        </CharString>
        <CharString name="Uhungarumlaut">
          179 -35 240 1231 20 28 462 hstem
          115 268 509 268 vstem
          875 1493 rmoveto
          7 callsubr
          -389 hmoveto
          8 callsubr
          151 -1528 rmoveto
          -73 callsubr
          endchar
        </CharString>
        <CharString name="Umacron">
          228 -35 240 1231 20 230 127 hstem
          115 268 509 268 vstem
          251 1813 rmoveto
          -19 callsubr
          -386 -1848 rmoveto
          -73 callsubr
          endchar
        </CharString>
        <CharString name="Uogonek">
          228 -344 439 -130 240 1231 20 hstemhm
          115 268 121 227 161 268 hintmask 10001000
          862 -217 rmoveto
          -3 callsubr
          hintmask 01110100
          -112 309 rmoveto
          -73 callsubr
          endchar
        </CharString>
        <CharString name="Upsilon">
          195 21 -21 1456 -20 hstem
          528 269 vstem
          66 1456 rmoveto
          26 callsubr
          endchar
        </CharString>
        <CharString name="Upsilondieresis">
          195 0 21 1415 20 137 328 hstemhm
          261 328 -61 269 -65 328 hintmask 11001000
          66 1456 rmoveto
          26 callsubr
          hintmask 00110100
          -89 301 rmoveto
          -20 callsubr
          471 hmoveto
          -20 callsubr
          endchar
        </CharString>
        <CharString name="Upsilontonos">
          195 21 -21 1456 -20 hstem
          528 269 vstem
          66 1456 rmoveto
          26 callsubr
          endchar
        </CharString>
        <CharString name="Uring">
          228 -35 240 1231 20 37 117 215 117 hstem
          115 268 43 125 208 125 8 268 vstem
          551 1717 rmoveto
          9 callsubr
          -125 hmoveto
          10 callsubr
          211 -1752 rmoveto
          -73 callsubr
          endchar
        </CharString>
        <CharString name="Utilde">
          228 -35 240 1231 20 58 247 -95 247 hstemhm
          115 268 -49 637 -79 268 hintmask 00010100
          334 1810 rmoveto
          -1 callsubr
          hintmask 00100100
          0 callsubr
          hintmask 00010100
          1 callsubr
          hintmask 11001010
          303 -1845 rmoveto
          -73 callsubr
          endchar
        </CharString>
        <CharString name="V">
          183 21 -21 1456 -20 hstem
          953 1456 rmoveto
          -72 callsubr
          endchar
        </CharString>
        <CharString name="W">
          589 21 -21 1456 -20 hstem
          74 1456 rmoveto
          -71 callsubr
          endchar
        </CharString>
        <CharString name="Wacute">
          550 0 21 1415 20 72 417 hstem
          712 446 vstem
          74 1456 rmoveto
          -71 callsubr
          484 77 rmoveto
          -12 callsubr
          endchar
        </CharString>
        <CharString name="Wcircumflex">
          550 0 21 1415 20 106 344 hstem
          1241 1562 rmoveto
          -68 callsubr
          -896 -106 rmoveto
          -71 callsubr
          endchar
        </CharString>
        <CharString name="Wdieresis">
          550 0 21 1415 20 137 328 hstem
          453 328 143 328 vstem
          74 1456 rmoveto
          -71 callsubr
          108 301 rmoveto
          -20 callsubr
          471 hmoveto
          -20 callsubr
          endchar
        </CharString>
        <CharString name="Wgrave">
          550 0 21 1415 20 70 417 hstem
          588 446 vstem
          74 1456 rmoveto
          -71 callsubr
          572 75 rmoveto
          -67 callsubr
          endchar
        </CharString>
        <CharString name="X">
          207 21 -21 1455 -20 20 -20 hstemhm
          hintmask 11000000
          67 1455 rmoveto
          436 -725 -439 -730 340 0 259 480 259 -480 340 0 -439 730 436 725 -340 0 -256 -475 -256 475 rlineto
          endchar
        </CharString>
        <CharString name="Xi">
          72 0 240 386 240 350 240 hstem
          115 240 rmoveto
          37 callsubr
          -982 1215 rmoveto
          37 callsubr
          -895 -591 rmoveto
          0 -240 786 1 0 240 rlineto
          endchar
        </CharString>
        <CharString name="Y">
          207 21 -21 1455 -20 20 -20 hstemhm
          530 268 hintmask 11010000
          67 1455 rmoveto
          -70 callsubr
          endchar
        </CharString>
        <CharString name="Yacute">
          60 0 21 1414 20 440 417 hstemhm
          516 446 -432 268 hintmask 00110000
          633 1900 rmoveto
          -12 callsubr
          hintmask 11001000
          -566 -445 rmoveto
          -70 callsubr
          endchar
        </CharString>
        <CharString name="Ycircumflex">
          195 0 21 1414 20 107 344 hstem
          530 268 vstem
          1058 1562 rmoveto
          -68 callsubr
          -720 -107 rmoveto
          -70 callsubr
          endchar
        </CharString>
        <CharString name="Ydieresis">
          195 0 21 1414 20 138 328 hstemhm
          265 328 -63 268 -62 328 hintmask 00110100
          265 1757 rmoveto
          -20 callsubr
          471 hmoveto
          -20 callsubr
          hintmask 11001000
          -669 -302 rmoveto
          -70 callsubr
          endchar
        </CharString>
        <CharString name="Ygrave">
          195 0 21 1414 20 73 417 hstemhm
          357 446 -273 268 hintmask 11001000
          67 1455 rmoveto
          -70 callsubr
          hintmask 00110000
          279 78 rmoveto
          -67 callsubr
          endchar
        </CharString>
        <CharString name="Z">
          259 0 240 976 240 hstem
          139 1456 rmoveto
          -69 callsubr
          endchar
        </CharString>
        <CharString name="Zacute">
          298 0 240 976 240 72 417 hstem
          573 446 vstem
          690 1533 rmoveto
          -12 callsubr
          -551 -77 rmoveto
          -69 callsubr
          endchar
        </CharString>
        <CharString name="Zcaron">
          298 0 240 976 240 106 344 hstem
          1121 1906 rmoveto
          -2 callsubr
          -698 -106 rmoveto
          -69 callsubr
          endchar
        </CharString>
        <CharString name="Zdotaccent">
          298 0 240 976 240 85 328 hstem
          564 328 vstem
          564 1705 rmoveto
          -20 callsubr
          -425 -249 rmoveto
          -69 callsubr
          endchar
        </CharString>
        <CharString name="Zeta">
          298 0 240 977 239 hstem
          139 1456 rmoveto
          -239 733 vlineto
          -800 -1217 1228 0 0 240 -792 0 798 1216 rlineto
          endchar
        </CharString>
        <CharString name="a">
          -39 -29 220 -170 -21 524 217 156 205 hstemhm
          90 242 389 257 hintmask 10111100
          535 524 rmoveto
          -66 callsubr
          -85 217 rmoveto
          -65 callsubr
          hintmask 01111100
          -64 callsubr
          endchar
        </CharString>
        <CharString name="aacute">
          -83 -29 220 -191 21 503 217 156 205 76 417 hstemhm
          90 242 24 446 -81 257 hintmask 10110101
          535 524 rmoveto
          -66 callsubr
          -85 217 rmoveto
          -65 callsubr
          hintmask 01110101
          -64 callsubr
          hintmask 00001010
          23 442 rmoveto
          -12 callsubr
          endchar
        </CharString>
        <CharString name="abreve">
          -39 -29 220 -191 21 503 217 156 205 64 236 hstemhm
          90 242 389 257 hintmask 00001000
          607 1418 rmoveto
          -4 callsubr
          hintmask 10110110
          -72 -894 rmoveto
          -66 callsubr
          -85 217 rmoveto
          -65 callsubr
          hintmask 01110110
          -64 callsubr
          endchar
        </CharString>
        <CharString name="acircumflex">
          -83 -29 220 -191 21 503 217 156 205 36 344 hstemhm
          90 242 389 257 hintmask 00001000
          930 1138 rmoveto
          -68 callsubr
          hintmask 10110110
          -124 -614 rmoveto
          -66 callsubr
          -85 217 rmoveto
          -65 callsubr
          hintmask 01110110
          -64 callsubr
          endchar
        </CharString>
        <CharString name="acute">
          -542 1528 417 hstem
          78 446 vstem
          195 1533 rmoveto
          -12 callsubr
          endchar
        </CharString>
        <CharString name="acutecomb">
          -1119 1302 254 hstem
          -964 443 vstem
          -789 1556 rmoveto
          14 callsubr
          endchar
        </CharString>
        <CharString name="adieresis">
          -83 -29 220 -191 21 503 217 156 205 65 328 hstemhm
          90 242 -174 328 143 328 -236 257 hintmask 0000101100000000
          158 1331 rmoveto
          -20 callsubr
          471 hmoveto
          -20 callsubr
          hintmask 1011010010000000
          -94 -807 rmoveto
          -66 callsubr
          -85 217 rmoveto
          -65 callsubr
          hintmask 0111010010000000
          -64 callsubr
          endchar
        </CharString>
        <CharString name="ae">
          645 -29 220 -170 -21 469 182 -127 217 127 230 -201 205 hstemhm
          90 242 387 274 -272 257 hintmask 1001001000000000
          535 524 rmoveto
          -66 callsubr
          673 -323 rmoveto
          hintmask 0010101100000000
          -76 0 -135 39 -5 229 rrcurveto
          664 68 hlineto
          323 -190 238 -267 vhcurveto
          -128 0 -117 -55 -86 -94 rrcurveto
          hintmask 1001011100000000
          -95 110 -148 43 -153 0 -107 0 -153 -46 -59 -48 rrcurveto
          103 -164 rlineto
          54 24 62 29 100 0 100 0 147 -35 0 -204 rrcurveto
          0 -66 0 -15 rlineto
          -25 78 -105 86 -139 0 rrcurveto
          -198 -162 -161 -222 -222 162 -165 202 hvcurveto
          hintmask 0100001010000000
          140 0 102 87 25 78 rrcurveto
          -136 257 35 vlineto
          hintmask 1010101100000000
          69 -41 78 -23 83 0 133 0 163 67 86 131 rrcurveto
          -228 98 rlineto
          -38 -46 -57 -20 -59 0 rrcurveto
          -215 450 rmoveto
          -57 callsubr
          endchar
        </CharString>
        <CharString name="afii10017">
          302 21 -21 379 246 831 -20 hstem
          726 1048 rmoveto
          21 callsubr
          375 -246 rmoveto
          22 callsubr
          endchar
        </CharString>
        <CharString name="afii10018">
          29 0 239 394 243 340 240 hstem
          121 268 406 274 vstem
          121 hmoveto
          268 0 130 0 rlineto
          90 0 80 11 71 23 71 23 59 31 44 40 44 40 33 46 23 52 23 52 12 57 0 61 0 60 -12 57 -25 53 -25 53 -35 47 -46 40 rrcurveto
          -46 40 -58 32 -70 23 -70 23 -78 12 -85 0 rrcurveto
          -130 340 531 240 -799 -240 hlineto
          268 -583 rmoveto
          68 callsubr
          endchar
        </CharString>
        <CharString name="afii10019">
          107 0 240 399 238 342 237 hstemhm
          119 268 424 264 -176 264 hintmask 11110100
          387 639 rmoveto
          28 callsubr
          979 vmoveto
          29 callsubr
          hintmask 11111000
          30 callsubr
          -268 579 rmoveto
          31 callsubr
          hintmask 11110100
          32 callsubr
          hintmask 11111000
          33 callsubr
          endchar
        </CharString>
        <CharString name="afii10020">
          72 21 -21 1217 239 hstem
          115 268 vstem
          383 1217 rmoveto
          34 callsubr
          endchar
        </CharString>
        <CharString name="afii10021">
          557 -241 481 -240 240 977 239 hstemhm
          74 240 754 268 0 240 hintmask 01110100
          595 1456 rmoveto
          -154 -1116 -41 -87 rlineto
          -7 -5 -8 -4 -8 -4 rrcurveto
          -303 -1 rlineto
          hintmask 10110100
          -480 240 vlineto
          hintmask 01110100
          241 1022 vlineto
          hintmask 10110100
          -241 240 480 vlineto
          -240 1 0 1216 rlineto
          hintmask 01111000
          -268 -1213 rmoveto
          -407 -3 rlineto
          16 39 12 52 10 66 rrcurveto
          120 820 248 0 rlineto
          endchar
        </CharString>
        <CharString name="afii10022">
          92 0 240 387 239 351 239 hstem
          114 268 vstem
          114 1456 rmoveto
          23 callsubr
          endchar
        </CharString>
        <CharString name="afii10023">
          92 0 240 387 239 351 239 137 328 hstemhm
          114 268 -129 328 143 328 hintmask 11110110
          253 1757 rmoveto
          67 callsubr
          471 hmoveto
          -20 callsubr
          hintmask 11111010
          -610 -301 rmoveto
          23 callsubr
          endchar
        </CharString>
        <CharString name="afii10024">
          550 21 -21 1456 -20 hstem
          695 269 vstem
          119 1456 rmoveto
          421 -729 -427 -727 337 0 245 456 0 -456 269 0 0 456 2 4 247 -460 337 0 -427 727 421 729 -309 0 -269 -501 -2 4 rlineto
          5 497 -5 0 -269 0 0 -2 -1 2 1 -3 0 -494 -267 497 rlineto
          endchar
        </CharString>
        <CharString name="afii10025">
          58 -28 242 437 213 389 237 hstemhm
          760 252 -181 269 hintmask 11101000
          93 323 rmoveto
          29 -81 41 -66 53 -54 53 -54 58 -39 63 -23 63 -23 70 -11 75 0 71 0 66 12 63 25 63 25 53 32 44 42 44 42 35 48 25 56 rrcurveto
          25 56 13 58 0 61 0 50 -7 46 -13 42 -13 42 -19 37 -25 32 -25 32 -24 25 -23 21 -23 21 -28 21 -33 22 rrcurveto
          hintmask 11110000
          97 69 48 92 0 115 0 69 -12 60 -25 52 -25 52 -34 41 -42 30 -42 30 -47 23 -51 15 -51 15 -56 7 -59 0 -205 0 -139 -94 -72 -188 rrcurveto
          250 -66 rlineto
          13 30 21 26 30 22 30 22 34 11 39 0 55 0 46 -17 36 -34 36 -34 18 -50 0 -64 0 -47 -18 -43 -37 -40 -37 -40 -43 -20 -50 0 rrcurveto
          -142 -213 165 hlineto
          61 0 54 -21 47 -44 rrcurveto
          hintmask 11101000
          47 -44 24 -52 0 -61 0 -61 -21 -51 -44 -41 -44 -41 -56 -21 -68 0 -49 0 -48 14 -45 29 -45 29 -35 45 -25 62 rrcurveto
          endchar
        </CharString>
        <CharString name="afii10026">
          224 21 -21 1456 -20 hstem
          119 268 565 269 vstem
          119 1456 rmoveto
          70 callsubr
          endchar
        </CharString>
        <CharString name="afii10027">
          224 21 -21 1456 -20 80 236 hstem
          119 268 565 269 vstem
          119 1456 rmoveto
          70 callsubr
          346 312 rmoveto
          -4 callsubr
          endchar
        </CharString>
        <CharString name="afii10028">
          214 21 -21 1456 -20 hstem
          115 268 vstem
          115 1456 rmoveto
          -85 callsubr
          endchar
        </CharString>
        <CharString name="afii10029">
          283 0 229 988 239 hstem
          1067 269 vstem
          595 1456 rmoveto
          -154 -1116 -41 -87 rlineto
          -21 -16 -25 -8 -29 0 -17 0 -18 5 -17 8 -17 8 -13 10 -8 11 rrcurveto
          -169 -172 rlineto
          35 -39 35 -27 38 -13 38 -13 47 -7 55 0 63 0 61 19 60 37 60 37 49 49 37 62 24 40 18 65 13 88 rrcurveto
          120 820 248 0 0 -1217 269 0 0 1456 rlineto
          endchar
        </CharString>
        <CharString name="afii10030">
          429 21 -21 1456 -20 hstem
          66 262 901 262 vstem
          66 hmoveto
          36 callsubr
          endchar
        </CharString>
        <CharString name="afii10031">
          134 21 -21 625 239 592 -20 hstem
          115 268 485 269 vstem
          115 1456 rmoveto
          24 callsubr
          endchar
        </CharString>
        <CharString name="afii10032">
          290 -29 242 1036 240 hstem
          100 283 664 282 vstem
          1047 754 rmoveto
          -107 callsubr
          -947 hmoveto
          -106 callsubr
          endchar
        </CharString>
        <CharString name="afii10033">
          134 21 -21 1217 239 hstem
          115 268 485 269 vstem
          115 1456 rmoveto
          38 callsubr
          endchar
        </CharString>
        <CharString name="afii10034">
          29 21 -21 580 243 394 239 hstem
          121 268 406 274 vstem
          389 823 rmoveto
          39 callsubr
          -398 633 rmoveto
          40 callsubr
          endchar
        </CharString>
        <CharString name="afii10035">
          191 -33 242 910 -21 159 240 hstem
          90 283 vstem
          1232 310 rmoveto
          71 callsubr
          endchar
        </CharString>
        <CharString name="afii10036">
          234 21 -21 1217 239 hstem
          555 268 vstem
          78 1456 rmoveto
          42 callsubr
          endchar
        </CharString>
        <CharString name="afii10037">
          195 0 229 1227 -20 hstem
          66 1456 rmoveto
          69 callsubr
          endchar
        </CharString>
        <CharString name="afii10038">
          439 21 -21 315 231 -222 217 515 218 -217 226 171 -20 hstemhm
          96 218 368 243 321 216 hintmask 1100011110000000
          925 315 rmoveto
          hintmask 1010111110000000
          43 callsubr
          hintmask 1011011110000000
          44 callsubr
          hintmask 1100111110000000
          1057 vmoveto
          45 callsubr
          hintmask 1010111110000000
          -11 -2 -11 -2 -11 -1 rrcurveto
          -243 -2 rmoveto
          46 callsubr
          hintmask 1011011110000000
          47 callsubr
          endchar
        </CharString>
        <CharString name="afii10039">
          179 21 -21 1456 -20 hstem
          59 1456 rmoveto
          48 callsubr
          endchar
        </CharString>
        <CharString name="afii10040">
          134 0 239 1217 -20 hstem
          115 268 485 269 vstem
          115 hmoveto
          1022 1456 -269 -1217 -485 1217 -268 hlineto
          endchar
        </CharString>
        <CharString name="afii10041">
          2 21 -21 353 235 867 -20 20 -20 hstemhm
          119 258 379 258 hintmask 11101100
          756 1455 rmoveto
          -536 vlineto
          0 -53 -3 -46 -7 -40 -7 -40 -9 -32 -12 -24 -12 -24 -14 -19 -18 -15 -18 -15 -18 -10 -18 -5 -18 -5 -22 -3 -23 0 -23 0 -21 3 -17 5 rrcurveto
          -17 5 -15 11 -16 14 -16 14 -13 19 -10 24 -10 24 -7 32 -6 39 -6 39 -3 47 0 54 rrcurveto
          0 108 0 429 -258 0 0 -423 0 -245 rlineto
          0 -68 10 -62 19 -57 19 -57 24 -46 31 -35 31 -35 35 -26 36 -19 36 -19 36 -10 37 0 69 0 64 18 58 36 58 36 44 45 30 55 rrcurveto
          -543 258 1455 vlineto
          endchar
        </CharString>
        <CharString name="afii10042">
          525 0 239 1217 -20 hstem
          115 268 291 268 333 269 vstem
          115 hmoveto
          1429 1456 -269 -1217 -333 1217 -268 -1217 -291 1217 -268 hlineto
          endchar
        </CharString>
        <CharString name="afii10043">
          765 0 239 1217 -20 hstemhm
          115 268 291 268 333 269 0 240 hintmask 11110100
          115 hmoveto
          1429 -228 240 468 hlineto
          hintmask 11111000
          -240 -1 0 1217 -269 0 0 -1217 -333 0 0 1217 -268 0 0 -1217 -291 0 0 1217 -268 0 rlineto
          endchar
        </CharString>
        <CharString name="afii10044">
          169 0 239 394 243 340 240 hstem
          310 268 406 274 vstem
          310 hmoveto
          268 0 130 0 rlineto
          90 0 81 11 71 23 71 23 58 31 44 40 44 40 34 46 23 52 23 52 11 57 0 61 0 60 -12 57 -25 53 -25 53 -35 47 -46 40 rrcurveto
          -46 40 -57 32 -70 23 -70 23 -79 12 -85 0 rrcurveto
          -130 580 -548 -240 280 hlineto
          268 -583 rmoveto
          68 callsubr
          endchar
        </CharString>
        <CharString name="afii10045">
          129 0 239 394 243 580 -20 hstemhm
          121 268 -268 201 262 248 47 269 hintmask 11101110
          322 633 rmoveto
          98 hlineto
          109 55 -66 -131 -131 -55 -66 -109 hvcurveto
          -98 hlineto
          -201 -239 rmoveto
          201 0 98 0 rlineto
          68 0 60 11 53 23 53 23 43 31 33 40 33 40 26 46 17 52 17 52 9 57 0 61 0 60 -9 57 -19 53 -19 53 -27 47 -34 40 rrcurveto
          -34 40 -44 32 -52 23 -52 23 -58 12 -64 0 rrcurveto
          hintmask 11110110
          -31 580 -268 hlineto
          758 -1456 rmoveto
          25 callsubr
          endchar
        </CharString>
        <CharString name="afii10046">
          29 0 239 394 243 580 -20 hstem
          121 268 406 274 vstem
          389 633 rmoveto
          68 callsubr
          -268 -239 rmoveto
          268 0 130 0 rlineto
          90 0 80 11 71 23 71 23 59 31 44 40 44 40 33 46 23 52 23 52 12 57 0 61 0 60 -12 57 -25 53 -25 53 -35 47 -46 40 rrcurveto
          -46 40 -58 32 -70 23 -70 23 -78 12 -85 0 rrcurveto
          -130 580 -268 hlineto
          endchar
        </CharString>
        <CharString name="afii10047">
          191 -33 242 910 -21 159 240 hstem
          949 283 vstem
          90 310 rmoveto
          72 callsubr
          endchar
        </CharString>
        <CharString name="afii10048">
          533 -28 242 -193 -21 666 240 342 242 -34 -20 hstemhm
          143 269 145 266 473 268 hintmask 01100111
          143 hmoveto
          269 666 145 hlineto
          6 -117 20 -106 31 -94 39 -117 57 -93 77 -67 rrcurveto
          hintmask 10110111
          77 -67 90 -33 105 0 rrcurveto
          1 hlineto
          105 0 90 33 77 67 77 67 58 93 39 118 39 118 19 135 0 153 0 231 -43 180 -87 129 -87 129 -123 65 -159 0 -160 0 -125 -64 -90 -130 rrcurveto
          -69 -100 -43 -130 -16 -160 rrcurveto
          -150 hlineto
          hintmask 01101111
          550 -269 vlineto
          680 -700 rmoveto
          0 180 17 127 34 74 rrcurveto
          hintmask 10110111
          34 74 64 37 93 0 92 0 62 -36 31 -73 31 -73 15 -127 0 -183 0 -92 -3 -78 -7 -64 -7 -64 -13 -55 -17 -48 -17 -48 -25 -36 -31 -23 rrcurveto
          -31 -23 -39 -11 -47 0 -37 0 -32 8 -28 16 -28 16 -22 22 -18 28 -18 28 -14 36 -10 46 -10 46 -8 50 -4 54 -4 54 -3 65 0 73 rrcurveto
          endchar
        </CharString>
        <CharString name="afii10049">
          91 21 -21 580 243 394 239 hstem
          216 274 406 268 vstem
          896 823 rmoveto
          -128 hlineto
          -185 -93 66 131 131 93 66 185 hvcurveto
          128 hlineto
          -469 -1217 rmoveto
          313 581 rlineto
          11 -1 21 -1 33 0 13 0 18 1 22 0 rrcurveto
          38 -580 268 1456 -268 hlineto
          -128 hlineto
          -91 0 -81 -11 -71 -23 -71 -23 -58 -31 -44 -40 -44 -40 -35 -46 -23 -52 -23 -52 -11 -57 0 -61 0 -81 24 -77 48 -71 48 -71 68 -55 89 -38 rrcurveto
          -372 -627 rlineto
          endchar
        </CharString>
        <CharString name="afii10051">
          134 0 229 638 235 110 240 hstem
          119 258 497 258 vstem
          377 hmoveto
          536 vlineto
          0 53 7 47 16 40 22 55 14 31 6 9 29 46 38 29 45 13 20 5 25 3 31 0 23 0 20 -3 17 -5 17 -5 23 -10 28 -14 rrcurveto
          28 -14 23 -20 19 -24 19 -24 13 -32 6 -39 6 -39 2 -47 0 -54 rrcurveto
          -111 1 -86 vlineto
          0 -31 -11 -27 -22 -22 -22 -21 -28 -10 -33 0 -17 0 -18 5 -17 8 -17 8 -13 10 -8 11 rrcurveto
          -169 -172 rlineto
          35 -39 35 -27 38 -13 38 -13 47 -7 55 0 63 0 61 19 60 37 60 37 49 49 37 62 37 62 18 64 0 67 rrcurveto
          92 -1 179 vlineto
          0 67 -9 63 -19 57 -19 57 -31 45 -40 35 -40 35 -38 28 -36 19 -36 19 -49 9 -61 0 -94 0 -72 -18 -52 -36 -82 -57 -53 -45 -24 -34 rrcurveto
          300 181 240 -604 -240 165 -1212 vlineto
          endchar
        </CharString>
        <CharString name="afii10052">
          72 0 21 1196 239 72 417 hstem
          115 268 11 446 vstem
          383 1217 rmoveto
          34 callsubr
          128 1533 rmoveto
          -12 callsubr
          endchar
        </CharString>
        <CharString name="afii10053">
          191 -33 242 445 240 225 -21 159 240 hstem
          90 735 vstem
          1232 310 rmoveto
          -259 100 rlineto
          -75 -134 -83 -67 -90 0 -61 0 -53 15 -46 29 -46 29 -37 41 -27 51 -27 51 -20 58 -14 64 -7 34 -7 36 -3 37 rrcurveto
          448 240 -443 hlineto
          1 5 0 4 1 5 7 47 12 45 17 44 17 44 21 37 26 31 26 31 35 25 41 18 41 18 47 9 53 0 43 0 43 -16 45 -31 rrcurveto
          45 -31 35 -37 27 -44 rrcurveto
          255 89 rlineto
          -38 86 -62 73 -86 60 -86 60 -103 31 -118 0 -91 0 -81 -14 -73 -27 -73 -27 -61 -37 -48 -46 -48 -46 -40 -56 -32 -64 -32 -64 -23 -68 -14 -70 rrcurveto
          -14 -70 -7 -75 0 -79 0 -83 7 -77 13 -74 13 -74 23 -72 32 -68 32 -68 39 -58 47 -50 47 -50 61 -40 73 -29 73 -29 83 -15 92 0 rrcurveto
          232 0 169 114 106 229 rrcurveto
          endchar
        </CharString>
        <CharString name="afii10054">
          83 -29 242 1038 241 hstem
          135 274 443 274 vstem
          83 404 rmoveto
          19 -129 60 -105 100 -80 100 -80 119 -39 139 0 144 0 120 39 97 79 97 79 48 105 0 131 0 46 -5 42 -11 39 -11 39 -13 34 -18 28 rrcurveto
          -18 28 -23 27 -28 25 -28 25 -28 21 -29 17 -29 17 -33 18 -38 18 -21 10 -31 12 -42 16 -42 16 -36 15 -32 13 -32 13 -33 15 -33 18 rrcurveto
          -33 18 -25 19 -18 23 -18 23 -9 24 0 27 0 57 20 42 39 25 39 25 51 12 62 0 98 0 65 -39 33 -77 rrcurveto
          273 51 rlineto
          -29 88 -58 73 -86 58 -86 58 -98 29 -112 0 -63 0 -60 -8 -57 -17 -57 -17 -52 -24 -46 -32 -46 -32 -36 -44 -27 -52 -27 -52 -14 -59 0 -65 rrcurveto
          0 -41 5 -38 11 -35 11 -35 13 -29 16 -24 16 -24 21 -23 26 -21 26 -21 24 -18 22 -13 22 -13 27 -14 31 -15 30 -14 36 -15 42 -17 rrcurveto
          42 -17 36 -13 28 -11 28 -11 30 -14 32 -16 32 -16 25 -16 19 -16 19 -16 15 -21 13 -25 13 -25 6 -28 0 -31 0 -57 -20 -46 -40 -35 rrcurveto
          -40 -35 -58 -18 -74 0 -73 0 -59 23 -45 44 -45 44 -30 56 -17 67 rrcurveto
          endchar
        </CharString>
        <CharString name="afii10055">
          -564 21 -21 1456 -20 hstem
          143 269 vstem
          143 hmoveto
          25 callsubr
          endchar
        </CharString>
        <CharString name="afii10056">
          -564 21 -21 1456 -20 157 328 hstemhm
          -117 328 -68 269 -58 328 hintmask 11110000
          -117 1757 rmoveto
          67 callsubr
          hintmask 11100100
          471 hmoveto
          67 callsubr
          hintmask 11101000
          -211 -1757 rmoveto
          25 callsubr
          endchar
        </CharString>
        <CharString name="afii10057">
          132 -35 254 997 240 hstem
          102 241 517 268 vstem
          102 586 rmoveto
          0 -71 6 -67 13 -62 13 -62 19 -56 27 -52 27 -52 33 -45 40 -37 40 -37 49 -28 57 -21 57 -21 63 -10 70 0 111 0 94 27 78 53 rrcurveto
          78 53 58 73 37 92 37 92 19 108 0 123 rrcurveto
          0 630 0 240 -639 0 0 -240 371 0 0 -630 rlineto
          0 -49 -4 -45 -8 -41 -8 -41 -12 -38 -17 -36 -17 -36 -26 -29 -33 -21 -33 -21 -40 -10 -46 0 -49 0 -43 10 -37 21 -37 21 -28 29 -20 36 rrcurveto
          -20 36 -16 40 -9 41 -9 41 -5 45 0 47 rrcurveto
          endchar
        </CharString>
        <CharString name="afii10058">
          838 0 229 404 243 341 239 hstem
          944 268 406 274 vstem
          595 1456 rmoveto
          -154 -1116 -41 -87 rlineto
          -21 -16 -25 -8 -29 0 -17 0 -18 5 -17 8 -17 8 -13 10 -8 11 rrcurveto
          -169 -172 rlineto
          35 -39 35 -27 38 -13 38 -13 47 -7 55 0 63 0 61 19 60 37 60 37 49 49 37 62 24 40 18 65 13 88 rrcurveto
          120 820 125 0 0 -1217 268 0 130 0 rlineto
          90 0 81 11 71 23 71 23 57 31 44 40 44 40 35 46 23 52 23 52 11 57 0 61 0 60 -13 57 -25 53 -25 53 -35 47 -46 40 rrcurveto
          -46 40 -57 32 -70 23 -70 23 -78 12 -85 0 rrcurveto
          -130 341 hlineto
          239 vlineto
          -823 vmoveto
          68 callsubr
          endchar
        </CharString>
        <CharString name="afii10059">
          598 0 239 386 239 592 -20 hstem
          115 268 311 269 405 274 vstem
          115 1456 rmoveto
          -1456 268 625 311 -625 269 vlineto
          129 hlineto
          90 0 81 11 71 23 71 23 57 31 44 40 44 40 35 46 23 52 23 52 11 57 0 61 0 60 -13 57 -25 53 -25 53 -35 47 -46 40 rrcurveto
          -46 40 -57 32 -70 23 -70 23 -78 12 -85 0 rrcurveto
          -129 580 -1 hlineto
          -268 -592 -311 592 hlineto
          580 -1217 rmoveto
          394 129 vlineto
          184 92 -66 -131 -131 -92 -66 -184 hvcurveto
          endchar
        </CharString>
        <CharString name="afii10060">
          2 21 -21 867 235 112 240 hstem
          119 258 379 258 vstem
          377 hmoveto
          536 vlineto
          0 53 4 47 7 40 7 40 9 31 12 24 12 24 14 19 18 15 18 15 18 10 18 5 18 5 21 3 23 0 23 0 20 -3 17 -5 rrcurveto
          17 -5 17 -10 16 -14 16 -14 12 -20 10 -24 10 -24 8 -32 6 -39 6 -39 2 -47 0 -54 rrcurveto
          -537 258 668 vlineto
          0 68 -9 62 -19 57 -19 57 -26 45 -31 35 -31 35 -33 28 -36 19 -36 19 -37 9 -37 0 -69 0 -63 -18 -58 -36 -58 -36 -45 -45 -30 -55 rrcurveto
          302 127 240 -504 -240 119 -1214 vlineto
          endchar
        </CharString>
        <CharString name="afii10061">
          214 0 21 1415 20 72 417 hstem
          115 268 107 446 vstem
          115 1456 rmoveto
          -85 callsubr
          224 77 rmoveto
          -12 callsubr
          endchar
        </CharString>
        <CharString name="afii10062">
          195 0 229 1207 20 137 328 hstem
          267 328 143 328 vstem
          66 1456 rmoveto
          69 callsubr
          -83 301 rmoveto
          -20 callsubr
          471 hmoveto
          -20 callsubr
          endchar
        </CharString>
        <CharString name="afii10065">
          -39 -29 220 -170 -21 524 217 156 205 hstemhm
          90 242 389 257 hintmask 10111100
          535 524 rmoveto
          59 0 46 -17 35 -33 35 -33 17 -40 0 -45 0 -45 -17 -39 -35 -32 -35 -32 -46 -17 -59 0 -59 0 -49 16 -38 33 -38 33 -19 38 0 45 rrcurveto
          0 45 20 39 38 34 rrcurveto
          38 34 48 16 59 0 rrcurveto
          -85 217 rmoveto
          -100 0 -85 -36 -70 -73 -70 -73 -35 -91 0 -110 0 -110 36 -92 70 -74 70 -74 86 -37 102 0 66 0 57 17 49 34 49 34 32 37 14 43 rrcurveto
          hintmask 01111100
          -136 257 305 vlineto
          304 vlineto
          0 71 -10 64 -18 57 -18 57 -25 47 -31 37 -31 37 -38 30 -44 25 -44 25 -45 17 -48 10 -48 10 -51 6 -55 0 -53 0 -59 -10 -65 -19 rrcurveto
          -65 -19 -47 -22 -30 -24 rrcurveto
          103 -164 rlineto
          26 11 20 9 14 6 14 6 22 6 30 6 30 6 29 3 31 0 23 0 21 -2 20 -3 20 -3 23 -7 23 -10 23 -10 21 -15 16 -17 rrcurveto
          16 -17 13 -23 11 -29 11 -29 6 -35 0 -39 rrcurveto
          -82 vlineto
          -13 43 -32 37 -50 34 -50 34 -58 17 -66 0 rrcurveto
          endchar
        </CharString>
        <CharString name="afii10066">
          -14 -29 235 660 234 174 240 hstem
          93 258 437 248 vstem
          478 1514 rmoveto
          -63 0 -61 -19 -60 -37 -60 -37 -49 -49 -37 -62 -37 -62 -18 -64 0 -67 rrcurveto
          -534 vlineto
          -1 -15 0 -15 0 -16 0 -176 42 -138 82 -101 82 -101 116 -50 151 0 150 0 116 51 82 102 82 102 41 137 0 174 0 174 -41 137 -82 101 rrcurveto
          -82 101 -116 50 -150 0 -81 0 -72 -14 -61 -30 rrcurveto
          118 vlineto
          0 31 11 27 22 22 14 14 32 6 48 0 rrcurveto
          431 240 hlineto
          -565 -987 rmoveto
          7 116 hlineto
          22 148 71 75 122 0 rrcurveto
          148 74 -110 -219 -221 -74 -110 -148 hvcurveto
          -146 0 -74 107 -2 214 rrcurveto
          endchar
        </CharString>
        <CharString name="afii10067">
          -119 -1 178 295 176 253 175 hstemhm
          53 263 306 260 -195 260 hintmask 11110100
          316 472 rmoveto
          161 hlineto
          141 69 -47 -95 hvcurveto
          0 -44 -16 -37 -32 -29 -32 -29 -54 -14 -76 0 rrcurveto
          -161 hlineto
          724 vmoveto
          117 hlineto
          68 0 48 -12 29 -25 rrcurveto
          hintmask 11111000
          29 -25 15 -28 0 -35 0 -35 -15 -30 -29 -25 -29 -25 -48 -13 -68 0 rrcurveto
          -117 hlineto
          -263 428 rmoveto
          -1077 510 vlineto
          63 0 56 8 48 16 48 16 37 18 27 23 27 23 21 27 17 31 17 31 11 28 5 26 rrcurveto
          hintmask 11110100
          5 26 2 26 0 26 0 31 -7 33 -14 35 -14 35 -25 32 -34 33 -34 33 -41 22 -47 11 46 14 36 24 28 33 rrcurveto
          hintmask 11111000
          28 33 13 44 0 54 0 17 -1 17 -2 17 -2 17 -6 18 -7 19 -7 19 -10 18 -12 17 -12 17 -15 16 -20 16 -20 16 -23 13 -26 11 rrcurveto
          -26 11 -32 9 -38 7 -38 7 -41 3 -46 0 rrcurveto
          endchar
        </CharString>
        <CharString name="afii10068">
          -5 21 -21 835 239 hstem
          119 258 vstem
          119 1074 rmoveto
          73 callsubr
          endchar
        </CharString>
        <CharString name="afii10069">
          71 -228 468 -240 240 834 -20 hstemhm
          68 240 320 262 0 240 hintmask 10110100
          1130 -228 rmoveto
          468 vlineto
          hintmask 10111000
          -240 hlineto
          hintmask 10110100
          0 834 -556 -1 -98 -737 -42 -87 rlineto
          -4 -3 -5 -3 -5 -3 rrcurveto
          -112 -468 240 hlineto
          hintmask 01110100
          228 582 vlineto
          hintmask 10110100
          -228 vlineto
          hintmask 01111000
          -262 468 rmoveto
          -171 hlineto
          15 39 13 51 9 63 rrcurveto
          64 441 70 0 rlineto
          endchar
        </CharString>
        <CharString name="afii10070">
          -26 -29 230 268 182 217 230 hstem
          78 274 vstem
          352 651 rmoveto
          74 callsubr
          -198 -450 rmoveto
          75 callsubr
          endchar
        </CharString>
        <CharString name="afii10071">
          -26 -29 230 268 182 217 230 88 328 hstemhm
          78 274 -201 328 143 328 hintmask 11110110
          151 1350 rmoveto
          63 callsubr
          471 hmoveto
          18 callsubr
          hintmask 11101000
          -270 -699 rmoveto
          74 callsubr
          -198 -450 rmoveto
          75 callsubr
          endchar
        </CharString>
        <CharString name="afii10072">
          330 21 -21 1073 -20 hstem
          582 269 vstem
          582 hmoveto
          269 331 hlineto
          188 -331 307 0 -341 536 323 537 -290 0 -187 -325 0 325 -269 0 0 -330 -190 330 -290 0 323 -537 -341 -536 307 0 190 335 rlineto
          1 -2 rlineto
          endchar
        </CharString>
        <CharString name="afii10073">
          -205 -29 222 246 237 219 214 hstemhm
          553 223 -181 247 hintmask 11101000
          86 234 rmoveto
          22 -60 31 -51 40 -40 40 -40 44 -29 47 -17 47 -17 52 -9 56 0 53 0 51 10 47 18 47 18 40 25 33 31 33 31 25 37 19 42 rrcurveto
          19 42 10 43 0 46 0 38 -5 33 -10 32 -10 32 -15 27 -18 24 -18 24 -18 19 -18 16 -18 16 -21 16 -24 16 rrcurveto
          hintmask 11110000
          72 52 37 69 0 86 0 52 -10 45 -18 39 -18 39 -25 31 -32 22 -32 22 -36 18 -38 11 -38 11 -42 5 -44 0 -154 0 -104 -70 -54 -141 rrcurveto
          221 -65 rlineto
          7 17 12 15 17 12 17 12 19 6 22 0 31 0 26 -10 20 -19 20 -19 10 -28 0 -36 0 -27 -10 -24 -21 -22 -21 -22 -24 -12 -28 0 rrcurveto
          -80 0 2 -237 93 0 rlineto
          34 0 31 -12 26 -25 rrcurveto
          hintmask 11101000
          26 -25 14 -29 0 -34 0 -34 -12 -29 -25 -23 -25 -23 -31 -12 -38 0 -28 0 -26 9 -26 16 -26 16 -19 25 -14 35 rrcurveto
          endchar
        </CharString>
        <CharString name="afii10074">
          2 21 -21 1077 -20 hstem
          130 216 456 217 vstem
          130 1077 rmoveto
          76 callsubr
          endchar
        </CharString>
        <CharString name="afii10075">
          2 0 21 1036 20 94 236 hstem
          130 216 456 217 vstem
          130 1077 rmoveto
          76 callsubr
          282 346 rmoveto
          -4 callsubr
          endchar
        </CharString>
        <CharString name="afii10076">
          -90 20 -20 1075 -21 hstem
          23 268 vstem
          291 414 rmoveto
          4 callsubr
          endchar
        </CharString>
        <CharString name="afii10077">
          -33 -4 229 849 -20 hstem
          790 262 vstem
          1052 hmoveto
          0 1074 -556 -1 -98 -737 -42 -87 rlineto
          -21 -16 -24 -8 -29 0 -17 0 -18 5 -17 8 -17 8 -13 10 -8 11 rrcurveto
          -170 -172 rlineto
          35 -39 36 -27 38 -13 38 -13 46 -7 55 0 63 0 62 19 60 37 60 37 48 49 37 62 24 40 19 65 13 88 rrcurveto
          64 441 70 0 0 -834 rlineto
          endchar
        </CharString>
        <CharString name="afii10078">
          211 21 -21 1077 -20 hstem
          63 268 667 269 vstem
          63 hmoveto
          268 731 hlineto
          232 -731 200 0 235 739 0 -739 269 0 0 1077 -341 0 -264 -763 -258 763 -341 0 rlineto
          endchar
        </CharString>
        <CharString name="afii10079">
          2 21 -21 426 239 409 -20 hstem
          115 268 362 269 vstem
          119 1074 rmoveto
          77 callsubr
          endchar
        </CharString>
        <CharString name="afii10080">
          -14 -29 235 660 234 hstem
          92 252 444 248 vstem
          344 537 rmoveto
          59 callsubr
          -252 hmoveto
          60 callsubr
          endchar
        </CharString>
        <CharString name="afii10081">
          351 21 -21 834 239 hstem
          119 267 287 269 vstem
          119 1073 rmoveto
          -1074 267 vlineto
          1 835 286 0 0 -834 269 0 0 1074 rlineto
          endchar
        </CharString>
        <CharString name="afii10082">
          13 -405 -21 398 234 660 234 -27 -20 hstemhm
          119 258 426 260 hintmask 11101100
          377 -426 rmoveto
          583 vlineto
          35 -55 46 -44 56 -34 56 -34 57 -18 57 0 63 0 57 14 49 30 49 30 40 40 30 52 30 52 23 60 15 66 15 66 8 72 0 78 rrcurveto
          0 78 -8 73 -15 67 -15 67 -22 60 -30 53 -30 53 -40 41 -49 30 -49 30 -57 16 -64 0 -58 0 -57 -16 -56 -34 -56 -34 -45 -44 -35 -55 rrcurveto
          hintmask 11011100
          -39 callsubr
          684 963 rmoveto
          0 -53 -6 -48 -13 -44 -13 -44 -18 -35 -21 -26 -21 -26 -23 -20 -24 -14 -24 -14 -25 -7 -24 0 -26 0 -25 5 -25 11 -25 11 -23 18 -23 24 rrcurveto
          -23 24 -17 34 -14 45 -14 45 -7 53 0 61 0 60 7 52 14 45 14 45 17 35 23 24 23 24 23 17 25 11 rrcurveto
          hintmask 11101100
          25 11 25 5 26 0 26 0 25 -6 24 -12 24 -12 22 -17 21 -25 21 -25 17 -34 13 -44 13 -44 6 -51 0 -59 rrcurveto
          endchar
        </CharString>
        <CharString name="afii10083">
          -72 -29 232 667 230 hstem
          86 262 vstem
          766 756 rmoveto
          61 callsubr
          endchar
        </CharString>
        <CharString name="afii10084">
          2 21 -21 835 239 hstem
          429 268 vstem
          119 1074 rmoveto
          0 -239 310 -1 0 -834 268 0 0 834 321 1 0 239 rlineto
          endchar
        </CharString>
        <CharString name="afii10085">
          -13 -465 232 204 235 867 -20 hstem
          108 258 378 259 vstem
          1003 -29 rmoveto
          78 callsubr
          endchar
        </CharString>
        <CharString name="afii10086">
          9 1454 -20 hstem
          92 252 97 243 104 248 vstem
          92 537 rmoveto
          64 callsubr
          349 291 rmoveto
          65 callsubr
          243 5 rmoveto
          66 callsubr
          endchar
        </CharString>
        <CharString name="afii10087">
          -65 21 -21 1073 -20 hstem
          1021 hmoveto
          -27 callsubr
          endchar
        </CharString>
        <CharString name="afii10088">
          203 0 239 835 -20 hstem
          119 268 362 268 1 240 vstem
          1258 -228 rmoveto
          468 -241 834 -269 vlineto
          1 -835 -362 0 -1 835 -265 0 -2 -1074 899 0 0 -228 rlineto
          endchar
        </CharString>
        <CharString name="afii10089">
          2 21 -21 265 176 632 -20 hstem
          128 241 333 240 vstem
          702 1073 rmoveto
          -384 vlineto
          0 -40 -4 -34 -6 -30 -6 -30 -7 -24 -8 -18 -8 -18 -11 -14 -16 -11 -16 -11 -17 -8 -16 -4 -16 -4 -19 -2 -21 0 -21 0 -19 2 -15 4 rrcurveto
          -15 4 -15 7 -14 11 -14 11 -11 14 -9 18 -9 18 -8 24 -5 30 -5 30 -2 34 0 40 rrcurveto
          0 82 0 303 -241 0 0 -299 0 -184 rlineto
          0 -51 8 -47 17 -42 17 -42 24 -35 31 -26 31 -26 32 -21 33 -14 33 -14 32 -7 33 0 62 0 56 13 50 27 50 27 38 34 27 41 rrcurveto
          -407 240 1073 vlineto
          endchar
        </CharString>
        <CharString name="afii10090">
          451 0 240 836 -21 hstem
          119 268 258 270 286 269 vstem
          647 1075 rmoveto
          -2 -834 hlineto
          -258 -2 -1 835 -267 0 0 -1074 1351 0 0 1074 -269 0 0 -834 -286 0 0 835 rlineto
          endchar
        </CharString>
        <CharString name="afii10091">
          691 0 240 836 -21 hstemhm
          119 268 258 270 286 269 0 240 hintmask 11110100
          647 1075 rmoveto
          -2 -834 hlineto
          -258 -2 -1 835 -267 0 0 -1074 1351 0 0 -228 240 0 0 468 -240 -1 rlineto
          hintmask 11111000
          835 -269 -834 -286 835 vlineto
          endchar
        </CharString>
        <CharString name="afii10092">
          67 0 178 295 176 185 240 hstem
          231 263 372 260 vstem
          494 473 rmoveto
          79 callsubr
          -466 896 rmoveto
          -240 203 -834 511 vlineto
          63 0 55 7 48 16 48 16 37 19 27 23 27 23 21 27 17 31 17 31 11 28 5 26 5 26 3 26 0 26 0 31 -7 32 -14 35 rrcurveto
          -14 35 -25 35 -34 35 -34 35 -46 28 -58 20 -68 24 -95 13 -120 1 rrcurveto
          -117 185 hlineto
          240 vlineto
          endchar
        </CharString>
        <CharString name="afii10093">
          79 0 178 295 176 425 -21 hstem
          52 263 255 260 70 258 vstem
          900 1073 rmoveto
          -50 callsubr
          -843 -600 rmoveto
          86 hlineto
          113 56 -47 -95 hvcurveto
          0 -44 -16 -37 -32 -29 -32 -29 -41 -14 -48 0 rrcurveto
          -86 hlineto
          -263 896 rmoveto
          -1074 394 vlineto
          63 0 55 7 48 16 48 16 37 19 27 23 27 23 21 27 17 31 17 31 11 28 5 26 5 26 3 26 0 26 0 31 -7 32 -14 35 rrcurveto
          -14 35 -25 35 -34 35 -34 35 -46 28 -57 20 -68 24 -82 13 -92 1 rrcurveto
          -42 425 hlineto
          endchar
        </CharString>
        <CharString name="afii10094">
          -112 0 178 295 176 425 -20 hstem
          52 263 372 260 vstem
          315 473 rmoveto
          79 callsubr
          -263 896 rmoveto
          -1074 511 vlineto
          63 0 55 7 48 16 48 16 37 19 27 23 27 23 21 27 17 31 17 31 11 28 5 26 5 26 3 26 0 26 0 31 -7 32 -14 35 rrcurveto
          -14 35 -25 35 -34 35 -34 35 -47 28 -57 20 -68 24 -94 13 -121 1 rrcurveto
          -117 425 hlineto
          endchar
        </CharString>
        <CharString name="afii10095">
          -72 -29 232 223 240 204 230 hstem
          357 622 vstem
          299 756 rmoveto
          43 76 60 38 77 0 66 0 57 -32 46 -64 23 -32 17 -36 12 -40 rrcurveto
          -343 -240 349 hlineto
          -12 -51 -22 -44 -30 -37 -50 -61 -60 -30 -73 0 -25 0 -22 3 -18 7 -18 7 -14 8 -10 11 -10 11 -10 12 -8 13 -8 13 -7 14 -6 13 rrcurveto
          -214 -111 rlineto
          18 -30 21 -28 24 -27 24 -27 27 -24 31 -23 31 -23 35 -18 39 -13 39 -13 40 -7 41 0 159 0 126 51 94 102 94 102 47 136 0 170 rrcurveto
          0 168 -47 137 -94 105 -94 105 -120 53 -145 0 -77 0 -75 -22 -73 -42 -73 -42 -56 -56 -39 -70 rrcurveto
          endchar
        </CharString>
        <CharString name="afii10096">
          428 -21 179 -137 -21 493 177 254 179 -26 -20 hstemhm
          139 253 136 250 445 251 hintmask 01100111
          139 hmoveto
          253 493 136 hlineto
          6 -87 18 -78 29 -70 37 -87 54 -67 72 -50 rrcurveto
          hintmask 10110111
          72 -50 86 -25 98 0 rrcurveto
          1 hlineto
          98 0 85 25 72 50 72 50 54 68 37 87 37 87 18 100 0 113 0 171 -41 134 -81 95 -81 95 -115 49 -150 0 -150 0 -118 -48 -85 -96 rrcurveto
          -65 -74 -40 -97 -15 -118 rrcurveto
          -141 hlineto
          hintmask 01101111
          407 -253 vlineto
          639 -518 rmoveto
          0 133 16 94 32 55 rrcurveto
          hintmask 10110111
          32 55 61 28 87 0 86 0 58 -27 29 -54 29 -54 15 -95 0 -135 0 -68 -3 -57 -7 -47 -7 -47 -12 -41 -16 -36 -16 -36 -23 -26 -29 -17 rrcurveto
          -29 -17 -37 -9 -44 0 -35 0 -31 6 -26 12 -26 12 -21 16 -17 21 -17 21 -12 27 -10 34 -10 34 -7 37 -4 40 -4 40 -2 47 0 54 rrcurveto
          endchar
        </CharString>
        <CharString name="afii10097">
          -112 21 -21 425 176 295 178 hstem
          52 260 372 262 vstem
          946 hmoveto
          1 1074 -511 0 rlineto
          -63 0 -55 -8 -48 -16 -48 -16 -37 -18 -27 -23 -27 -23 -21 -27 -17 -31 -17 -31 -11 -28 -5 -26 -5 -26 -3 -26 0 -26 0 -31 7 -33 14 -35 rrcurveto
          14 -35 25 -34 34 -35 34 -35 45 -28 58 -20 12 -4 14 -4 14 -4 rrcurveto
          -269 -451 306 0 227 425 97 0 0 -425 rlineto
          601 vmoveto
          -161 hlineto
          -141 -70 47 95 hvcurveto
          0 44 16 37 32 29 32 29 55 14 76 0 rrcurveto
          161 hlineto
          endchar
        </CharString>
        <CharString name="afii10099">
          2 21 -21 867 235 352 -20 hstem
          119 258 379 258 vstem
          377 hmoveto
          536 vlineto
          0 53 4 47 7 40 7 40 9 31 12 24 12 24 14 19 18 15 18 15 18 10 18 5 18 5 21 3 23 0 23 0 20 -3 17 -5 rrcurveto
          17 -5 17 -10 16 -14 16 -14 12 -20 10 -24 10 -24 8 -32 6 -39 6 -39 2 -47 0 -54 rrcurveto
          -537 258 668 vlineto
          0 68 -9 62 -19 57 -19 57 -26 45 -31 35 -31 35 -33 28 -36 19 -36 19 -37 9 -37 0 -69 0 -63 -18 -58 -36 -58 -36 -45 -45 -30 -55 rrcurveto
          542 -258 -1454 vlineto
          endchar
        </CharString>
        <CharString name="afii10100">
          -5 0 21 814 239 106 417 hstemhm
          119 258 0 446 hintmask 11010000
          119 1074 rmoveto
          73 callsubr
          hintmask 00101000
          -520 111 rmoveto
          -12 callsubr
          endchar
        </CharString>
        <CharString name="afii10101">
          -72 -29 232 223 240 204 230 hstem
          86 622 vstem
          766 756 rmoveto
          213 112 rlineto
          -39 70 -55 56 -73 42 -73 42 -76 22 -77 0 -145 0 -120 -53 -94 -105 -94 -105 -47 -137 0 -168 0 -170 46 -136 94 -102 94 -102 127 -51 159 0 rrcurveto
          41 0 40 7 39 13 39 13 34 18 31 23 31 23 28 24 24 27 24 27 21 28 18 30 rrcurveto
          -214 111 rlineto
          -6 -13 -8 -14 -8 -13 -8 -13 -8 -12 -10 -11 -10 -11 -14 -8 -18 -7 -18 -7 -23 -3 -25 0 -73 0 -61 30 -50 61 -30 37 -21 44 -12 51 rrcurveto
          349 240 -343 hlineto
          12 40 18 36 23 32 46 64 56 32 66 0 77 0 60 -38 43 -76 rrcurveto
          endchar
        </CharString>
        <CharString name="afii10102">
          -161 -29 230 669 230 hstem
          124 248 265 248 vstem
          342 491 rmoveto
          22 -12 28 -13 32 -14 32 -14 28 -10 22 -10 22 -10 22 -11 22 -12 22 -12 15 -14 11 -15 11 -15 6 -16 0 -18 0 -16 -3 -14 -6 -12 rrcurveto
          -6 -12 -7 -9 -9 -6 -9 -6 -11 -6 -14 -4 -14 -4 -15 -3 -13 -1 -13 -1 -16 0 -18 0 -43 0 -37 11 -33 23 -33 23 -20 31 -7 40 rrcurveto
          -232 -39 rlineto
          21 -98 46 -78 71 -57 71 -57 90 -29 108 0 71 0 67 12 61 25 61 25 48 36 37 46 37 46 18 52 0 57 0 84 -18 67 -35 51 rrcurveto
          -35 51 -55 44 -77 37 -28 13 -31 14 -34 13 -34 13 -27 11 -21 8 -21 8 -21 8 -20 10 -20 10 -13 12 -9 13 -9 13 -5 15 0 18 rrcurveto
          0 18 4 15 6 12 6 12 9 8 13 6 13 6 13 4 14 2 14 2 15 2 19 0 39 0 31 -8 22 -16 22 -16 15 -29 7 -43 rrcurveto
          240 43 rlineto
          -6 37 -13 35 -19 35 -19 35 -26 32 -31 29 -31 29 -39 23 -46 18 -46 18 -50 8 -54 0 -113 0 -90 -26 -67 -52 -67 -52 -33 -71 0 -89 rrcurveto
          0 -37 4 -33 6 -28 6 -28 8 -26 11 -20 11 -20 14 -19 20 -18 20 -18 20 -15 20 -12 20 -12 25 -16 33 -17 rrcurveto
          endchar
        </CharString>
        <CharString name="afii10103">
          -585 21 -21 1073 -20 121 320 hstemhm
          121 294 -276 258 hintmask 11110000
          121 1334 rmoveto
          80 callsubr
          hintmask 11101000
          18 -261 rmoveto
          -50 callsubr
          endchar
        </CharString>
        <CharString name="afii10104">
          -585 21 -21 1073 -20 114 328 hstemhm
          -133 328 -56 258 -59 328 hintmask 11110000
          -133 1331 rmoveto
          67 callsubr
          hintmask 11100100
          471 hmoveto
          67 callsubr
          hintmask 11101000
          -199 -258 rmoveto
          -50 callsubr
          endchar
        </CharString>
        <CharString name="afii10105">
          -585 -432 229 1276 -20 121 320 hstemhm
          121 294 -276 258 hintmask 11110000
          121 1334 rmoveto
          80 callsubr
          -357 -1667 rmoveto
          35 -39 35 -27 38 -13 38 -13 47 -7 55 0 63 0 61 19 60 37 60 37 49 49 37 62 rrcurveto
          hintmask 11101000
          37 62 18 64 0 67 rrcurveto
          1108 -258 -1165 vlineto
          0 -32 -11 -27 -22 -21 -22 -21 -28 -10 -33 0 -17 0 -18 5 -17 8 -17 8 -13 10 -8 11 rrcurveto
          endchar
        </CharString>
        <CharString name="afii10106">
          471 -4 229 -225 178 295 176 424 -20 hstemhm
          790 262 256 260 hintmask 01111100
          1052 473 rmoveto
          87 hlineto
          113 56 -47 -95 hvcurveto
          0 -44 -17 -37 -32 -29 -32 -29 -40 -14 -48 0 rrcurveto
          -87 hlineto
          -556 895 rmoveto
          -98 -737 -42 -87 rlineto
          hintmask 10111100
          -21 -16 -24 -8 -29 0 -17 0 -18 5 -17 8 -17 8 -13 10 -8 11 rrcurveto
          -170 -172 rlineto
          35 -39 36 -27 38 -13 38 -13 46 -7 55 0 63 0 62 19 60 37 60 37 48 49 37 62 24 40 19 65 13 88 rrcurveto
          64 441 70 0 rlineto
          hintmask 01111100
          -834 393 vlineto
          63 0 56 7 48 16 48 16 37 19 27 23 27 23 21 27 17 31 17 31 11 28 5 26 5 26 3 26 0 26 0 31 -8 32 -14 35 rrcurveto
          -14 35 -25 35 -34 35 -34 35 -46 28 -57 20 -69 24 -80 13 -92 1 rrcurveto
          -43 424 hlineto
          endchar
        </CharString>
        <CharString name="afii10107">
          2 21 -21 426 239 409 -20 hstem
          115 268 362 269 vstem
          119 1074 rmoveto
          77 callsubr
          endchar
        </CharString>
        <CharString name="afii10108">
          2 21 -21 867 235 112 240 hstem
          119 258 379 258 vstem
          377 hmoveto
          536 vlineto
          0 53 4 47 7 40 7 40 9 31 12 24 12 24 14 19 18 15 18 15 18 10 18 5 18 5 21 3 23 0 23 0 20 -3 17 -5 rrcurveto
          17 -5 17 -10 16 -14 16 -14 12 -20 10 -24 10 -24 8 -32 6 -39 6 -39 2 -47 0 -54 rrcurveto
          -537 258 668 vlineto
          0 68 -9 62 -19 57 -19 57 -26 45 -31 35 -31 35 -33 28 -36 19 -36 19 -37 9 -37 0 -69 0 -63 -18 -58 -36 -58 -36 -45 -45 -30 -55 rrcurveto
          302 351 240 -722 -240 113 -1214 vlineto
          endchar
        </CharString>
        <CharString name="afii10109">
          -90 0 20 1034 19 106 417 hstem
          23 268 25 446 vstem
          291 414 rmoveto
          4 callsubr
          142 1185 rmoveto
          -12 callsubr
          endchar
        </CharString>
        <CharString name="afii10110">
          -13 -465 232 204 235 847 20 98 236 hstem
          108 258 378 259 vstem
          1003 -29 rmoveto
          78 callsubr
          -380 1452 rmoveto
          -4 callsubr
          endchar
        </CharString>
        <CharString name="afii10145">
          119 0 239 1217 -20 hstem
          116 268 120 240 124 270 vstem
          504 -240 rmoveto
          240 240 394 1456 -270 -1217 -484 1217 -268 -1456 388 hlineto
          endchar
        </CharString>
        <CharString name="afii10193">
          -77 1076 -21 hstem
          119 268 24 240 22 269 vstem
          411 -240 rmoveto
          240 240 hlineto
          291 1 0 1073 -269 0 0 -834 -286 0 -1 835 -267 0 0 -1074 292 0 rlineto
          endchar
        </CharString>
        <CharString name="afii57636">
          209 0 240 978 240 hstem
          25 268 62 274 70 275 61 269 vstem
          974 1031 rmoveto
          0 97 -33 85 -66 72 -107 115 -159 58 -215 0 rrcurveto
          -101 0 -268 0 0 -1458 268 0 0 1218 101 0 30 0 rlineto
          10 0 9 -1 10 -1 164 -12 82 -62 0 -111 rrcurveto
          -346 275 vlineto
          -619 -259 rmoveto
          0 -98 32 -85 66 -71 107 -115 160 -57 215 0 rrcurveto
          100 0 269 0 0 1458 -269 0 0 -1218 -100 0 -31 0 rlineto
          -10 0 -9 1 -10 1 -164 12 -82 61 0 111 rrcurveto
          341 -274 vlineto
          endchar
        </CharString>
        <CharString name="afii61352">
          627 21 -21 426 240 219 158 289 157 -33 -20 hstemhm
          119 268 300 269 168 166 182 164 hintmask 1110011110000000
          1064 666 rmoveto
          -240 612 240 vlineto
          -386 522 rmoveto
          0 52 7 37 16 22 rrcurveto
          hintmask 1111011110000000
          16 22 22 11 29 0 29 0 23 -11 16 -22 16 -22 8 -37 0 -52 0 -52 -8 -38 -16 -22 -16 -22 -23 -11 -29 0 -29 0 -22 11 -16 22 rrcurveto
          -16 22 -7 38 0 52 rrcurveto
          -99 219 rmoveto
          -45 -55 -22 -73 0 -91 0 -93 22 -73 45 -55 45 -55 62 -27 82 0 81 0 64 28 44 55 44 55 23 73 0 92 0 92 -23 73 -44 55 rrcurveto
          -44 55 -64 26 -81 0 -81 0 -63 -27 -45 -55 rrcurveto
          -1072 -1407 rmoveto
          268 973 hlineto
          304 -973 265 0 rlineto
          hintmask 1110111110000000
          1456 -269 -940 vlineto
          -308 940 -260 0 rlineto
          endchar
        </CharString>
        <CharString name="agrave">
          -83 -29 220 -191 21 503 217 156 205 78 417 hstemhm
          90 242 -99 446 42 257 hintmask 10110101
          535 524 rmoveto
          -66 callsubr
          -85 217 rmoveto
          -65 callsubr
          hintmask 01110101
          -64 callsubr
          hintmask 00001010
          112 444 rmoveto
          -67 callsubr
          endchar
        </CharString>
        <CharString name="alpha">
          208 -32 235 -196 -21 878 234 -25 -20 hstemhm
          91 252 378 258 hintmask 10101100
          343 534 rmoveto
          49 callsubr
          881 428 rmoveto
          -24 27 -36 26 -48 26 rrcurveto
          hintmask 00011100
          50 callsubr
          hintmask 10101100
          51 callsubr
          hintmask 01011100
          52 callsubr
          endchar
        </CharString>
        <CharString name="alphatonos">
          208 -32 235 -217 21 857 234 -45 20 94 432 hstemhm
          91 252 122 276 -20 258 hintmask 10100101
          343 534 rmoveto
          49 callsubr
          881 428 rmoveto
          -24 27 -36 26 -48 26 rrcurveto
          hintmask 00010101
          50 callsubr
          hintmask 10100101
          51 callsubr
          hintmask 01010101
          52 callsubr
          hintmask 00001010
          -409 402 rmoveto
          19 callsubr
          endchar
        </CharString>
        <CharString name="amacron">
          -39 -29 220 -191 21 503 217 156 205 187 127 hstemhm
          90 242 389 257 hintmask 00001000
          150 1416 rmoveto
          -19 callsubr
          hintmask 10110110
          -387 -892 rmoveto
          -66 callsubr
          -85 217 rmoveto
          -65 callsubr
          hintmask 01110110
          -64 callsubr
          endchar
        </CharString>
        <CharString name="ampersand">
          165 -53 241 170 217 132 239 332 242 hstemhm
          59 261 -214 269 hintmask 11110100
          711 1167 rmoveto
          211 107 rlineto
          -58 136 -126 110 -195 0 -240 0 -197 -156 0 -246 0 -166 123 -96 69 -28 rrcurveto
          hintmask 11111000
          -73 -33 -166 -94 0 -310 rrcurveto
          -258 228 -186 264 334 141 250 163 vhcurveto
          158 215 -586 -217 174 hlineto
          -86 -63 -84 -158 -137 -94 109 131 157 98 122 143 vhcurveto
          166 239 -170 hlineto
          hintmask 11110100
          -101 -81 59 113 109 84 51 82 hvcurveto
          86 0 61 -64 23 -47 rrcurveto
          endchar
        </CharString>
        <CharString name="aogonek">
          -39 -344 439 -124 220 -191 21 503 217 156 205 hstemhm
          90 242 370 227 -208 257 hintmask 10000010
          1060 -217 rmoveto
          -3 callsubr
          hintmask 01011101
          -412 868 rmoveto
          -66 callsubr
          -85 217 rmoveto
          -65 callsubr
          hintmask 00111101
          -64 callsubr
          endchar
        </CharString>
        <CharString name="approxequal">
          -360 92 247 -95 247 21 247 -95 247 hstemhm
          53 637 hintmask 01001000
          53 388 rmoveto
          117 callsubr
          hintmask 10001000
          118 callsubr
          hintmask 01001000
          119 callsubr
          420 vmoveto
          -241 vlineto
          9 7 14 11 19 15 19 15 14 12 10 7 10 7 15 6 17 7 rrcurveto
          hintmask 00011000
          17 7 18 3 18 0 18 0 21 -8 23 -16 23 -16 22 -17 20 -19 20 -19 24 -17 28 -16 rrcurveto
          hintmask 00101000
          118 callsubr
          hintmask 00011000
          -19 10 -19 5 -18 0 -15 0 -15 -3 -14 -4 -14 -4 -14 -7 -14 -9 -14 -9 -11 -7 -9 -7 -9 -7 -13 -9 -14 -13 -14 -13 -9 -8 -4 -3 rrcurveto
          endchar
        </CharString>
        <CharString name="aring">
          -83 -29 220 -191 21 503 217 156 205 12 162 300 162 hstemhm
          90 242 -114 173 289 173 -132 257 hintmask 0000110110000000
          391 1426 rmoveto
          -18 callsubr
          -173 hmoveto
          -17 callsubr
          hintmask 1011001001000000
          317 -902 rmoveto
          -66 callsubr
          -85 217 rmoveto
          -65 callsubr
          hintmask 0111001001000000
          -64 callsubr
          endchar
        </CharString>
        <CharString name="arrowboth">
          366 228 hstem
          381 366 rmoveto
          912 0 -109 -327 441 441 -441 441 109 -327 -912 0 109 327 -441 -441 441 -441 rlineto
          endchar
        </CharString>
        <CharString name="arrowdown">
          -107 1484 -20 hstem
          392 228 vstem
          392 263 rmoveto
          -325 109 439 -443 439 443 -325 -109 0 1221 -228 0 rlineto
          endchar
        </CharString>
        <CharString name="arrowleft">
          366 228 hstem
          490 39 rmoveto
          -109 327 1223 0 0 228 -1223 0 109 327 -441 -441 rlineto
          endchar
        </CharString>
        <CharString name="arrowright">
          366 228 hstem
          1293 366 rmoveto
          -109 -327 441 441 -441 441 109 -327 -1223 0 0 -228 rlineto
          endchar
        </CharString>
        <CharString name="arrowup">
          -107 392 228 vstem
          65 1064 rmoveto
          327 109 0 -1223 228 0 0 1223 327 -109 -441 441 rlineto
          endchar
        </CharString>
        <CharString name="arrowupdn">
          -107 392 228 vstem
          620 263 rmoveto
          0 910 327 -109 -441 441 -441 -441 327 109 0 -910 -325 109 439 -443 439 443 rlineto
          endchar
        </CharString>
        <CharString name="arrowupdnbse">
          -107 -50 200 hstem
          392 228 vstem
          620 425 rmoveto
          0 748 327 -109 -441 441 -441 -441 327 109 0 -748 -325 109 380 -384 -377 0 0 -200 864 0 0 200 -369 0 380 384 rlineto
          endchar
        </CharString>
        <CharString name="asciicircum">
          -38 1148 344 hstem
          926 1148 rmoveto
          -68 callsubr
          endchar
        </CharString>
        <CharString name="asciitilde">
          -360 512 247 -95 247 hstemhm
          53 637 hintmask 01100000
          53 808 rmoveto
          -24 callsubr
          hintmask 10100000
          -23 callsubr
          hintmask 01100000
          -22 callsubr
          endchar
        </CharString>
        <CharString name="asterisk">
          53 604 231 hstem
          763 821 rmoveto
          134 207 rlineto
          4 6 3 6 2 6 1 4 0 4 0 4 0 35 -45 43 -25 15 -2 1 -1 0 -1 1 -16 9 -30 9 -28 0 -26 0 -24 -7 -12 -21 rrcurveto
          -110 -218 -112 219 rlineto
          -3 6 -4 6 -4 4 -10 11 -15 4 -18 0 -30 0 -35 -12 -17 -10 -2 -1 -1 -1 -1 0 -25 -15 -41 -44 0 -39 0 -8 2 -9 4 -8 rrcurveto
          136 -206 -248 13 rlineto
          -7 0 -7 0 -6 -2 -38 -8 -18 -72 0 -32 rrcurveto
          -4 vlineto
          -36 26 -77 50 vhcurveto
          243 14 -133 -205 rlineto
          -4 -6 -3 -6 -1 -7 -2 -3 0 -4 0 -4 0 -35 46 -44 25 -14 1 -1 1 -1 1 0 16 -9 30 -9 29 0 25 0 24 7 12 20 rrcurveto
          110 219 112 -220 rlineto
          3 -6 4 -6 5 -4 9 -10 16 -4 17 0 30 0 35 12 18 10 1 1 1 0 1 1 26 14 40 44 0 39 0 9 -2 8 -4 8 rrcurveto
          -134 205 246 -13 rlineto
          7 0 7 0 6 2 38 8 18 72 0 32 rrcurveto
          4 vlineto
          36 -26 77 -50 vhcurveto
          endchar
        </CharString>
        <CharString name="at">
          618 -33 166 213 203 -176 219 313 189 229 172 hstemhm
          79 200 193 219 354 213 195 207 hintmask 1011111110000000
          1224 260 rmoveto
          -70 -61 -139 -66 -140 0 rrcurveto
          -327 -269 267 329 327 269 267 327 326 252 -255 -308 -95 -49 -73 -53 -51 -42 82 72 182 -160 166 -223 -222 -181 -164 -199 hvcurveto
          hintmask 1101111110000000
          -212 181 -173 222 vhcurveto
          112 0 104 42 62 112 rrcurveto
          hintmask 1011111110000000
          50 -88 83 -39 69 0 rrcurveto
          153 152 169 218 414 -345 321 -440 -442 -354 -334 -430 -431 354 -333 442 hvcurveto
          201 0 130 54 130 92 rrcurveto
          -645 618 rmoveto
          110 89 64 95 88 82 -65 -95 vhcurveto
          hintmask 1101111110000000
          -106 -64 -90 -106 -99 -85 76 106 vhcurveto
          endchar
        </CharString>
        <CharString name="atilde">
          -83 -29 220 -191 21 503 217 156 205 41 247 -95 247 hstemhm
          90 242 -80 637 -168 257 hintmask 0000010100000000
          252 1439 rmoveto
          -24 callsubr
          hintmask 0000100100000000
          -23 callsubr
          hintmask 0000010100000000
          -22 callsubr
          hintmask 1011001010000000
          283 -915 rmoveto
          -66 callsubr
          -85 217 rmoveto
          -65 callsubr
          hintmask 0111001010000000
          -64 callsubr
          endchar
        </CharString>
        <CharString name="b">
          3 -28 234 -185 -21 866 234 354 -20 hstemhm
          119 258 426 260 hintmask 01111100
          377 hmoveto
          157 vlineto
          hintmask 10111100
          -63 callsubr
          hintmask 01111100
          -1454 vlineto
          684 537 rmoveto
          hintmask 10111100
          -62 callsubr
          endchar
        </CharString>
        <CharString name="backslash">
          -263 21 -21 hstem
          585 hmoveto
          310 0 -642 1543 -292 0 rlineto
          endchar
        </CharString>
        <CharString name="bar">
          -651 21 -21 1454 -20 hstem
          115 243 vstem
          115 hmoveto
          243 1454 -243 hlineto
          endchar
        </CharString>
        <CharString name="bdotaccent">
          3 -28 234 -206 21 845 234 334 20 139 328 hstemhm
          119 258 47 328 51 260 hintmask 01110101
          377 hmoveto
          157 vlineto
          hintmask 10110101
          -63 callsubr
          hintmask 01110101
          -1454 vlineto
          684 537 rmoveto
          hintmask 10110101
          -62 callsubr
          hintmask 00001010
          -379 1220 rmoveto
          -20 callsubr
          endchar
        </CharString>
        <CharString name="beta">
          142 -29 224 454 195 450 234 hstemhm
          88 246 -246 235 525 254 -195 251 hintmask 11101000
          159 1260 rmoveto
          -18 -35 -14 -62 -9 -89 -9 -89 -6 -98 -2 -107 -2 -107 -1 -173 -1 -238 -1 -238 -3 -162 -5 -86 -5 -86 -9 -57 -12 -29 rrcurveto
          233 hlineto
          13 35 9 75 6 116 rrcurveto
          hintmask 11110100
          6 116 4 184 1 252 1 252 5 182 7 112 7 112 11 71 14 29 23 49 33 38 42 27 42 27 56 13 70 0 68 0 51 -18 34 -36 rrcurveto
          34 -36 16 -55 0 -76 0 -44 -10 -37 -20 -32 -20 -32 -27 -24 -33 -16 -33 -16 -33 -11 -33 -7 -33 -7 -35 -3 -36 0 -16 -129 -8 -65 -1 0 rrcurveto
          -1 0 11 -1 21 0 111 0 88 -24 67 -49 rrcurveto
          hintmask 11100010
          67 -49 33 -59 0 -69 0 -48 -15 -40 -29 -31 -29 -31 -38 -22 -45 -13 -45 -13 -53 -6 -60 0 -31 0 -27 10 -22 21 rrcurveto
          -98 -203 rlineto
          33 -35 68 -17 102 0 166 0 131 36 97 73 97 73 49 106 0 140 0 48 -8 47 -17 46 -17 46 -20 38 -24 31 -24 31 -25 25 -25 20 rrcurveto
          -25 20 -21 12 -19 4 43 15 39 33 35 51 rrcurveto
          hintmask 11101100
          35 51 17 69 0 87 0 134 -42 109 -83 85 -83 85 -111 42 -138 0 rrcurveto
          -231 0 -162 -89 -93 -179 rrcurveto
          endchar
        </CharString>
        <CharString name="braceleft">
          -372 -102 213 1237 213 hstem
          80 565 vstem
          80 729 rmoveto
          248 -80 -90 -518 61 -117 61 -115 128 2 157 -3 rrcurveto
          213 vlineto
          -110 -48 30 121 hvcurveto
          0 154 -12 262 -121 51 121 53 12 260 0 154 rrcurveto
          121 48 31 110 vhcurveto
          213 vlineto
          -157 -4 -128 2 -61 -115 -61 -117 90 -516 -248 -82 rrcurveto
          endchar
        </CharString>
        <CharString name="braceright">
          -372 -102 213 1237 213 hstem
          121 565 vstem
          686 729 rmoveto
          -248 82 90 516 -61 117 -61 115 -128 -2 -157 4 rrcurveto
          -213 vlineto
          110 48 -31 -121 hvcurveto
          0 -154 12 -260 121 -53 -121 -51 -12 -262 0 -154 rrcurveto
          -121 -48 -30 -110 vhcurveto
          -213 vlineto
          157 3 128 -2 61 115 61 117 -90 518 248 80 rrcurveto
          endchar
        </CharString>
        <CharString name="bracketleft">
          -376 -98 237 1153 240 hstemhm
          121 502 -502 254 hintmask 11100000
          623 -98 rmoveto
          237 vlineto
          hintmask 11010000
          -248 1153 hlineto
          hintmask 11100000
          248 240 -502 -1630 hlineto
          endchar
        </CharString>
        <CharString name="bracketright">
          -376 -98 239 1151 240 hstemhm
          119 500 -254 254 hintmask 11100000
          119 -98 rmoveto
          500 1630 -500 -240 hlineto
          hintmask 11010000
          246 -1151 hlineto
          hintmask 11100000
          -246 hlineto
          endchar
        </CharString>
        <CharString name="breve">
          95 1516 236 hstem
          793 1768 rmoveto
          -4 callsubr
          endchar
        </CharString>
        <CharString name="brokenbar">
          -714 21 -21 hstem
          80 244 vstem
          324 666 rmoveto
          -244 -666 244 hlineto
          -244 768 rmoveto
          244 666 -244 hlineto
          endchar
        </CharString>
        <CharString name="bullet">
          -295 303 626 hstem
          98 636 vstem
          98 615 rmoveto
          0 -71 22 -64 44 -56 63 -81 84 -40 105 0 71 0 65 22 57 42 83 62 42 82 0 104 0 71 -22 64 -44 56 -63 82 -84 41 -105 0 rrcurveto
          -72 0 -65 -22 -56 -42 -83 -63 -42 -83 0 -104 rrcurveto
          endchar
        </CharString>
        <CharString name="c">
          -72 -29 232 667 230 hstem
          86 262 vstem
          766 756 rmoveto
          -61 callsubr
          endchar
        </CharString>
        <CharString name="cacute">
          -72 -29 232 667 230 78 417 hstem
          86 262 114 446 vstem
          579 1183 rmoveto
          -12 callsubr
          187 -427 rmoveto
          -61 callsubr
          endchar
        </CharString>
        <CharString name="caron">
          228 1562 344 hstem
          1121 1906 rmoveto
          -2 callsubr
          endchar
        </CharString>
        <CharString name="carriagereturn">
          142 228 1112 -20 hstem
          1238 228 vstem
          1238 1482 rmoveto
          -1112 -857 vlineto
          109 327 -441 -441 441 -441 -109 327 1085 0 0 1340 rlineto
          endchar
        </CharString>
        <CharString name="ccaron">
          -72 -29 232 667 230 44 344 hstem
          86 262 vstem
          997 1488 rmoveto
          -2 callsubr
          53 -388 rmoveto
          -61 callsubr
          endchar
        </CharString>
        <CharString name="ccedilla">
          -272 -469 439 1 232 667 230 hstem
          86 262 98 227 vstem
          315 -342 rmoveto
          -11 callsubr
          451 1098 rmoveto
          -61 callsubr
          endchar
        </CharString>
        <CharString name="ccircumflex">
          -72 -29 232 667 230 44 344 hstem
          86 262 vstem
          979 1144 rmoveto
          -68 callsubr
          58 -388 rmoveto
          -61 callsubr
          endchar
        </CharString>
        <CharString name="cdotaccent">
          -72 -29 232 667 230 85 328 hstem
          86 262 52 328 vstem
          400 1349 rmoveto
          -20 callsubr
          366 -593 rmoveto
          -61 callsubr
          endchar
        </CharString>
        <CharString name="cedilla">
          -591 -365 439 hstem
          188 227 vstem
          57 -238 rmoveto
          -11 callsubr
          endchar
        </CharString>
        <CharString name="cent">
          -235 78 401 281 448 hstemhm
          70 243 -6 230 hintmask 11100000
          313 293 rmoveto
          -215 230 207 vlineto
          66 6 71 49 55 68 rrcurveto
          -161 136 rlineto
          -31 -31 -12 -34 -85 0 rrcurveto
          -86 -47 74 76 67 59 64 76 hvcurveto
          85 0 31 -51 8 0 rrcurveto
          1 0 159 128 rlineto
          hintmask 11010000
          -51 70 -90 59 -54 11 rrcurveto
          231 -230 -232 vlineto
          hintmask 11100000
          -100 -28 -137 -121 0 -196 rrcurveto
          0 -192 110 -124 133 -22 rrcurveto
          endchar
        </CharString>
        <CharString name="chi">
          -265 1073 -20 hstem
          816 -396 rmoveto
          -267 734 267 735 -252 0 -141 -388 -141 388 -252 0 267 -735 -267 -734 252 0 141 388 141 -388 rlineto
          endchar
        </CharString>
        <CharString name="circlemultiply">
          105 421 198 703 198 hstem
          84 199 655 199 vstem
          84 963 rmoveto
          155 callsubr
          385 -311 rmoveto
          135 136 139 -138 rlineto
          -6 -3 -5 -3 -6 -2 -38 -16 -38 -7 -38 0 -38 0 -38 7 -38 14 -10 4 -10 3 -9 5 rrcurveto
          440 169 rmoveto
          -136 136 143 142 rlineto
          15 -42 7 -44 0 -50 0 -52 -10 -47 -19 -43 rrcurveto
          -151 460 rmoveto
          -154 -154 -151 152 rlineto
          14 8 15 7 15 6 38 15 38 7 39 0 34 0 36 -7 36 -15 13 -6 14 -6 13 -7 rrcurveto
          -456 -190 rmoveto
          133 -133 -129 -129 rlineto
          -15 40 -8 45 0 49 0 46 7 43 12 39 rrcurveto
          endchar
        </CharString>
        <CharString name="circleplus">
          105 822 240 hstem
          493 240 vstem
          84 963 rmoveto
          155 callsubr
          225 -141 rmoveto
          184 -180 hlineto
          -36 14 -32 20 -32 26 -33 27 -26 36 -20 45 -2 4 -1 4 -2 4 rrcurveto
          423 -177 rmoveto
          177 178 vlineto
          -1 -1 0 -2 -1 -1 -20 -44 -26 -38 -32 -28 -30 -27 -32 -20 -36 -16 rrcurveto
          195 417 rmoveto
          -194 231 hlineto
          31 -14 29 -19 29 -24 34 -28 28 -38 22 -48 9 -19 7 -20 5 -21 rrcurveto
          -434 236 rmoveto
          -236 -199 vlineto
          5 21 6 19 8 19 20 47 27 38 32 28 31 27 34 22 36 15 rrcurveto
          endchar
        </CharString>
        <CharString name="circumflex">
          228 1562 344 hstem
          1121 1562 rmoveto
          -68 callsubr
          endchar
        </CharString>
        <CharString name="colon">
          -679 -33 328 400 328 hstem
          64 328 vstem
          64 859 rmoveto
          -100 callsubr
          -728 vmoveto
          -100 callsubr
          endchar
        </CharString>
        <CharString name="colonmonetary">
          59 21 -21 1154 191 hstem
          131 228 vstem
          1048 394 rmoveto
          -210 80 rlineto
          -34 -62 -37 -45 -41 -27 rrcurveto
          143 699 168 60 rlineto
          -7 16 -8 17 -11 16 -11 16 -12 17 -12 16 rrcurveto
          -31 31 rlineto
          -10 10 -10 9 -11 8 rrcurveto
          62 291 -133 0 -50 -224 rlineto
          -44 15 -50 8 -57 0 rrcurveto
          -9 0 43 201 -133 0 -49 -218 rlineto
          -75 -19 -65 -34 -53 -49 -113 -107 -57 -159 0 -210 0 -64 5 -60 10 -55 10 -55 14 -52 19 -48 20 -51 26 -44 31 -38 rrcurveto
          -61 -283 152 0 35 176 rlineto
          45 -23 46 -16 48 -8 rrcurveto
          -27 -129 152 0 25 121 rlineto
          165 15 123 91 79 167 rrcurveto
          -300 721 rmoveto
          -174 -793 rlineto
          -38 11 -31 17 -25 25 -14 11 -12 14 -11 16 rrcurveto
          151 734 rlineto
          7 1 8 1 8 1 8 1 9 0 8 0 18 0 18 -4 19 -8 10 -3 9 -3 8 -5 8 -5 8 -6 8 -5 rrcurveto
          -311 -57 rmoveto
          -78 -351 0 43 rlineto
          0 22 1 21 1 19 1 19 2 19 3 19 10 79 23 64 37 46 rrcurveto
          endchar
        </CharString>
        <CharString name="comma">
          -675 -205 503 hstem
          174 208 vstem
          382 137 rmoveto
          -102 callsubr
          endchar
        </CharString>
        <CharString name="congruent">
          -624 578 328 hstem
          93 328 vstem
          93 742 rmoveto
          18 callsubr
          endchar
        </CharString>
        <CharString name="copyright">
          -30 193 185 118 159 189 161 117 176 hstem
          -78 178 116 159 464 165 vstem
          -78 745 rmoveto
          -305 242 -247 299 298 243 247 305 306 -243 247 -298 -299 -242 -247 -306 vhcurveto
          732 -166 rmoveto
          -109 103 rlineto
          -19 -16 -30 -11 -27 0 rrcurveto
          -51 -43 43 52 51 43 43 51 hvcurveto
          27 0 26 -13 19 -16 rrcurveto
          113 117 rlineto
          -45 45 -68 28 -71 0 rrcurveto
          -141 -113 -113 -141 -142 113 -113 141 hvcurveto
          71 0 68 38 45 45 rrcurveto
          -554 171 rmoveto
          205 164 167 205 205 165 -167 -205 -205 -165 -167 -205 -205 -164 167 205 vhcurveto
          endchar
        </CharString>
        <CharString name="currency">
          -132 305 334 -233 249 197 251 -245 334 hstemhm
          53 334 -244 250 197 250 -240 334 hintmask 01100110
          393 752 rmoveto
          60 46 40 55 49 47 -40 -60 -51 -45 -46 -51 vhcurveto
          -51 -50 37 60 hvcurveto
          hintmask 10010001
          207 -328 rmoveto
          -119 334 334 -115 vlineto
          hintmask 00010010
          12 39 9 30 0 42 0 41 -6 24 -11 43 rrcurveto
          hintmask 00011001
          111 334 -334 -108 hlineto
          hintmask 00101000
          -23 12 -67 7 -16 0 -17 0 -59 -5 -31 -14 rrcurveto
          hintmask 10011000
          108 -334 -334 107 vlineto
          hintmask 10000100
          -10 -27 -7 -40 0 -41 0 -42 9 -40 12 -29 rrcurveto
          hintmask 10001001
          -111 -334 334 117 hlineto
          hintmask 01000001
          32 -13 58 -3 17 0 rrcurveto
          16 0 59 4 31 14 rrcurveto
          endchar
        </CharString>
        <CharString name="d">
          3 -28 234 -185 -21 866 234 354 -20 hstemhm
          74 260 426 258 hintmask 01111100
          760 hmoveto
          -60 callsubr
          hintmask 10111100
          -59 callsubr
          -426 380 rmoveto
          -58 callsubr
          endchar
        </CharString>
        <CharString name="dagger">
          -255 21 -21 832 240 382 -20 hstem
          310 243 vstem
          553 1072 rmoveto
          382 -243 -382 -264 -240 264 -832 243 832 265 240 vlineto
          endchar
        </CharString>
        <CharString name="daggerdbl">
          -255 21 -21 284 240 548 240 142 -20 hstem
          310 243 vstem
          553 1312 rmoveto
          142 -243 -142 -264 -240 264 -548 -264 -240 264 -284 243 284 265 240 vlineto
          -265 548 265 240 hlineto
          endchar
        </CharString>
        <CharString name="dcaron">
          229 -28 234 -206 21 845 234 334 20 hstemhm
          74 260 426 258 hintmask 01111100
          760 hmoveto
          -60 callsubr
          hintmask 10111100
          -59 callsubr
          -426 380 rmoveto
          -58 callsubr
          hintmask 00111100
          968 848 rmoveto
          0 32 -10 30 -21 27 -21 27 -28 13 -37 0 -29 0 -27 -13 -22 -27 -22 -27 -11 -30 0 -32 0 -37 8 -30 16 -23 16 -23 19 -14 22 -6 rrcurveto
          1 -2 0 -2 0 -4 0 -12 -4 -16 -8 -22 -8 -22 -6 -16 -5 -10 rrcurveto
          52 -34 rlineto
          10 9 10 12 13 16 13 16 14 20 14 24 14 24 12 28 10 31 rrcurveto
          10 31 5 32 0 30 rrcurveto
          endchar
        </CharString>
        <CharString name="dcroat">
          3 -28 234 -185 -21 866 234 40 240 74 -20 hstemhm
          74 260 426 258 hintmask 10111110
          334 537 rmoveto
          245 115 84 97 97 125 -76 -253 -255 -125 -76 -97 vhcurveto
          -94 -118 107 224 hvcurveto
          hintmask 01111110
          426 -537 rmoveto
          258 1140 68 240 -68 74 -258 -74 -184 -240 184 -223 hlineto
          -69 109 -122 74 -116 0 rrcurveto
          -264 -115 -264 -304 hvcurveto
          hintmask 10111110
          -59 callsubr
          endchar
        </CharString>
        <CharString name="ddotaccent">
          3 -28 234 -206 21 845 234 334 20 139 328 hstemhm
          74 260 78 328 20 258 hintmask 01110101
          760 hmoveto
          -60 callsubr
          hintmask 10110101
          -59 callsubr
          -426 380 rmoveto
          -58 callsubr
          hintmask 00001010
          78 1220 rmoveto
          -20 callsubr
          endchar
        </CharString>
        <CharString name="degree">
          -356 866 162 300 162 hstem
          -17 173 289 173 vstem
          156 1178 rmoveto
          -18 callsubr
          -173 hmoveto
          -17 callsubr
          endchar
        </CharString>
        <CharString name="delta">
          -14 -29 235 1068 240 hstem
          92 252 444 248 vstem
          92 537 rmoveto
          0 -176 42 -138 82 -101 82 -101 116 -50 151 0 150 0 116 51 82 102 82 102 41 137 0 174 0 174 -41 137 -82 101 rrcurveto
          -323 325 424 0 0 240 -766 0 0 -240 188 -188 rlineto
          -90 -21 -73 -47 -57 -70 -83 -101 -41 -137 0 -173 rrcurveto
          252 hmoveto
          59 callsubr
          endchar
        </CharString>
        <CharString name="dieresis">
          -186 1593 328 hstem
          67 328 143 328 vstem
          67 1757 rmoveto
          -20 callsubr
          471 hmoveto
          -20 callsubr
          endchar
        </CharString>
        <CharString name="dieresistonos">
          19 1184 328 hstem
          78 328 326 328 vstem
          617 1192 rmoveto
          20 callsubr
          -539 156 rmoveto
          18 callsubr
          654 hmoveto
          18 callsubr
          endchar
        </CharString>
        <CharString name="divide">
          -116 117 328 79 240 81 328 hstem
          347 328 vstem
          347 1009 rmoveto
          -100 callsubr
          -728 vmoveto
          -100 callsubr
          -229 483 rmoveto
          -101 callsubr
          endchar
        </CharString>
        <CharString name="dollar">
          -192 -26 251 869 -21 hstem
          43 276 115 168 139 275 vstem
          432 1537 rmoveto
          -132 vlineto
          -201 -12 -188 -138 0 -204 0 -252 178 -113 213 -47 rrcurveto
          -414 vlineto
          -82 13 -49 110 -37 78 rrcurveto
          -246 -82 rlineto
          52 -158 141 -194 221 -18 rrcurveto
          -129 168 129 vlineto
          264 26 150 170 0 215 0 277 -215 94 -199 67 rrcurveto
          336 vlineto
          57 -14 11 -17 37 -55 rrcurveto
          264 82 rlineto
          -84 154 -117 82 -168 13 rrcurveto
          133 vlineto
          -168 -652 rmoveto
          -76 30 -39 37 0 92 0 33 25 80 90 10 rrcurveto
          168 -589 rmoveto
          125 -52 14 -96 0 -43 0 -78 -36 -69 -103 -23 rrcurveto
          endchar
        </CharString>
        <CharString name="dong">
          59 722 127 41 114 337 115 28 115 hstem
          334 131 197 129 vstem
          791 904 rmoveto
          580 54 115 -54 33 -129 -33 -154 -115 154 -76 vlineto
          -22 27 -28 17 -34 4 rrcurveto
          -24 hlineto
          -70 0 -57 -35 -42 -68 -34 -57 -17 -65 0 -71 0 -98 28 -73 56 -48 38 -34 50 -17 60 0 33 0 32 16 31 33 rrcurveto
          -35 vlineto
          4 269 rmoveto
          0 -87 -25 -55 -49 -20 -8 -4 -9 -3 -11 0 -33 0 -25 20 -18 38 -15 26 -8 37 0 46 0 60 14 48 29 37 14 16 14 9 15 0 rrcurveto
          31 0 28 -16 23 -31 22 -30 11 -40 0 -51 rrcurveto
          144 -451 rmoveto
          127 -435 -127 vlineto
          endchar
        </CharString>
        <CharString name="dotaccent">
          -243 1593 328 hstem
          304 328 vstem
          304 1757 rmoveto
          -20 callsubr
          endchar
        </CharString>
        <CharString name="dotbelowcomb">
          -1119 -455 328 hstem
          -693 328 vstem
          -693 -291 rmoveto
          17 callsubr
          endchar
        </CharString>
        <CharString name="dotlessi">
          -585 21 -21 1073 -20 hstem
          139 258 vstem
          139 1073 rmoveto
          -50 callsubr
          endchar
        </CharString>
        <CharString name="e">
          -26 -29 230 268 182 217 230 hstem
          88 274 vstem
          363 651 rmoveto
          -57 callsubr
          -198 -450 rmoveto
          -56 callsubr
          endchar
        </CharString>
        <CharString name="eacute">
          -26 -29 230 268 182 217 230 80 417 hstem
          88 274 28 446 vstem
          363 651 rmoveto
          -57 callsubr
          -198 -450 rmoveto
          -56 callsubr
          -71 982 rmoveto
          -12 callsubr
          endchar
        </CharString>
        <CharString name="ebreve">
          -26 -29 230 268 182 217 230 68 236 hstem
          88 274 vstem
          628 1418 rmoveto
          -4 callsubr
          -265 -767 rmoveto
          -57 callsubr
          -198 -450 rmoveto
          -56 callsubr
          endchar
        </CharString>
        <CharString name="ecaron">
          -26 -29 230 268 182 217 230 47 344 hstem
          88 274 vstem
          967 1489 rmoveto
          -2 callsubr
          -320 -494 rmoveto
          -57 callsubr
          -198 -450 rmoveto
          -56 callsubr
          endchar
        </CharString>
        <CharString name="ecircumflex">
          -155 -29 230 268 182 217 230 54 344 hstem
          88 274 vstem
          985 1152 rmoveto
          -68 callsubr
          -351 -501 rmoveto
          -57 callsubr
          -198 -450 rmoveto
          -56 callsubr
          endchar
        </CharString>
        <CharString name="edieresis">
          -155 -29 230 268 182 217 230 46 328 hstemhm
          88 274 -191 328 143 328 hintmask 00010110
          171 1308 rmoveto
          -20 callsubr
          471 hmoveto
          -20 callsubr
          hintmask 11101000
          -279 -657 rmoveto
          -57 callsubr
          -198 -450 rmoveto
          -56 callsubr
          endchar
        </CharString>
        <CharString name="edotaccent">
          -26 -29 230 268 182 217 230 90 328 hstem
          88 274 38 328 vstem
          400 1352 rmoveto
          -20 callsubr
          -37 -701 rmoveto
          -57 callsubr
          -198 -450 rmoveto
          -56 callsubr
          endchar
        </CharString>
        <CharString name="egrave">
          -26 -29 230 268 182 217 230 82 417 hstemhm
          88 274 -123 446 hintmask 11101000
          363 651 rmoveto
          -57 callsubr
          -198 -450 rmoveto
          -56 callsubr
          hintmask 00010100
          -10 984 rmoveto
          -67 callsubr
          endchar
        </CharString>
</ttFont>
